<?xml version="1.0" encoding="utf-8"?>
<!-- Generator: Adobe Illustrator 21.1.0, SVG Export Plug-In . SVG Version: 6.00 Build 0)  -->
<svg version="1.1" xmlns="http://www.w3.org/2000/svg" xmlns:xlink="http://www.w3.org/1999/xlink" x="0px" y="0px"
	 viewBox="0 0 840 840" style="enable-background:new 0 0 840 840;" xml:space="preserve">
<style type="text/css">
	.st0{display:none;}
	.st1{display:inline;}
	.st2{fill:#FFFFFF;}
	.st3{fill:#171E17;}
	.st4{fill:#314C31;}
	.st5{fill:#5C8E5C;}
</style>
<g id="Layer_2" class="st0">
	<g class="st1">
		<g>
			<g>
				<path d="M259.8,274.9c11.7-11.3,23.4-22.6,35.2-33.9c11.1-10.5,21.9-22.2,34.6-30.9c12.7-8.7,27.7-11.8,42.8-12.7
					c15.5-0.9,31.8-1,47,2.5c28.3,6.4,53.4,27.4,72.3,48.6c18.7,21,31.9,47,38,74.5c5.9,26.5,5.4,59.3-16.8,78.5
					c-1.5,1.3,0.7,3.4,2.1,2.1c19.4-16.8,23-44.4,19.8-68.5c-3.7-28.4-15.5-56-32.8-78.7c-9.3-12.2-20.3-22.9-32.1-32.6
					c-11.3-9.2-23.4-17.6-37-22.9c-15.1-5.9-31.3-6.9-47.3-6.9c-14.9,0.1-30.3,0.9-44.3,6.4c-16.1,6.3-28.4,19.4-40.7,31
					c-14.4,13.7-28.7,27.5-43,41.3C256.2,274.1,258.4,276.2,259.8,274.9L259.8,274.9z"/>
			</g>
		</g>
		<g>
			<g>
				<path d="M255.1,274.2c1.1,15,2.2,30.1,3.3,45.1c0.1,1.9,3.1,1.9,3,0c-1.3-30.9,8.5-62.2,28.7-85.9
					c19.2-22.5,46.9-37.6,76.4-40.6c62.6-6.4,114.8,40.8,138.8,94.8c14.1,31.8,19.5,67.1,15.6,101.7c-0.2,1.9,2.8,1.9,3,0
					c6.9-61.9-16.2-128.3-64.6-168.7c-23.4-19.5-52.5-31.9-83.3-31.4c-30.3,0.5-59.6,13.3-81.1,34.6c-25.2,24.9-38.1,60.3-36.6,95.5
					c1,0,2,0,3,0c-1.1-15-2.2-30.1-3.3-45.1C258,272.3,255,272.3,255.1,274.2L255.1,274.2z"/>
			</g>
		</g>
		<g>
			<g>
				<path d="M410.9,198c68.8-12.3,141.3-2.7,207.4-29.2c18.7-7.5,36.8-16.8,56.3-22.3c-0.6-0.6-1.2-1.2-1.8-1.8
					c-21.4,55.8-57.9,105.8-105,142.7c-14.8,11.6-31,21.6-49.3,26.8c-1.9,0.5-1.1,3.4,0.8,2.9c30.2-8.6,55.8-29.9,77.8-51.6
					c22-21.7,41.1-46.4,56.4-73.2c8.6-15,16-30.7,22.2-46.8c0.4-1.1-0.8-2.1-1.8-1.8c-16.7,4.7-32.3,12.1-48.2,18.9
					c-16.6,7.1-33.6,12.6-51.4,16.2c-34.9,7-70.6,7.7-106,10c-19.5,1.3-38.9,3.1-58.1,6.5C408.2,195.4,409.1,198.3,410.9,198
					L410.9,198z"/>
			</g>
		</g>
		<g>
			<g>
				<path d="M338.9,196.5c-31.6-28-63.3-59.3-76.3-100.7c-0.6-1.8-3.5-1.1-2.9,0.8c13.1,41.9,45,73.6,77,102
					C338.2,199.9,340.4,197.8,338.9,196.5L338.9,196.5z"/>
			</g>
		</g>
		<g>
			<g>
				<path d="M252.9,101.4c-23.3,26.9-30.3,62.8-30.4,97.4c-0.1,16.9,0.5,34.3,3.6,50.9c2.6,14.3,8,28.2,18.7,38.4
					c1.4,1.3,3.5-0.8,2.1-2.1c-10.8-10.2-15.7-24.3-18.2-38.6c-2.7-15.9-3.3-32.5-3.2-48.6c0.1-33.8,6.8-69.1,29.5-95.3
					C256.3,102.1,254.2,99.9,252.9,101.4L252.9,101.4z"/>
			</g>
		</g>
		<g>
			<g>
				<path d="M308.4,300c-48,23.6-94.9,49.3-140.7,77c-1.5,0.9-0.5,3.1,1.2,2.7c59.3-12.4,118.5-25.2,178.1-36.2
					c1.9-0.4,1.1-3.2-0.8-2.9c-59.6,11.1-118.8,23.8-178.1,36.2c0.4,0.9,0.8,1.8,1.2,2.7c45.7-27.7,92.7-53.4,140.7-77
					C311.6,301.8,310.1,299.2,308.4,300L308.4,300z"/>
			</g>
		</g>
		<g>
			<g>
				<path d="M383.2,253.8c1.2,10.8,2.3,21.6,3.5,32.3c0.2,1.9,3.2,1.9,3,0c-1.2-10.8-2.3-21.6-3.5-32.3
					C386,251.9,383,251.9,383.2,253.8L383.2,253.8z"/>
			</g>
		</g>
		<g>
			<g>
				<path d="M292.1,254.1c-1.3,9.1-1.8,18.3-1.5,27.5c0.1,1.9,3.1,1.9,3,0c-0.4-9,0.1-17.9,1.4-26.7
					C295.3,253,292.4,252.2,292.1,254.1L292.1,254.1z"/>
			</g>
		</g>
		<g>
			<g>
				<path d="M314.3,353.1c27.7,11.7,59.6,12.2,87.4,0.4c25.1-10.7,45.6-30.8,57.2-55.5c-0.9-0.3-1.9-0.5-2.8-0.8
					c3.4,34.3-7.4,70.7-34.4,93.5c-14.1,11.9-31.1,17.4-49.4,18.3c-19.1,1-39.1-1.6-56.2-10.7c-17-8.9-30.5-24.3-34.7-43.2
					c-0.4-1.9-3.3-1.1-2.9,0.8c8.5,37.9,47.6,55.4,83.2,56.2c19.1,0.4,38.2-2.8,54.3-13.5c13.9-9.3,24.9-22.7,32.2-37.7
					c9.7-19.8,12.9-41.9,10.8-63.8c-0.1-1.3-2.1-2.2-2.8-0.8c-10.9,23.3-29.9,42.4-53.3,53.2c-27.3,12.5-59.5,12.5-87.1,0.9
					C314,349.7,312.5,352.3,314.3,353.1L314.3,353.1z"/>
			</g>
		</g>
		<g>
			<g>
				<path d="M264.6,365.3c0.4,21.4,12.5,40.4,28.9,53.4c18.7,14.8,42.3,21.3,65.4,25.4c23.3,4.1,47.5,7.6,71.1,5.5
					c23.3-2.1,43.3-10.7,60.3-27c19.5-18.7,39.9-39.1,51.1-64c0.8-1.7-1.8-3.3-2.6-1.5c-9.6,21.3-25.9,38.3-42,54.8
					c-8.1,8.3-16.4,16.7-26.4,22.6c-9.3,5.5-19.7,8.9-30.3,10.8c-22.5,3.9-45.7,1.2-68.1-2.1c-22.9-3.4-46.4-8-66.6-19.9
					c-20.6-12.2-37.3-33.3-37.8-57.9C267.6,363.3,264.6,363.3,264.6,365.3L264.6,365.3z"/>
			</g>
		</g>
		<g>
			<g>
				<path d="M433.5,451.6c-3.2,17.1-2.7,34.4,1.5,51.3c0.5,1.9,3.4,1.1,2.9-0.8c-4-16.3-4.6-33.1-1.5-49.7
					C436.8,450.5,433.9,449.7,433.5,451.6L433.5,451.6z"/>
			</g>
		</g>
		<g>
			<g>
				<path d="M368.1,448.6c5.8,9.2,5.3,21,5.6,31.5c0.3,11.5-0.3,23-4.9,33.7c-0.7,1.8,1.8,3.3,2.6,1.5c4.7-11.2,5.6-23.2,5.3-35.2
					c-0.3-11.1,0.1-23.3-6-33C369.7,445.5,367.1,447,368.1,448.6L368.1,448.6z"/>
			</g>
		</g>
		<g>
			<g>
				<path d="M445.7,502.1c33.6-13.6,67.6-26.2,102-37.8c4.3-1.4,8.6-3,12.9-4.3c2.5-0.8,5.3-1.6,7.9-1.2c2.7,0.5,4.7,2.8,6.5,4.6
					c6.6,6.6,13,13.3,19.6,19.9c13,13.3,26.1,26.6,39.1,39.9c1.4,1.4,3.5-0.7,2.1-2.1c-14-14.2-27.9-28.5-41.9-42.7
					c-6.4-6.6-12.7-14.6-20.1-20.1c-6.3-4.7-12.9-1.6-19.6,0.6c-36.9,12.3-73.3,25.7-109.4,40.3
					C443.1,499.9,443.9,502.8,445.7,502.1L445.7,502.1z"/>
			</g>
		</g>
		<g>
			<g>
				<path d="M638.3,520.5c16.9-6.6,35.2-8.3,48,6.9c12,14.2,12.2,33.6,10.1,51.1c0.9-0.3,1.9-0.5,2.8-0.8
					c-8.5-13.2-19.4-28.2-36.9-27.5c-1.3,0.1-1.9,1.6-1.1,2.6c13.3,14.7,12.4,38.9-1.8,52.6c0.8,0.5,1.7,1,2.5,1.5
					c4.1-18.7-6-41.2-25.2-47.1c-9.2-2.8-18.4,1-23,9.5c-5.1,9.4-2.3,20.5,3.6,28.8c0.3-0.7,0.6-1.5,0.9-2.2
					c-10.3,2.3-15.9-11.2-16.8-19.4c-0.8-7.4,0.8-15.1,4.6-21.5c2-3.4,5-5.7,7.4-8.8c1.2-1.5,2-3.3,1.4-5.2
					c-0.9-2.9-4.2-5.6-6.1-7.8c-3.2-3.8-6.4-7.5-9.6-11.3c-6.4-7.5-12.8-15-19.1-22.6c-2.5-2.9-4.9-6.9-8-9.2
					c-2.4-1.7-5.1-1.1-7.8-0.5c-16.8,3.6-33,10-48.4,17.4c-18.2,8.7-35.6,19.1-52.9,29.4c-1.7,1-0.1,3.6,1.5,2.6
					c30.7-18.4,62-37.1,97.1-45.7c2.7-0.7,6.7-2.2,9.3-0.3c1.5,1.1,2.8,3.2,4,4.6c3.2,3.8,6.4,7.5,9.6,11.3
					c6.4,7.5,12.8,15,19.1,22.6c1.5,1.8,3,3.5,4.5,5.3c2.1,2.5,4.4,4.7,2.5,8.3c-1.4,2.5-4.5,4.6-6.2,7.1
					c-3.5,5.3-5.4,11.5-5.9,17.9c-0.8,11.4,5.7,31.8,20.7,28.5c0.9-0.2,1.4-1.4,0.9-2.2c-5.4-7.6-8.3-17.8-3.3-26.4
					c5.5-9.4,16.1-10.1,24.9-5c13.9,8.1,20.8,25.3,17.4,40.9c-0.3,1.4,1.4,2.5,2.5,1.5c15.4-14.9,16.2-41,1.8-56.9
					c-0.4,0.9-0.7,1.7-1.1,2.6c16.4-0.7,26.4,13.7,34.3,26c0.9,1.3,2.6,0.7,2.8-0.8c2.3-18.8,1.5-39.6-11.9-54.3
					c-13.6-14.9-32.6-13.3-50-6.6C635.8,518.3,636.5,521.2,638.3,520.5L638.3,520.5z"/>
			</g>
		</g>
		<g>
			<g>
				<path d="M354.3,515.9c-39-12.2-76.8-27.9-112.8-47.3c-3.7-2-7.6-4.9-11.9-5.3c-3.7-0.4-6.5,1.7-9.3,3.8
					c-8.2,6.2-16.4,12.4-24.6,18.6c-7.8,5.9-16.2,14.5-25.9,17c-7,1.8-12.9,2.7-18.6,7.6c-10.7,9.2-14.6,24.9-8.9,37.8
					c0.4,0.8,1.8,1,2.4,0.3c6.6-8.6,15.3-14.8,25.6-18.1c-0.6-0.7-1.1-1.5-1.7-2.2c-10.9,19.4-4.2,45.6,14.7,57.3
					c1,0.6,2.2-0.2,2.3-1.3c0.9-9.7-5.3-18.2-4.7-27.9c0.6-10.1,6.2-20.3,15.2-25.4c9.5-5.5,21.1,1.8,27.1,9.4
					c5.9,7.4,8.5,16.9,6.7,26.2c-0.3,1.6,1.8,2.7,2.7,1.2c7-11.5,14.7-25.9,7.7-39.2c-5.8-10.9-18.3-16-29.2-20.1
					c0.1,0.9,0.2,1.8,0.4,2.7c5.6-3.7,11.1-7.6,16.8-11.2c3.1-1.9,4.5-2.8,8.7-1.2c1.3,0.5,2.5,1.4,3.7,2.1c2.8,1.6,5.6,3.2,8.4,4.9
					c10.9,6.4,21.8,12.9,32.8,19.1c21.8,12.2,44.4,23.2,68.8,29c1.9,0.5,2.7-2.4,0.8-2.9c-27-6.5-51.8-19.3-75.7-33.1
					c-11.7-6.8-23.3-13.8-35.1-20.5c-4.4-2.5-7.9-3.6-12.6-0.9c-6.2,3.6-12.1,8-18.1,12c-1.1,0.8-0.9,2.3,0.4,2.7
					c9.8,3.7,21.1,8.3,26.8,17.6c7.6,12.4-0.4,26.5-7,37.4c0.9,0.4,1.8,0.8,2.7,1.2c2-10.2-0.7-20.5-7.1-28.7
					c-5.6-7.1-15.9-14.3-25.5-12.5c-10,1.9-17.7,12.3-20.6,21.4c-1.5,4.8-2.1,10-1.4,15c1,7.4,5.2,14.1,4.4,21.8
					c0.8-0.4,1.5-0.9,2.3-1.3c-17.5-10.8-23.8-35.2-13.6-53.2c0.6-1.1-0.4-2.6-1.7-2.2c-10.8,3.5-20,9.9-26.9,18.9
					c0.8,0.1,1.6,0.2,2.4,0.3c-5.6-12.7-0.3-28.5,11.1-36.1c6.3-4.2,14.1-3.6,20.6-7.1c7.6-4.1,14.5-10.5,21.4-15.7
					c7.4-5.6,14.9-11.3,22.3-16.9c1.5-1.1,3.2-2.9,5-3.6c4-1.6,7.3-0.1,10.7,1.8c4.1,2.2,8.2,4.4,12.3,6.6
					c15.5,8.1,31.4,15.5,47.6,22.3c18.9,7.9,38.2,14.9,57.7,21C355.4,519.4,356.2,516.5,354.3,515.9L354.3,515.9z"/>
			</g>
		</g>
		<g>
			<g>
				<path d="M368.2,533.3c-0.4,6-0.5,12.1-1.2,18.1c-0.7,7.3-7.3,10.3-11.8,15.3c-6.5,7.3-11.3,16.2-13,25.9
					c-3.6,20.5,7.1,39.4,26,47.6c19.1,8.3,41.7,8.2,61.1,1.1c16.9-6.2,37.8-19.5,38.3-39.7c0.2-10.6-4.9-19.3-13-25.7
					c-6.5-5.2-7.2-11.2-8.1-19c-0.8-7.6-1.7-15.1-2.5-22.7c-0.2-1.9-3.2-1.9-3,0c1.2,10.6,1.5,21.8,3.8,32.3
					c2,9.3,10.7,12.1,15.5,19.6c13.3,20.9-6,40.3-24,49.1c-18.7,9.2-40.9,11-60.8,4.7c-10.4-3.3-20-9.1-25.6-18.7
					c-5.3-9.2-6.7-20.4-4.2-30.7c2.8-11.4,9.8-20.4,18.5-27.9c8.2-7.1,6.3-19.1,6.9-29C371.3,531.4,368.3,531.4,368.2,533.3
					L368.2,533.3z"/>
			</g>
		</g>
		<g>
			<g>
				<path d="M381,621.4c1.9,0,1.9-3,0-3C379.1,618.4,379.1,621.4,381,621.4L381,621.4z"/>
			</g>
		</g>
		<g>
			<g>
				<path d="M347.8,625.7c19.2,27.5,35.4,57,48.3,88c0.5,1.1,2,1.6,2.7,0.4c10.2-16.9,21.8-33,34.8-48
					c10.1-11.6,22.1-23.2,23.5-39.4c0.2-1.9-2.8-1.9-3,0c-1.5,17.5-16.7,30.1-27.3,42.8c-11.3,13.6-21.5,28-30.6,43.1
					c0.9,0.1,1.8,0.2,2.7,0.4c-13-31.3-29.2-61-48.6-88.8C349.3,622.6,346.7,624.1,347.8,625.7L347.8,625.7z"/>
			</g>
		</g>
		<g>
			<g>
				<path d="M351.6,637.8c-14.3,1.3-28.5,2.5-42.8,3.8c-3.9,0.3-8.9,0.1-11.5,3.6c-2.9,4-2.7,10.7-3.3,15.4
					c-0.8,7.1-1.3,14.3-1.3,21.5c0,3.3,0,6.5,0.2,9.8c0.2,5.1,1.2,8.4-4,11.6c-4.3,2.7-8.7,4.7-12.6,8c-4.3,3.6-7.8,7.8-10.8,12.5
					c-0.7,1.1,0.5,2.6,1.7,2.2c10.8-3.7,21.5-7.3,32.3-11c-0.6-0.6-1.2-1.2-1.8-1.8c-1.4,9.1-2.8,18.2-4.2,27.2
					c-0.3,1.7,1.7,2.6,2.7,1.2c15-21.4,33.4-43,59.8-49.5c1.6-0.4,1.3-2.4,0-2.9c-14.1-5.5-29.5-4.8-43.1,1.7
					c0.8,0.4,1.5,0.9,2.3,1.3c-1.4-10.6-1.8-21.2-1-31.8c-0.5,0.5-1,1-1.5,1.5c17-2,34.1-4,51.1-6c1.9-0.2,1.9-3.2,0-3
					c-17,2-34.1,4-51.1,6c-0.9,0.1-1.4,0.6-1.5,1.5c-0.7,10.6-0.4,21.3,1,31.8c0.2,1.2,1.1,1.8,2.3,1.3c12.9-6.2,27.5-6.6,40.8-1.4
					c0-1,0-1.9,0-2.9c-27.2,6.7-46.2,28.9-61.6,50.9c0.9,0.4,1.8,0.8,2.7,1.2c1.4-9.1,2.8-18.2,4.2-27.2c0.2-1-0.7-2.3-1.8-1.8
					c-10.8,3.7-21.5,7.3-32.3,11c0.6,0.7,1.1,1.5,1.7,2.2c3-4.7,6.6-8.9,10.9-12.4c4.3-3.5,9.6-5.2,13.9-8.5c3-2.3,3.3-5.3,3.2-8.8
					c-0.3-6.5-0.5-13-0.2-19.6c0.3-7,0.9-14.1,1.9-21c0.5-3.6,0.5-8.4,4.7-10c2.7-1,6.4-0.7,9.3-1c13.3-1.2,26.6-2.4,39.9-3.6
					C353.5,640.6,353.5,637.6,351.6,637.8L351.6,637.8z"/>
			</g>
		</g>
		<g>
			<g>
				<path d="M454.3,643.4c12.7,3.1,25.4,6.1,38.1,9.2c5.7,1.4,12.8,2,18.1,4.4c5.7,2.6,3.3,6.5,2,10.5c-1,3-2,6-3,9
					c-1.8,5.3-4.8,11.3-5.5,16.9c-0.5,3.8,2.2,5.4,5,7.4c10.1,7.2,19,15.8,26.5,25.7c0.3-0.7,0.6-1.5,0.9-2.2
					c-13.1,1.9-26.2-1-37.3-8.2c-0.9-0.6-2.4,0.2-2.3,1.3c1,9.1,2.8,18,5.5,26.7c0.6-0.6,1.2-1.2,1.8-1.8c-6.6-2.1-9-9.1-11.4-14.9
					c-2-4.8-4.2-9.3-7.6-13.3c-7.9-9.4-19.2-15.3-30-20.7c-0.3,0.9-0.5,1.9-0.8,2.8c12.1-1,24.1-1.3,36.2-0.8c0.6,0,1.3-0.5,1.4-1.1
					c1.9-7.7,5-16,5.7-23.8c0.5-5.2-4.9-6.1-8.9-7.6c-15.3-5.8-31.1-9.9-47.3-12.6c-1.9-0.3-2.7,2.6-0.8,2.9
					c12.7,2.1,25.2,5.1,37.5,9.1c3,1,5.9,2,8.9,3.1c1.3,0.5,3.4,0.9,4.4,1.7c2.6,2,3,3.7,2.3,6.6c-1.6,6.6-3.2,13.2-4.8,19.8
					c0.5-0.4,1-0.7,1.4-1.1c-12.1-0.5-24.2-0.2-36.2,0.8c-1.4,0.1-2.2,2.1-0.8,2.8c12,6.1,25.3,12.7,32.5,24.6
					c5.2,8.4,6.4,21.2,17.2,24.6c1.1,0.3,2.2-0.8,1.8-1.8c-2.6-8.5-4.5-17.1-5.4-25.9c-0.8,0.4-1.5,0.9-2.3,1.3
					c11.9,7.6,25.7,10.5,39.6,8.5c0.9-0.1,1.4-1.5,0.9-2.2c-6.9-9.2-14.9-17.3-24.1-24.3c-1.1-0.8-2.5-1.6-3.5-2.5
					c-1.4-0.6-2.2-1.7-2.3-3.3c-1.1-1.3-1.2-2.7-0.3-4.1c0.4-3,2-6.2,3-9c2.1-6.3,4.8-12.8,6.3-19.3c0.7-3.1,0.3-6-2.8-7.5
					c-5.1-2.5-12-3.1-17.5-4.4c-14-3.4-27.9-6.7-41.9-10.1C453.2,640.1,452.4,643,454.3,643.4L454.3,643.4z"/>
			</g>
		</g>
	</g>
</g>
<g id="Layer_1">
	<g>
		<g id="XMLID_1_">
			<g>
				<rect x="757.7" y="205.1" class="st2" width="20.5" height="20.5"/>
				<rect x="737.2" y="225.6" class="st2" width="20.5" height="20.5"/>
				<rect x="716.7" y="266.5" class="st2" width="20.5" height="20.5"/>
				<rect x="696.3" y="287" class="st2" width="20.5" height="20.5"/>
				<rect x="675.8" y="307.5" class="st2" width="20.5" height="20.5"/>
				<rect x="655.3" y="348.4" class="st2" width="20.5" height="20.5"/>
				<rect x="634.9" y="368.8" class="st2" width="20.5" height="20.5"/>
				<rect x="553" y="491.6" class="st2" width="20.5" height="20.5"/>
				<rect x="778.1" y="225.6" class="st3" width="20.5" height="20.5"/>
				<rect x="778.1" y="205.1" class="st3" width="20.5" height="20.5"/>
				<rect x="778.1" y="184.7" class="st3" width="20.5" height="20.5"/>
				<rect x="757.7" y="266.5" class="st3" width="20.5" height="20.5"/>
				<rect x="757.7" y="246.1" class="st3" width="20.5" height="20.5"/>
				<rect x="757.7" y="225.6" class="st3" width="20.5" height="20.5"/>
				<rect x="757.7" y="184.7" class="st3" width="20.5" height="20.5"/>
				<rect x="737.2" y="287" class="st3" width="20.5" height="20.5"/>
				<rect x="737.2" y="266.5" class="st3" width="20.5" height="20.5"/>
				<rect x="737.2" y="246.1" class="st3" width="20.5" height="20.5"/>
				<rect x="737.2" y="205.1" class="st3" width="20.5" height="20.5"/>
				<rect x="716.7" y="307.5" class="st3" width="20.5" height="20.5"/>
				<rect x="716.7" y="287" class="st3" width="20.5" height="20.5"/>
				<rect x="716.7" y="246.1" class="st3" width="20.5" height="20.5"/>
				<rect x="716.7" y="225.6" class="st3" width="20.5" height="20.5"/>
				<rect x="696.3" y="348.4" class="st3" width="20.5" height="20.5"/>
				<rect x="696.3" y="327.9" class="st3" width="20.5" height="20.5"/>
				<rect x="696.3" y="307.5" class="st3" width="20.5" height="20.5"/>
				<rect x="696.3" y="266.5" class="st3" width="20.5" height="20.5"/>
				<rect x="675.8" y="368.8" class="st3" width="20.5" height="20.5"/>
				<rect x="675.8" y="348.4" class="st3" width="20.5" height="20.5"/>
				<rect x="675.8" y="327.9" class="st3" width="20.5" height="20.5"/>
				<rect x="675.8" y="287" class="st3" width="20.5" height="20.5"/>
				<rect x="655.3" y="450.7" class="st3" width="20.5" height="20.5"/>
				<rect x="655.3" y="430.2" class="st3" width="20.5" height="20.5"/>
				<rect x="655.3" y="409.8" class="st3" width="20.5" height="20.5"/>
				<rect x="655.3" y="389.3" class="st4" width="20.5" height="20.5"/>
				<rect x="655.3" y="368.8" class="st3" width="20.5" height="20.5"/>
				<rect x="655.3" y="327.9" class="st3" width="20.5" height="20.5"/>
				<rect x="655.3" y="307.5" class="st3" width="20.5" height="20.5"/>
				<rect x="655.3" y="164.2" class="st3" width="20.5" height="20.5"/>
				<rect x="655.3" y="143.7" class="st4" width="20.5" height="20.5"/>
				<rect x="655.3" y="123.3" class="st4" width="20.5" height="20.5"/>
				<rect x="634.9" y="778.1" class="st4" width="20.5" height="20.5"/>
				<rect x="634.9" y="471.2" class="st3" width="20.5" height="20.5"/>
				<rect x="634.9" y="450.7" class="st3" width="20.5" height="20.5"/>
				<rect x="634.9" y="430.2" class="st3" width="20.5" height="20.5"/>
				<rect x="634.9" y="409.8" class="st4" width="20.5" height="20.5"/>
				<rect x="634.9" y="389.3" class="st3" width="20.5" height="20.5"/>
				<rect x="634.9" y="348.4" class="st3" width="20.5" height="20.5"/>
				<rect x="634.9" y="205.1" class="st3" width="20.5" height="20.5"/>
				<rect x="634.9" y="184.7" class="st3" width="20.5" height="20.5"/>
				<rect x="634.9" y="164.2" class="st4" width="20.5" height="20.5"/>
				<rect x="634.9" y="143.7" class="st3" width="20.5" height="20.5"/>
				<rect x="614.4" y="798.6" class="st3" width="20.5" height="20.5"/>
				<rect x="614.4" y="778.1" class="st4" width="20.5" height="20.5"/>
				<rect x="614.4" y="491.6" class="st4" width="20.5" height="20.5"/>
				<rect x="614.4" y="471.2" class="st3" width="20.5" height="20.5"/>
				<rect x="614.4" y="450.7" class="st3" width="20.5" height="20.5"/>
				<rect x="614.4" y="430.2" class="st4" width="20.5" height="20.5"/>
				<rect x="614.4" y="409.8" class="st5" width="20.5" height="20.5"/>
				<rect x="614.4" y="389.3" class="st4" width="20.5" height="20.5"/>
				<rect x="614.4" y="368.8" class="st3" width="20.5" height="20.5"/>
				<rect x="614.4" y="225.6" class="st3" width="20.5" height="20.5"/>
				<rect x="614.4" y="205.1" class="st3" width="20.5" height="20.5"/>
				<rect x="614.4" y="184.7" class="st4" width="20.5" height="20.5"/>
				<rect x="614.4" y="164.2" class="st5" width="20.5" height="20.5"/>
				<rect x="614.4" y="143.7" class="st3" width="20.5" height="20.5"/>
				<rect x="593.9" y="798.6" class="st3" width="20.5" height="20.5"/>
				<rect x="593.9" y="778.1" class="st4" width="20.5" height="20.5"/>
				<rect x="593.9" y="512.1" class="st4" width="20.5" height="20.5"/>
				<rect x="593.9" y="491.6" class="st3" width="20.5" height="20.5"/>
				<rect x="593.9" y="471.2" class="st3" width="20.5" height="20.5"/>
				<rect x="593.9" y="450.7" class="st4" width="20.5" height="20.5"/>
				<rect x="593.9" y="430.2" class="st4" width="20.5" height="20.5"/>
				<rect x="593.9" y="409.8" class="st5" width="20.5" height="20.5"/>
				<rect x="593.9" y="389.3" class="st4" width="20.5" height="20.5"/>
				<rect x="593.9" y="246.1" class="st3" width="20.5" height="20.5"/>
				<rect x="593.9" y="225.6" class="st3" width="20.5" height="20.5"/>
				<rect x="593.9" y="205.1" class="st4" width="20.5" height="20.5"/>
				<rect x="593.9" y="184.7" class="st5" width="20.5" height="20.5"/>
				<rect x="593.9" y="164.2" class="st4" width="20.5" height="20.5"/>
				<rect x="573.5" y="819" class="st3" width="20.5" height="20.5"/>
				<rect x="573.5" y="798.6" class="st3" width="20.5" height="20.5"/>
				<rect x="573.5" y="778.1" class="st4" width="20.5" height="20.5"/>
				<rect x="573.5" y="757.7" class="st3" width="20.5" height="20.5"/>
				<rect x="573.5" y="532.5" class="st4" width="20.5" height="20.5"/>
				<rect x="573.5" y="512.1" class="st3" width="20.5" height="20.5"/>
				<rect x="573.5" y="491.6" class="st3" width="20.5" height="20.5"/>
				<rect x="573.5" y="471.2" class="st3" width="20.5" height="20.5"/>
				<rect x="573.5" y="450.7" class="st4" width="20.5" height="20.5"/>
				<rect x="573.5" y="430.2" class="st3" width="20.5" height="20.5"/>
				<rect x="573.5" y="409.8" class="st3" width="20.5" height="20.5"/>
				<rect x="573.5" y="266.5" class="st3" width="20.5" height="20.5"/>
				<rect x="573.5" y="246.1" class="st3" width="20.5" height="20.5"/>
				<rect x="573.5" y="225.6" class="st4" width="20.5" height="20.5"/>
				<rect x="573.5" y="205.1" class="st3" width="20.5" height="20.5"/>
				<rect x="573.5" y="184.7" class="st5" width="20.5" height="20.5"/>
				<rect x="573.5" y="164.2" class="st3" width="20.5" height="20.5"/>
				<rect x="553" y="819" class="st3" width="20.5" height="20.5"/>
				<rect x="553" y="798.6" class="st3" width="20.5" height="20.5"/>
				<rect x="553" y="778.1" class="st4" width="20.5" height="20.5"/>
				<rect x="553" y="757.7" class="st3" width="20.5" height="20.5"/>
				<rect x="553" y="553" class="st3" width="20.5" height="20.5"/>
				<rect x="553" y="532.5" class="st5" width="20.5" height="20.5"/>
				<rect x="553" y="512.1" class="st3" width="20.5" height="20.5"/>
				<rect x="553" y="471.2" class="st3" width="20.5" height="20.5"/>
				<rect x="553" y="287" class="st3" width="20.5" height="20.5"/>
				<rect x="553" y="266.5" class="st3" width="20.5" height="20.5"/>
				<rect x="553" y="246.1" class="st3" width="20.5" height="20.5"/>
				<rect x="553" y="225.6" class="st4" width="20.5" height="20.5"/>
				<rect x="553" y="205.1" class="st5" width="20.5" height="20.5"/>
				<rect x="553" y="184.7" class="st5" width="20.5" height="20.5"/>
				<rect x="553" y="164.2" class="st3" width="20.5" height="20.5"/>
				<rect x="532.5" y="819" class="st3" width="20.5" height="20.5"/>
				<rect x="532.5" y="798.6" class="st3" width="20.5" height="20.5"/>
				<rect x="532.5" y="778.1" class="st4" width="20.5" height="20.5"/>
				<rect x="532.5" y="757.7" class="st5" width="20.5" height="20.5"/>
				<rect x="532.5" y="737.2" class="st3" width="20.5" height="20.5"/>
				<rect x="532.5" y="716.7" class="st3" width="20.5" height="20.5"/>
				<rect x="532.5" y="696.3" class="st3" width="20.5" height="20.5"/>
				<rect x="532.5" y="675.8" class="st4" width="20.5" height="20.5"/>
				<rect x="532.5" y="573.5" class="st3" width="20.5" height="20.5"/>
				<rect x="532.5" y="553" class="st3" width="20.5" height="20.5"/>
				<rect x="532.5" y="532.5" class="st4" width="20.5" height="20.5"/>
				<rect x="532.5" y="491.6" class="st3" width="20.5" height="20.5"/>
				<rect x="532.5" y="348.4" class="st3" width="20.5" height="20.5"/>
				<rect x="532.5" y="327.9" class="st3" width="20.5" height="20.5"/>
				<rect x="532.5" y="307.5" class="st3" width="20.5" height="20.5"/>
				<rect x="532.5" y="287" class="st3" width="20.5" height="20.5"/>
				<rect x="532.5" y="266.5" class="st3" width="20.5" height="20.5"/>
				<rect x="532.5" y="246.1" class="st4" width="20.5" height="20.5"/>
				<rect x="532.5" y="225.6" class="st3" width="20.5" height="20.5"/>
				<rect x="532.5" y="205.1" class="st4" width="20.5" height="20.5"/>
				<rect x="532.5" y="184.7" class="st5" width="20.5" height="20.5"/>
				<rect x="532.5" y="164.2" class="st3" width="20.5" height="20.5"/>
				<rect x="512.1" y="819" class="st3" width="20.5" height="20.5"/>
				<rect x="512.1" y="798.6" class="st3" width="20.5" height="20.5"/>
				<rect x="512.1" y="778.1" class="st3" width="20.5" height="20.5"/>
				<rect x="512.1" y="757.7" class="st4" width="20.5" height="20.5"/>
				<rect x="512.1" y="737.2" class="st4" width="20.5" height="20.5"/>
				<rect x="512.1" y="716.7" class="st4" width="20.5" height="20.5"/>
				<rect x="512.1" y="696.3" class="st5" width="20.5" height="20.5"/>
				<rect x="512.1" y="675.8" class="st5" width="20.5" height="20.5"/>
				<rect x="512.1" y="655.3" class="st3" width="20.5" height="20.5"/>
				<rect x="512.1" y="573.5" class="st3" width="20.5" height="20.5"/>
				<rect x="512.1" y="553" class="st3" width="20.5" height="20.5"/>
				<rect x="512.1" y="532.5" class="st3" width="20.5" height="20.5"/>
				<rect x="512.1" y="389.3" class="st3" width="20.5" height="20.5"/>
				<rect x="512.1" y="368.8" class="st3" width="20.5" height="20.5"/>
				<rect x="512.1" y="348.4" class="st3" width="20.5" height="20.5"/>
				<rect x="512.1" y="327.9" class="st4" width="20.5" height="20.5"/>
				<rect x="512.1" y="307.5" class="st3" width="20.5" height="20.5"/>
				<rect x="512.1" y="287" class="st4" width="20.5" height="20.5"/>
				<rect x="512.1" y="266.5" class="st4" width="20.5" height="20.5"/>
				<rect x="512.1" y="246.1" class="st3" width="20.5" height="20.5"/>
				<rect x="512.1" y="225.6" class="st4" width="20.5" height="20.5"/>
				<rect x="512.1" y="205.1" class="st5" width="20.5" height="20.5"/>
				<rect x="512.1" y="184.7" class="st4" width="20.5" height="20.5"/>
				<rect x="491.6" y="798.6" class="st3" width="20.5" height="20.5"/>
				<rect x="491.6" y="778.1" class="st3" width="20.5" height="20.5"/>
				<rect x="491.6" y="757.7" class="st3" width="20.5" height="20.5"/>
				<rect x="491.6" y="737.2" class="st3" width="20.5" height="20.5"/>
				<rect x="491.6" y="716.7" class="st3" width="20.5" height="20.5"/>
				<rect x="491.6" y="696.3" class="st3" width="20.5" height="20.5"/>
				<rect x="491.6" y="675.8" class="st3" width="20.5" height="20.5"/>
				<rect x="491.6" y="655.3" class="st3" width="20.5" height="20.5"/>
				<rect x="491.6" y="634.9" class="st3" width="20.5" height="20.5"/>
				<rect x="491.6" y="573.5" class="st3" width="20.5" height="20.5"/>
				<rect x="491.6" y="553" class="st3" width="20.5" height="20.5"/>
				<rect x="491.6" y="532.5" class="st5" width="20.5" height="20.5"/>
				<rect x="491.6" y="512.1" class="st4" width="20.5" height="20.5"/>
				<rect x="491.6" y="409.8" class="st3" width="20.5" height="20.5"/>
				<rect x="491.6" y="389.3" class="st3" width="20.5" height="20.5"/>
				<rect x="491.6" y="368.8" class="st3" width="20.5" height="20.5"/>
				<rect x="491.6" y="348.4" class="st4" width="20.5" height="20.5"/>
				<rect x="491.6" y="327.9" class="st3" width="20.5" height="20.5"/>
				<rect x="491.6" y="307.5" class="st4" width="20.5" height="20.5"/>
				<rect x="491.6" y="287" class="st3" width="20.5" height="20.5"/>
				<rect x="491.6" y="266.5" class="st4" width="20.5" height="20.5"/>
				<rect x="491.6" y="246.1" class="st3" width="20.5" height="20.5"/>
				<rect x="491.6" y="225.6" class="st5" width="20.5" height="20.5"/>
				<rect x="491.6" y="205.1" class="st3" width="20.5" height="20.5"/>
				<rect x="491.6" y="184.7" class="st3" width="20.5" height="20.5"/>
				<rect x="471.2" y="778.1" class="st3" width="20.5" height="20.5"/>
				<rect x="471.2" y="757.7" class="st4" width="20.5" height="20.5"/>
				<rect x="471.2" y="675.8" class="st3" width="20.5" height="20.5"/>
				<rect x="471.2" y="655.3" class="st3" width="20.5" height="20.5"/>
				<rect x="471.2" y="634.9" class="st4" width="20.5" height="20.5"/>
				<rect x="471.2" y="553" class="st3" width="20.5" height="20.5"/>
				<rect x="471.2" y="532.5" class="st5" width="20.5" height="20.5"/>
				<rect x="471.2" y="512.1" class="st3" width="20.5" height="20.5"/>
				<rect x="471.2" y="430.2" class="st4" width="20.5" height="20.5"/>
				<rect x="471.2" y="409.8" class="st3" width="20.5" height="20.5"/>
				<rect x="471.2" y="389.3" class="st3" width="20.5" height="20.5"/>
				<rect x="471.2" y="368.8" class="st4" width="20.5" height="20.5"/>
				<rect x="471.2" y="348.4" class="st3" width="20.5" height="20.5"/>
				<rect x="471.2" y="327.9" class="st4" width="20.5" height="20.5"/>
				<rect x="471.2" y="307.5" class="st3" width="20.5" height="20.5"/>
				<rect x="471.2" y="287" class="st4" width="20.5" height="20.5"/>
				<rect x="471.2" y="266.5" class="st5" width="20.5" height="20.5"/>
				<rect x="471.2" y="246.1" class="st4" width="20.5" height="20.5"/>
				<rect x="471.2" y="225.6" class="st3" width="20.5" height="20.5"/>
				<rect x="471.2" y="205.1" class="st5" width="20.5" height="20.5"/>
				<rect x="471.2" y="184.7" class="st3" width="20.5" height="20.5"/>
				<rect x="450.7" y="675.8" class="st3" width="20.5" height="20.5"/>
				<rect x="450.7" y="655.3" class="st3" width="20.5" height="20.5"/>
				<rect x="450.7" y="634.9" class="st3" width="20.5" height="20.5"/>
				<rect x="450.7" y="593.9" class="st3" width="20.5" height="20.5"/>
				<rect x="450.7" y="573.5" class="st3" width="20.5" height="20.5"/>
				<rect x="450.7" y="553" class="st4" width="20.5" height="20.5"/>
				<rect x="450.7" y="532.5" class="st3" width="20.5" height="20.5"/>
				<rect x="450.7" y="512.1" class="st3" width="20.5" height="20.5"/>
				<rect x="450.7" y="491.6" class="st3" width="20.5" height="20.5"/>
				<rect x="450.7" y="430.2" class="st3" width="20.5" height="20.5"/>
				<rect x="450.7" y="409.8" class="st3" width="20.5" height="20.5"/>
				<rect x="450.7" y="389.3" class="st4" width="20.5" height="20.5"/>
				<rect x="450.7" y="368.8" class="st3" width="20.5" height="20.5"/>
				<rect x="450.7" y="348.4" class="st5" width="20.5" height="20.5"/>
				<rect x="450.7" y="327.9" class="st5" width="20.5" height="20.5"/>
				<rect x="450.7" y="307.5" class="st5" width="20.5" height="20.5"/>
				<rect x="450.7" y="287" class="st5" width="20.5" height="20.5"/>
				<rect x="450.7" y="266.5" class="st4" width="20.5" height="20.5"/>
				<rect x="450.7" y="246.1" class="st5" width="20.5" height="20.5"/>
				<rect x="450.7" y="225.6" class="st5" width="20.5" height="20.5"/>
				<rect x="450.7" y="205.1" class="st4" width="20.5" height="20.5"/>
				<rect x="450.7" y="184.7" class="st3" width="20.5" height="20.5"/>
				<rect x="430.2" y="696.3" class="st3" width="20.5" height="20.5"/>
				<rect x="430.2" y="675.8" class="st3" width="20.5" height="20.5"/>
				<rect x="430.2" y="655.3" class="st3" width="20.5" height="20.5"/>
				<rect x="430.2" y="634.9" class="st3" width="20.5" height="20.5"/>
				<rect x="430.2" y="614.4" class="st3" width="20.5" height="20.5"/>
				<rect x="430.2" y="593.9" class="st3" width="20.5" height="20.5"/>
				<rect x="430.2" y="573.5" class="st3" width="20.5" height="20.5"/>
				<rect x="430.2" y="553" class="st3" width="20.5" height="20.5"/>
				<rect x="430.2" y="532.5" class="st3" width="20.5" height="20.5"/>
				<rect x="430.2" y="512.1" class="st4" width="20.5" height="20.5"/>
				<rect x="430.2" y="491.6" class="st3" width="20.5" height="20.5"/>
				<rect x="430.2" y="450.7" class="st4" width="20.5" height="20.5"/>
				<rect x="430.2" y="430.2" class="st3" width="20.5" height="20.5"/>
				<rect x="430.2" y="409.8" class="st3" width="20.5" height="20.5"/>
				<rect x="430.2" y="389.3" class="st3" width="20.5" height="20.5"/>
				<rect x="430.2" y="368.8" class="st5" width="20.5" height="20.5"/>
				<rect x="430.2" y="348.4" class="st2" width="20.5" height="20.5"/>
				<rect x="430.2" y="327.9" class="st2" width="20.5" height="20.5"/>
				<rect x="430.2" y="307.5" class="st5" width="20.5" height="20.5"/>
				<rect x="430.2" y="287" class="st4" width="20.5" height="20.5"/>
				<rect x="430.2" y="266.5" class="st5" width="20.5" height="20.5"/>
				<rect x="430.2" y="246.1" class="st4" width="20.5" height="20.5"/>
				<rect x="430.2" y="225.6" class="st5" width="20.5" height="20.5"/>
				<rect x="430.2" y="205.1" class="st4" width="20.5" height="20.5"/>
				<rect x="430.2" y="184.7" class="st3" width="20.5" height="20.5"/>
				<rect x="409.8" y="716.7" class="st3" width="20.5" height="20.5"/>
				<rect x="409.8" y="696.3" class="st3" width="20.5" height="20.5"/>
				<rect x="409.8" y="675.8" class="st3" width="20.5" height="20.5"/>
				<rect x="409.8" y="655.3" class="st3" width="20.5" height="20.5"/>
				<rect x="409.8" y="634.9" class="st3" width="20.5" height="20.5"/>
				<rect x="409.8" y="614.4" class="st3" width="20.5" height="20.5"/>
				<rect x="409.8" y="593.9" class="st4" width="20.5" height="20.5"/>
				<rect x="409.8" y="573.5" class="st4" width="20.5" height="20.5"/>
				<rect x="409.8" y="553" class="st5" width="20.5" height="20.5"/>
				<rect x="409.8" y="532.5" class="st3" width="20.5" height="20.5"/>
				<rect x="409.8" y="512.1" class="st4" width="20.5" height="20.5"/>
				<rect x="409.8" y="491.6" class="st4" width="20.5" height="20.5"/>
				<rect x="409.8" y="471.2" class="st3" width="20.5" height="20.5"/>
				<rect x="409.8" y="450.7" class="st3" width="20.5" height="20.5"/>
				<rect x="409.8" y="430.2" class="st3" width="20.5" height="20.5"/>
				<rect x="409.8" y="409.8" class="st3" width="20.5" height="20.5"/>
				<rect x="409.8" y="389.3" class="st5" width="20.5" height="20.5"/>
				<rect x="409.8" y="368.8" class="st2" width="20.5" height="20.5"/>
				<rect x="409.8" y="348.4" class="st2" width="20.5" height="20.5"/>
				<rect x="409.8" y="327.9" class="st5" width="20.5" height="20.5"/>
				<rect x="409.8" y="307.5" class="st4" width="20.5" height="20.5"/>
				<rect x="409.8" y="287" class="st4" width="20.5" height="20.5"/>
				<rect x="409.8" y="266.5" class="st4" width="20.5" height="20.5"/>
				<rect x="409.8" y="246.1" class="st3" width="20.5" height="20.5"/>
				<rect x="409.8" y="225.6" class="st2" width="20.5" height="20.5"/>
				<rect x="409.8" y="205.1" class="st5" width="20.5" height="20.5"/>
				<rect x="409.8" y="184.7" class="st4" width="20.5" height="20.5"/>
				<rect x="389.3" y="737.2" class="st3" width="20.5" height="20.5"/>
				<rect x="389.3" y="716.7" class="st3" width="20.5" height="20.5"/>
				<rect x="389.3" y="696.3" class="st3" width="20.5" height="20.5"/>
				<rect x="389.3" y="675.8" class="st3" width="20.5" height="20.5"/>
				<rect x="389.3" y="655.3" class="st3" width="20.5" height="20.5"/>
				<rect x="389.3" y="634.9" class="st3" width="20.5" height="20.5"/>
				<rect x="389.3" y="614.4" class="st4" width="20.5" height="20.5"/>
				<rect x="389.3" y="593.9" class="st3" width="20.5" height="20.5"/>
				<rect x="389.3" y="573.5" class="st5" width="20.5" height="20.5"/>
				<rect x="389.3" y="553" class="st4" width="20.5" height="20.5"/>
				<rect x="389.3" y="532.5" class="st5" width="20.5" height="20.5"/>
				<rect x="389.3" y="512.1" class="st5" width="20.5" height="20.5"/>
				<rect x="389.3" y="491.6" class="st3" width="20.5" height="20.5"/>
				<rect x="389.3" y="471.2" class="st3" width="20.5" height="20.5"/>
				<rect x="389.3" y="450.7" class="st3" width="20.5" height="20.5"/>
				<rect x="389.3" y="430.2" class="st3" width="20.5" height="20.5"/>
				<rect x="389.3" y="409.8" class="st3" width="20.5" height="20.5"/>
				<rect x="389.3" y="389.3" class="st5" width="20.5" height="20.5"/>
				<rect x="389.3" y="368.8" class="st2" width="20.5" height="20.5"/>
				<rect x="389.3" y="348.4" class="st5" width="20.5" height="20.5"/>
				<rect x="389.3" y="327.9" class="st4" width="20.5" height="20.5"/>
				<rect x="389.3" y="307.5" class="st4" width="20.5" height="20.5"/>
				<rect x="389.3" y="287" class="st5" width="20.5" height="20.5"/>
				<rect x="389.3" y="266.5" class="st4" width="20.5" height="20.5"/>
				<rect x="389.3" y="246.1" class="st5" width="20.5" height="20.5"/>
				<rect x="389.3" y="225.6" class="st5" width="20.5" height="20.5"/>
				<rect x="389.3" y="205.1" class="st5" width="20.5" height="20.5"/>
				<rect x="389.3" y="184.7" class="st3" width="20.5" height="20.5"/>
				<rect x="368.8" y="716.7" class="st3" width="20.5" height="20.5"/>
				<rect x="368.8" y="696.3" class="st3" width="20.5" height="20.5"/>
				<rect x="368.8" y="675.8" class="st3" width="20.5" height="20.5"/>
				<rect x="368.8" y="655.3" class="st3" width="20.5" height="20.5"/>
				<rect x="368.8" y="634.9" class="st3" width="20.5" height="20.5"/>
				<rect x="368.8" y="614.4" class="st3" width="20.5" height="20.5"/>
				<rect x="368.8" y="593.9" class="st4" width="20.5" height="20.5"/>
				<rect x="368.8" y="573.5" class="st4" width="20.5" height="20.5"/>
				<rect x="368.8" y="553" class="st5" width="20.5" height="20.5"/>
				<rect x="368.8" y="532.5" class="st4" width="20.5" height="20.5"/>
				<rect x="368.8" y="512.1" class="st5" width="20.5" height="20.5"/>
				<rect x="368.8" y="491.6" class="st4" width="20.5" height="20.5"/>
				<rect x="368.8" y="471.2" class="st3" width="20.5" height="20.5"/>
				<rect x="368.8" y="450.7" class="st3" width="20.5" height="20.5"/>
				<rect x="368.8" y="430.2" class="st3" width="20.5" height="20.5"/>
				<rect x="368.8" y="409.8" class="st5" width="20.5" height="20.5"/>
				<rect x="368.8" y="389.3" class="st2" width="20.5" height="20.5"/>
				<rect x="368.8" y="368.8" class="st2" width="20.5" height="20.5"/>
				<rect x="368.8" y="348.4" class="st5" width="20.5" height="20.5"/>
				<rect x="368.8" y="327.9" class="st4" width="20.5" height="20.5"/>
				<rect x="368.8" y="307.5" class="st3" width="20.5" height="20.5"/>
				<rect x="368.8" y="287" class="st4" width="20.5" height="20.5"/>
				<rect x="368.8" y="266.5" class="st5" width="20.5" height="20.5"/>
				<rect x="368.8" y="246.1" class="st5" width="20.5" height="20.5"/>
				<rect x="368.8" y="225.6" class="st5" width="20.5" height="20.5"/>
				<rect x="368.8" y="205.1" class="st5" width="20.5" height="20.5"/>
				<rect x="368.8" y="184.7" class="st3" width="20.5" height="20.5"/>
				<rect x="348.4" y="696.3" class="st3" width="20.5" height="20.5"/>
				<rect x="348.4" y="675.8" class="st3" width="20.5" height="20.5"/>
				<rect x="348.4" y="655.3" class="st3" width="20.5" height="20.5"/>
				<rect x="348.4" y="634.9" class="st3" width="20.5" height="20.5"/>
				<rect x="348.4" y="614.4" class="st3" width="20.5" height="20.5"/>
				<rect x="348.4" y="593.9" class="st3" width="20.5" height="20.5"/>
				<rect x="348.4" y="573.5" class="st4" width="20.5" height="20.5"/>
				<rect x="348.4" y="553" class="st4" width="20.5" height="20.5"/>
				<rect x="348.4" y="532.5" class="st3" width="20.5" height="20.5"/>
				<rect x="348.4" y="512.1" class="st4" width="20.5" height="20.5"/>
				<rect x="348.4" y="491.6" class="st4" width="20.5" height="20.5"/>
				<rect x="348.4" y="430.2" class="st3" width="20.5" height="20.5"/>
				<rect x="348.4" y="409.8" class="st5" width="20.5" height="20.5"/>
				<rect x="348.4" y="389.3" class="st2" width="20.5" height="20.5"/>
				<rect x="348.4" y="368.8" class="st2" width="20.5" height="20.5"/>
				<rect x="348.4" y="348.4" class="st5" width="20.5" height="20.5"/>
				<rect x="348.4" y="327.9" class="st3" width="20.5" height="20.5"/>
				<rect x="348.4" y="307.5" class="st5" width="20.5" height="20.5"/>
				<rect x="348.4" y="287" class="st5" width="20.5" height="20.5"/>
				<rect x="348.4" y="266.5" class="st5" width="20.5" height="20.5"/>
				<rect x="348.4" y="246.1" class="st5" width="20.5" height="20.5"/>
				<rect x="348.4" y="225.6" class="st5" width="20.5" height="20.5"/>
				<rect x="348.4" y="205.1" class="st5" width="20.5" height="20.5"/>
				<rect x="348.4" y="184.7" class="st3" width="20.5" height="20.5"/>
				<rect x="327.9" y="675.8" class="st3" width="20.5" height="20.5"/>
				<rect x="327.9" y="655.3" class="st3" width="20.5" height="20.5"/>
				<rect x="327.9" y="634.9" class="st3" width="20.5" height="20.5"/>
				<rect x="327.9" y="593.9" class="st3" width="20.5" height="20.5"/>
				<rect x="327.9" y="573.5" class="st4" width="20.5" height="20.5"/>
				<rect x="327.9" y="532.5" class="st3" width="20.5" height="20.5"/>
				<rect x="327.9" y="512.1" class="st3" width="20.5" height="20.5"/>
				<rect x="327.9" y="491.6" class="st3" width="20.5" height="20.5"/>
				<rect x="327.9" y="430.2" class="st4" width="20.5" height="20.5"/>
				<rect x="327.9" y="409.8" class="st5" width="20.5" height="20.5"/>
				<rect x="327.9" y="389.3" class="st2" width="20.5" height="20.5"/>
				<rect x="327.9" y="368.8" class="st2" width="20.5" height="20.5"/>
				<rect x="327.9" y="348.4" class="st5" width="20.5" height="20.5"/>
				<rect x="327.9" y="327.9" class="st3" width="20.5" height="20.5"/>
				<rect x="327.9" y="307.5" class="st5" width="20.5" height="20.5"/>
				<rect x="327.9" y="287" class="st3" width="20.5" height="20.5"/>
				<rect x="327.9" y="266.5" class="st4" width="20.5" height="20.5"/>
				<rect x="327.9" y="246.1" class="st3" width="20.5" height="20.5"/>
				<rect x="327.9" y="225.6" class="st2" width="20.5" height="20.5"/>
				<rect x="327.9" y="205.1" class="st5" width="20.5" height="20.5"/>
				<rect x="327.9" y="184.7" class="st4" width="20.5" height="20.5"/>
				<rect x="307.5" y="675.8" class="st3" width="20.5" height="20.5"/>
				<rect x="307.5" y="655.3" class="st3" width="20.5" height="20.5"/>
				<rect x="307.5" y="634.9" class="st4" width="20.5" height="20.5"/>
				<rect x="307.5" y="532.5" class="st3" width="20.5" height="20.5"/>
				<rect x="307.5" y="512.1" class="st3" width="20.5" height="20.5"/>
				<rect x="307.5" y="491.6" class="st3" width="20.5" height="20.5"/>
				<rect x="307.5" y="409.8" class="st4" width="20.5" height="20.5"/>
				<rect x="307.5" y="389.3" class="st5" width="20.5" height="20.5"/>
				<rect x="307.5" y="368.8" class="st2" width="20.5" height="20.5"/>
				<rect x="307.5" y="348.4" class="st2" width="20.5" height="20.5"/>
				<rect x="307.5" y="327.9" class="st3" width="20.5" height="20.5"/>
				<rect x="307.5" y="307.5" class="st5" width="20.5" height="20.5"/>
				<rect x="307.5" y="287" class="st3" width="20.5" height="20.5"/>
				<rect x="307.5" y="266.5" class="st4" width="20.5" height="20.5"/>
				<rect x="307.5" y="246.1" class="st5" width="20.5" height="20.5"/>
				<rect x="307.5" y="225.6" class="st5" width="20.5" height="20.5"/>
				<rect x="307.5" y="205.1" class="st4" width="20.5" height="20.5"/>
				<rect x="307.5" y="184.7" class="st3" width="20.5" height="20.5"/>
				<rect x="307.5" y="164.2" class="st3" width="20.5" height="20.5"/>
				<rect x="287" y="737.2" class="st3" width="20.5" height="20.5"/>
				<rect x="287" y="716.7" class="st3" width="20.5" height="20.5"/>
				<rect x="287" y="696.3" class="st4" width="20.5" height="20.5"/>
				<rect x="287" y="675.8" class="st3" width="20.5" height="20.5"/>
				<rect x="287" y="655.3" class="st3" width="20.5" height="20.5"/>
				<rect x="287" y="634.9" class="st4" width="20.5" height="20.5"/>
				<rect x="287" y="532.5" class="st3" width="20.5" height="20.5"/>
				<rect x="287" y="512.1" class="st3" width="20.5" height="20.5"/>
				<rect x="287" y="491.6" class="st4" width="20.5" height="20.5"/>
				<rect x="287" y="409.8" class="st3" width="20.5" height="20.5"/>
				<rect x="287" y="389.3" class="st3" width="20.5" height="20.5"/>
				<rect x="287" y="368.8" class="st5" width="20.5" height="20.5"/>
				<rect x="287" y="348.4" class="st4" width="20.5" height="20.5"/>
				<rect x="287" y="327.9" class="st5" width="20.5" height="20.5"/>
				<rect x="287" y="307.5" class="st3" width="20.5" height="20.5"/>
				<rect x="287" y="287" class="st4" width="20.5" height="20.5"/>
				<rect x="287" y="266.5" class="st4" width="20.5" height="20.5"/>
				<rect x="287" y="246.1" class="st5" width="20.5" height="20.5"/>
				<rect x="287" y="225.6" class="st4" width="20.5" height="20.5"/>
				<rect x="287" y="205.1" class="st4" width="20.5" height="20.5"/>
				<rect x="287" y="184.7" class="st4" width="20.5" height="20.5"/>
				<rect x="287" y="164.2" class="st5" width="20.5" height="20.5"/>
				<rect x="287" y="143.7" class="st3" width="20.5" height="20.5"/>
				<rect x="266.5" y="757.7" class="st3" width="20.5" height="20.5"/>
				<rect x="266.5" y="737.2" class="st3" width="20.5" height="20.5"/>
				<rect x="266.5" y="716.7" class="st3" width="20.5" height="20.5"/>
				<rect x="266.5" y="696.3" class="st4" width="20.5" height="20.5"/>
				<rect x="266.5" y="675.8" class="st5" width="20.5" height="20.5"/>
				<rect x="266.5" y="655.3" class="st3" width="20.5" height="20.5"/>
				<rect x="266.5" y="512.1" class="st3" width="20.5" height="20.5"/>
				<rect x="266.5" y="491.6" class="st5" width="20.5" height="20.5"/>
				<rect x="266.5" y="471.2" class="st3" width="20.5" height="20.5"/>
				<rect x="266.5" y="389.3" class="st3" width="20.5" height="20.5"/>
				<rect x="266.5" y="368.8" class="st3" width="20.5" height="20.5"/>
				<rect x="266.5" y="348.4" class="st3" width="20.5" height="20.5"/>
				<rect x="266.5" y="327.9" class="st5" width="20.5" height="20.5"/>
				<rect x="266.5" y="307.5" class="st3" width="20.5" height="20.5"/>
				<rect x="266.5" y="287" class="st4" width="20.5" height="20.5"/>
				<rect x="266.5" y="266.5" class="st3" width="20.5" height="20.5"/>
				<rect x="266.5" y="246.1" class="st3" width="20.5" height="20.5"/>
				<rect x="266.5" y="225.6" class="st3" width="20.5" height="20.5"/>
				<rect x="266.5" y="205.1" class="st4" width="20.5" height="20.5"/>
				<rect x="266.5" y="184.7" class="st3" width="20.5" height="20.5"/>
				<rect x="266.5" y="164.2" class="st4" width="20.5" height="20.5"/>
				<rect x="266.5" y="143.7" class="st5" width="20.5" height="20.5"/>
				<rect x="266.5" y="123.3" class="st3" width="20.5" height="20.5"/>
				<rect x="266.5" y="102.8" class="st3" width="20.5" height="20.5"/>
				<rect x="246.1" y="757.7" class="st3" width="20.5" height="20.5"/>
				<rect x="246.1" y="737.2" class="st3" width="20.5" height="20.5"/>
				<rect x="246.1" y="716.7" class="st4" width="20.5" height="20.5"/>
				<rect x="246.1" y="696.3" class="st3" width="20.5" height="20.5"/>
				<rect x="246.1" y="675.8" class="st3" width="20.5" height="20.5"/>
				<rect x="246.1" y="512.1" class="st3" width="20.5" height="20.5"/>
				<rect x="246.1" y="491.6" class="st3" width="20.5" height="20.5"/>
				<rect x="246.1" y="471.2" class="st3" width="20.5" height="20.5"/>
				<rect x="246.1" y="368.8" class="st3" width="20.5" height="20.5"/>
				<rect x="246.1" y="348.4" class="st3" width="20.5" height="20.5"/>
				<rect x="246.1" y="327.9" class="st5" width="20.5" height="20.5"/>
				<rect x="246.1" y="307.5" class="st3" width="20.5" height="20.5"/>
				<rect x="246.1" y="287" class="st3" width="20.5" height="20.5"/>
				<rect x="246.1" y="266.5" class="st3" width="20.5" height="20.5"/>
				<rect x="246.1" y="246.1" class="st3" width="20.5" height="20.5"/>
				<rect x="246.1" y="225.6" class="st3" width="20.5" height="20.5"/>
				<rect x="246.1" y="205.1" class="st3" width="20.5" height="20.5"/>
				<rect x="246.1" y="184.7" class="st4" width="20.5" height="20.5"/>
				<rect x="246.1" y="164.2" class="st5" width="20.5" height="20.5"/>
				<rect x="246.1" y="143.7" class="st4" width="20.5" height="20.5"/>
				<rect x="246.1" y="123.3" class="st5" width="20.5" height="20.5"/>
				<rect x="246.1" y="102.8" class="st5" width="20.5" height="20.5"/>
				<rect x="246.1" y="82.3" class="st4" width="20.5" height="20.5"/>
				<rect x="225.6" y="757.7" class="st3" width="20.5" height="20.5"/>
				<rect x="225.6" y="737.2" class="st3" width="20.5" height="20.5"/>
				<rect x="225.6" y="716.7" class="st3" width="20.5" height="20.5"/>
				<rect x="225.6" y="491.6" class="st3" width="20.5" height="20.5"/>
				<rect x="225.6" y="471.2" class="st4" width="20.5" height="20.5"/>
				<rect x="225.6" y="450.7" class="st4" width="20.5" height="20.5"/>
				<rect x="225.6" y="348.4" class="st3" width="20.5" height="20.5"/>
				<rect x="225.6" y="327.9" class="st3" width="20.5" height="20.5"/>
				<rect x="225.6" y="307.5" class="st4" width="20.5" height="20.5"/>
				<rect x="225.6" y="266.5" class="st3" width="20.5" height="20.5"/>
				<rect x="225.6" y="246.1" class="st3" width="20.5" height="20.5"/>
				<rect x="225.6" y="225.6" class="st3" width="20.5" height="20.5"/>
				<rect x="225.6" y="205.1" class="st3" width="20.5" height="20.5"/>
				<rect x="225.6" y="184.7" class="st4" width="20.5" height="20.5"/>
				<rect x="225.6" y="164.2" class="st3" width="20.5" height="20.5"/>
				<rect x="225.6" y="143.7" class="st3" width="20.5" height="20.5"/>
				<rect x="225.6" y="123.3" class="st3" width="20.5" height="20.5"/>
				<rect x="225.6" y="102.8" class="st4" width="20.5" height="20.5"/>
				<rect x="205.1" y="757.7" class="st3" width="20.5" height="20.5"/>
				<rect x="205.1" y="737.2" class="st3" width="20.5" height="20.5"/>
				<rect x="205.1" y="716.7" class="st4" width="20.5" height="20.5"/>
				<rect x="205.1" y="491.6" class="st3" width="20.5" height="20.5"/>
				<rect x="205.1" y="471.2" class="st5" width="20.5" height="20.5"/>
				<rect x="205.1" y="450.7" class="st3" width="20.5" height="20.5"/>
				<rect x="205.1" y="348.4" class="st3" width="20.5" height="20.5"/>
				<rect x="205.1" y="327.9" class="st3" width="20.5" height="20.5"/>
				<rect x="205.1" y="205.1" class="st3" width="20.5" height="20.5"/>
				<rect x="205.1" y="184.7" class="st3" width="20.5" height="20.5"/>
				<rect x="205.1" y="164.2" class="st4" width="20.5" height="20.5"/>
				<rect x="184.7" y="737.2" class="st3" width="20.5" height="20.5"/>
				<rect x="184.7" y="716.7" class="st4" width="20.5" height="20.5"/>
				<rect x="184.7" y="573.5" class="st3" width="20.5" height="20.5"/>
				<rect x="184.7" y="553" class="st3" width="20.5" height="20.5"/>
				<rect x="184.7" y="532.5" class="st3" width="20.5" height="20.5"/>
				<rect x="184.7" y="512.1" class="st3" width="20.5" height="20.5"/>
				<rect x="184.7" y="491.6" class="st5" width="20.5" height="20.5"/>
				<rect x="184.7" y="471.2" class="st3" width="20.5" height="20.5"/>
				<rect x="184.7" y="348.4" class="st3" width="20.5" height="20.5"/>
				<rect x="184.7" y="327.9" class="st4" width="20.5" height="20.5"/>
				<rect x="164.2" y="737.2" class="st3" width="20.5" height="20.5"/>
				<rect x="164.2" y="593.9" class="st3" width="20.5" height="20.5"/>
				<rect x="164.2" y="573.5" class="st3" width="20.5" height="20.5"/>
				<rect x="164.2" y="553" class="st3" width="20.5" height="20.5"/>
				<rect x="164.2" y="532.5" class="st4" width="20.5" height="20.5"/>
				<rect x="164.2" y="512.1" class="st4" width="20.5" height="20.5"/>
				<rect x="164.2" y="491.6" class="st3" width="20.5" height="20.5"/>
				<rect x="164.2" y="368.8" class="st3" width="20.5" height="20.5"/>
				<rect x="164.2" y="348.4" class="st4" width="20.5" height="20.5"/>
				<rect x="143.7" y="737.2" class="st4" width="20.5" height="20.5"/>
				<rect x="143.7" y="593.9" class="st3" width="20.5" height="20.5"/>
				<rect x="143.7" y="573.5" class="st3" width="20.5" height="20.5"/>
				<rect x="143.7" y="553" class="st4" width="20.5" height="20.5"/>
				<rect x="143.7" y="532.5" class="st4" width="20.5" height="20.5"/>
				<rect x="143.7" y="512.1" class="st3" width="20.5" height="20.5"/>
				<rect x="143.7" y="368.8" class="st3" width="20.5" height="20.5"/>
				<rect x="123.3" y="593.9" class="st3" width="20.5" height="20.5"/>
				<rect x="123.3" y="573.5" class="st3" width="20.5" height="20.5"/>
				<rect x="123.3" y="553" class="st4" width="20.5" height="20.5"/>
				<rect x="123.3" y="532.5" class="st5" width="20.5" height="20.5"/>
				<rect x="123.3" y="512.1" class="st4" width="20.5" height="20.5"/>
				<rect x="102.8" y="573.5" class="st3" width="20.5" height="20.5"/>
				<rect x="102.8" y="553" class="st4" width="20.5" height="20.5"/>
				<rect x="102.8" y="532.5" class="st4" width="20.5" height="20.5"/>
			</g>
			<g>
			</g>
		</g>
	</g>
</g>
</svg>
