<svg width="1307" height="2215" viewBox="0 0 1307 2215" fill="none" xmlns="http://www.w3.org/2000/svg">
<path d="M1306.71 2056.87C1306.7 2083.22 1297.41 2108.73 1280.47 2128.92C1263.54 2149.11 1240.04 2162.7 1214.09 2167.3C1104.17 2186.82 903.791 2214.6 653.5 2214.6C403.209 2214.6 203.012 2186.82 92.9124 2167.3C66.9635 2162.7 43.4615 2149.11 26.5264 2128.92C9.59128 2108.73 0.303753 2083.22 0.291992 2056.87V68.0236C0.291989 59.2433 2.02239 50.5491 5.38428 42.4379C8.74618 34.3267 13.6737 26.9576 19.8851 20.7518C26.0965 14.546 33.47 9.62511 41.5842 6.2705C49.6984 2.9159 58.3942 1.19331 67.1745 1.2012H1239.98C1257.68 1.22507 1274.66 8.27581 1287.17 20.8049C1299.68 33.3339 1306.71 50.3168 1306.71 68.0236V2056.87Z" fill="#88C42A"/>
<path d="M256.349 1979.57C256.349 1979.57 91.1704 2165.77 93.6931 2166.52C67.7443 2161.92 44.2423 2148.33 27.3072 2128.14C10.372 2107.95 1.08451 2082.44 1.07275 2056.09V67.2428C1.07275 49.5256 8.10883 32.5336 20.634 20.0029C33.1591 7.47209 50.1479 0.428373 67.8651 0.42041H256.349V1979.57Z" fill="url(#paint0_linear)"/>
<path d="M1079.87 1930.25C1079.88 1947.44 1073.84 1964.08 1062.81 1977.26C1051.78 1990.44 1036.46 1999.32 1019.54 2002.33C898.662 2023.15 776.214 2033.49 653.56 2033.23C530.916 2033.49 408.478 2023.15 287.613 2002.33C270.689 1999.32 255.364 1990.44 244.327 1977.27C233.289 1964.09 227.243 1947.44 227.248 1930.25V0H1079.87V1930.25Z" fill="#8DD329"/>
<path d="M798.737 2.43251L1196.16 1.20117V927.615H823.303L798.737 2.43251Z" fill="url(#paint1_linear)"/>
<path d="M227.248 0V1944.13" stroke="url(#paint2_linear)" stroke-width="2" stroke-miterlimit="10"/>
<path d="M653.56 1095.89C332.212 1095.89 177.034 1067.18 113.245 1050.06C103.696 1047.48 95.2604 1041.83 89.241 1033.98C83.2216 1026.13 79.9526 1016.52 79.9385 1006.63V135.147C79.9544 123.124 84.7373 111.599 93.2385 103.097C101.74 94.5962 113.265 89.8133 125.288 89.7974H1181.86C1193.88 89.8133 1205.4 94.5972 1213.9 103.099C1222.4 111.601 1227.17 123.127 1227.18 135.147V1006.63C1227.17 1016.52 1223.9 1026.13 1217.89 1033.97C1211.88 1041.82 1203.45 1047.47 1193.91 1050.06C1130.12 1067.18 975.089 1095.89 653.56 1095.89Z" fill="#2B2B2B"/>
<path d="M1181.86 91.2989C1193.47 91.3307 1204.6 95.9634 1212.8 104.182C1221 112.401 1225.61 123.535 1225.62 135.146V1006.63C1225.64 1016.2 1222.49 1025.51 1216.68 1033.12C1210.86 1040.72 1202.7 1046.19 1193.46 1048.68C1129.73 1065.8 974.848 1094.48 653.5 1094.48C332.152 1094.48 177.484 1065.7 113.635 1048.59C104.388 1046.1 96.2208 1040.63 90.3996 1033.03C84.5784 1025.43 81.429 1016.12 81.44 1006.54V135.146C81.4559 123.522 86.0807 112.379 94.3002 104.159C102.52 95.9395 113.663 91.3148 125.288 91.2989H1181.86V91.2989ZM1181.86 88.2957H125.288C119.131 88.2917 113.034 89.5004 107.345 91.8527C101.655 94.2051 96.4851 97.655 92.129 102.005C87.7729 106.356 84.3164 111.522 81.9568 117.208C79.5972 122.895 78.3807 128.99 78.3767 135.146V1006.63C78.3725 1016.86 81.7436 1026.8 87.9668 1034.91C94.19 1043.02 102.917 1048.85 112.794 1051.5C174.691 1068.11 329.719 1097.39 653.38 1097.39C977.041 1097.39 1132.52 1068.11 1194.3 1051.5C1204.16 1048.84 1212.86 1043 1219.07 1034.89C1225.27 1026.78 1228.63 1016.84 1228.62 1006.63V135.146C1228.62 122.726 1223.69 110.814 1214.91 102.029C1206.13 93.2432 1194.22 88.3036 1181.8 88.2957H1181.86Z" fill="black"/>
<path d="M1009.54 202.419H289.385C281.142 202.419 274.459 209.102 274.459 217.346V849.08C274.459 857.324 281.142 864.006 289.385 864.006H1009.54C1017.78 864.006 1024.46 857.324 1024.46 849.08V217.346C1024.46 209.102 1017.78 202.419 1009.54 202.419Z" fill="black"/>
<path d="M1018.4 208.426V848.119H291.608V208.426H1018.4ZM1024.4 202.419H285.601V854.126H1024.4V202.419Z" fill="black"/>
<path d="M442.972 1430.96V1485.2C442.972 1490.29 440.95 1495.17 437.351 1498.77C433.752 1502.37 428.871 1504.39 423.781 1504.39H325.995V1602.21C325.987 1607.3 323.959 1612.18 320.355 1615.78C316.751 1619.38 311.867 1621.4 306.775 1621.4H252.566C250.043 1621.4 247.544 1620.91 245.213 1619.94C242.881 1618.98 240.762 1617.57 238.976 1615.79C237.191 1614 235.775 1611.89 234.809 1609.56C233.842 1607.23 233.345 1604.73 233.345 1602.21V1504.39H135.439C130.346 1504.39 125.462 1502.37 121.858 1498.77C118.255 1495.17 116.226 1490.29 116.218 1485.2V1430.96C116.226 1425.87 118.255 1420.99 121.858 1417.39C125.462 1413.79 130.346 1411.77 135.439 1411.77H233.345V1313.95C233.345 1311.43 233.842 1308.93 234.809 1306.6C235.775 1304.27 237.191 1302.16 238.976 1300.37C240.762 1298.59 242.881 1297.18 245.213 1296.22C247.544 1295.25 250.043 1294.76 252.566 1294.76H306.775C311.867 1294.76 316.751 1296.78 320.355 1300.38C323.959 1303.98 325.987 1308.86 325.995 1313.95V1411.77H423.751C426.274 1411.77 428.773 1412.26 431.105 1413.22C433.436 1414.18 435.555 1415.6 437.341 1417.38C439.126 1419.16 440.542 1421.28 441.508 1423.61C442.475 1425.94 442.972 1428.44 442.972 1430.96V1430.96Z" fill="#88C42A"/>
<path d="M436.274 1422.79V1477.03C436.274 1482.12 434.252 1487 430.653 1490.6C427.054 1494.2 422.173 1496.22 417.083 1496.22H319.267V1594.04C319.267 1599.13 317.245 1604.01 313.646 1607.61C310.047 1611.21 305.166 1613.23 300.077 1613.23H245.838C240.748 1613.23 235.867 1611.21 232.268 1607.61C228.669 1604.01 226.647 1599.13 226.647 1594.04V1496.22H128.831C123.741 1496.22 118.86 1494.2 115.261 1490.6C111.662 1487 109.64 1482.12 109.64 1477.03V1422.79C109.64 1417.7 111.662 1412.82 115.261 1409.22C118.86 1405.62 123.741 1403.6 128.831 1403.6H226.647V1305.82C226.643 1303.29 227.136 1300.79 228.099 1298.46C229.062 1296.13 230.475 1294.01 232.257 1292.23C234.04 1290.44 236.156 1289.02 238.487 1288.06C240.817 1287.09 243.315 1286.59 245.838 1286.59H300.077C302.599 1286.59 305.097 1287.09 307.427 1288.06C309.758 1289.02 311.875 1290.44 313.657 1292.23C315.439 1294.01 316.852 1296.13 317.815 1298.46C318.778 1300.79 319.271 1303.29 319.267 1305.82V1403.6H417.083C419.603 1403.6 422.099 1404.1 424.427 1405.06C426.756 1406.03 428.871 1407.44 430.653 1409.22C432.435 1411 433.849 1413.12 434.813 1415.45C435.778 1417.78 436.274 1420.27 436.274 1422.79Z" fill="black"/>
<path d="M891.508 1589.38C940.222 1589.38 979.713 1549.89 979.713 1501.18C979.713 1452.46 940.222 1412.97 891.508 1412.97C842.793 1412.97 803.302 1452.46 803.302 1501.18C803.302 1549.89 842.793 1589.38 891.508 1589.38Z" fill="#88C42A"/>
<path d="M1124.56 1510.7C1173.27 1510.7 1212.77 1471.21 1212.77 1422.49C1212.77 1373.78 1173.27 1334.29 1124.56 1334.29C1075.85 1334.29 1036.35 1373.78 1036.35 1422.49C1036.35 1471.21 1075.85 1510.7 1124.56 1510.7Z" fill="#80B228"/>
<path d="M882.618 1575.39C931.333 1575.39 970.824 1535.9 970.824 1487.18C970.824 1438.47 931.333 1398.98 882.618 1398.98C833.903 1398.98 794.412 1438.47 794.412 1487.18C794.412 1535.9 833.903 1575.39 882.618 1575.39Z" fill="black"/>
<path d="M1116.06 1499.44C1164.78 1499.44 1204.27 1459.94 1204.27 1411.23C1204.27 1362.51 1164.78 1323.02 1116.06 1323.02C1067.35 1323.02 1027.86 1362.51 1027.86 1411.23C1027.86 1459.94 1067.35 1499.44 1116.06 1499.44Z" fill="black"/>
<path d="M146.01 435.412C158.782 435.412 169.135 425.059 169.135 412.287C169.135 399.515 158.782 389.162 146.01 389.162C133.238 389.162 122.885 399.515 122.885 412.287C122.885 425.059 133.238 435.412 146.01 435.412Z" fill="#EF3F3F"/>
<path d="M195.954 412.257C196.05 417.182 194.188 421.945 190.775 425.498C187.363 429.051 182.679 431.105 177.754 431.207C176.032 431.212 174.32 430.948 172.678 430.426C176.492 429.159 179.809 426.724 182.16 423.465C184.511 420.206 185.777 416.29 185.777 412.272C185.777 408.254 184.511 404.337 182.16 401.079C179.809 397.82 176.492 395.384 172.678 394.117C174.32 393.595 176.032 393.332 177.754 393.336C182.674 393.439 187.353 395.488 190.764 399.035C194.176 402.582 196.042 407.336 195.954 412.257Z" fill="#F2F2F2"/>
<path d="M221.061 412.257C221.158 417.182 219.295 421.945 215.883 425.498C212.47 429.051 207.787 431.105 202.862 431.207C201.14 431.212 199.427 430.948 197.786 430.426C201.599 429.159 204.917 426.724 207.268 423.465C209.619 420.206 210.884 416.29 210.884 412.272C210.884 408.254 209.619 404.337 207.268 401.079C204.917 397.82 201.599 395.384 197.786 394.117C199.427 393.595 201.14 393.332 202.862 393.336C207.782 393.439 212.461 395.488 215.872 399.035C219.284 402.582 221.15 407.336 221.061 412.257V412.257Z" fill="#F2F2F2"/>
<path d="M244.337 412.257C244.433 417.182 242.571 421.945 239.158 425.498C235.746 429.051 231.062 431.105 226.137 431.207C224.415 431.212 222.702 430.948 221.061 430.426C224.875 429.159 228.192 426.724 230.543 423.465C232.894 420.206 234.159 416.29 234.159 412.272C234.159 408.254 232.894 404.337 230.543 401.079C228.192 397.82 224.875 395.384 221.061 394.117C222.702 393.595 224.415 393.332 226.137 393.336C231.057 393.439 235.736 395.488 239.147 399.035C242.559 402.582 244.425 407.336 244.337 412.257V412.257Z" fill="#F2F2F2"/>
<path d="M797.536 1179.86C805.501 1179.86 813.14 1183.02 818.773 1188.65C824.405 1194.29 827.569 1201.93 827.569 1209.89V1215.27C827.569 1223.23 824.405 1230.87 818.773 1236.5C813.14 1242.14 805.501 1245.3 797.536 1245.3H509.584C501.619 1245.3 493.98 1242.14 488.348 1236.5C482.716 1230.87 479.552 1223.23 479.552 1215.27V1209.89C479.552 1201.93 482.716 1194.29 488.348 1188.65C493.98 1183.02 501.619 1179.86 509.584 1179.86H797.536V1179.86ZM797.536 1173.85H509.584C500.026 1173.85 490.859 1177.65 484.101 1184.41C477.342 1191.17 473.545 1200.33 473.545 1209.89V1215.27C473.545 1224.83 477.342 1233.99 484.101 1240.75C490.859 1247.51 500.026 1251.31 509.584 1251.31H797.536C807.094 1251.31 816.261 1247.51 823.02 1240.75C829.778 1233.99 833.575 1224.83 833.575 1215.27V1209.89C833.575 1200.33 829.778 1191.17 823.02 1184.41C816.261 1177.65 807.094 1173.85 797.536 1173.85V1173.85Z" fill="#88C42A"/>
<path d="M603.736 1798.26H503.758C487.486 1798.26 474.296 1811.45 474.296 1827.72C474.296 1843.99 487.486 1857.18 503.758 1857.18H603.736C620.008 1857.18 633.198 1843.99 633.198 1827.72C633.198 1811.45 620.008 1798.26 603.736 1798.26Z" fill="#88C42A"/>
<path d="M790.178 1798.26H690.199C673.928 1798.26 660.738 1811.45 660.738 1827.72C660.738 1843.99 673.928 1857.18 690.199 1857.18H790.178C806.449 1857.18 819.64 1843.99 819.64 1827.72C819.64 1811.45 806.449 1798.26 790.178 1798.26Z" fill="#88C42A"/>
<path d="M595.717 1802.82H511.776C499.701 1802.82 489.913 1812.61 489.913 1824.69V1828.29C489.913 1840.37 499.701 1850.16 511.776 1850.16H595.717C607.792 1850.16 617.581 1840.37 617.581 1828.29V1824.69C617.581 1812.61 607.792 1802.82 595.717 1802.82Z" fill="black"/>
<path d="M780.417 1802.82H696.476C684.401 1802.82 674.613 1812.61 674.613 1824.69V1828.29C674.613 1840.37 684.401 1850.16 696.476 1850.16H780.417C792.492 1850.16 802.281 1840.37 802.281 1828.29V1824.69C802.281 1812.61 792.492 1802.82 780.417 1802.82Z" fill="black"/>
<path d="M589.351 1802.82H512.587C500.512 1802.82 490.724 1812.61 490.724 1824.69V1824.72C490.724 1836.79 500.512 1846.58 512.587 1846.58H589.351C601.425 1846.58 611.214 1836.79 611.214 1824.72V1824.69C611.214 1812.61 601.425 1802.82 589.351 1802.82Z" fill="#424242"/>
<path d="M778.556 1802.82H701.792C689.717 1802.82 679.929 1812.61 679.929 1824.69V1824.72C679.929 1836.79 689.717 1846.58 701.792 1846.58H778.556C790.631 1846.58 800.419 1836.79 800.419 1824.72V1824.69C800.419 1812.61 790.631 1802.82 778.556 1802.82Z" fill="#424242"/>
<path d="M304.011 951.221H326.416L330.89 929.598H340.471L329.599 982.094H320.019L324.764 959.27H302.359L297.614 982.094H288.034L298.906 929.598H308.486L304.011 951.221Z" fill="#F2F2F2"/>
<path d="M369.873 928.606C372.706 928.57 375.526 928.996 378.222 929.868C380.607 930.676 382.796 931.975 384.649 933.682C386.472 935.44 387.878 937.585 388.763 939.959C389.77 942.729 390.259 945.661 390.205 948.608C390.184 950.884 389.973 953.155 389.574 955.395C389.104 957.977 388.4 960.51 387.472 962.964C386.471 965.57 385.203 968.066 383.688 970.412C382.148 972.832 380.255 975.008 378.071 976.869C373.111 981.016 366.816 983.224 360.352 983.085C357.516 983.127 354.694 982.691 352.003 981.794C349.613 981.011 347.421 979.72 345.576 978.01C343.752 976.24 342.346 974.086 341.462 971.703C340.455 968.933 339.966 966.001 340.02 963.054C340.042 960.778 340.253 958.507 340.651 956.266C341.121 953.695 341.825 951.172 342.753 948.728C343.748 946.109 345.016 943.603 346.537 941.25C348.078 938.839 349.971 936.673 352.153 934.823C354.458 932.904 357.067 931.381 359.872 930.318C363.07 929.132 366.462 928.551 369.873 928.606V928.606ZM369.212 936.715C367.156 936.684 365.114 937.062 363.205 937.826C361.438 938.552 359.804 939.567 358.37 940.83C356.896 942.133 355.603 943.628 354.526 945.274C353.412 946.997 352.476 948.828 351.733 950.74C350.279 954.58 349.516 958.647 349.48 962.753C349.453 964.526 349.717 966.292 350.261 967.979C350.731 969.388 351.5 970.678 352.514 971.763C353.522 972.8 354.755 973.591 356.118 974.076C357.644 974.599 359.25 974.853 360.863 974.827C362.866 974.845 364.854 974.478 366.719 973.745C368.48 973.007 370.112 971.993 371.554 970.742C373.029 969.428 374.322 967.923 375.399 966.267C376.518 964.559 377.455 962.737 378.192 960.831C378.932 958.884 379.495 956.874 379.873 954.825C380.246 952.844 380.437 950.834 380.444 948.818C380.56 947.193 380.354 945.56 379.839 944.015C379.324 942.469 378.509 941.039 377.441 939.809C376.347 938.768 375.054 937.957 373.641 937.426C372.227 936.894 370.721 936.653 369.212 936.715V936.715Z" fill="#F2F2F2"/>
<path d="M434.292 942.301C434.406 945.093 433.558 947.839 431.89 950.08C430.079 952.328 427.706 954.058 425.012 955.095V955.245C426.084 955.549 427.098 956.026 428.016 956.657C428.908 957.235 429.691 957.967 430.328 958.819C430.968 959.643 431.447 960.581 431.74 961.582C432.067 962.611 432.229 963.686 432.22 964.766C432.266 968.143 431.141 971.433 429.037 974.076C426.524 977.039 423.191 979.191 419.456 980.262C417.37 980.908 415.229 981.36 413.059 981.614C410.36 981.958 407.641 982.118 404.921 982.094H389.904L400.776 929.597H415.402C417.279 929.589 419.155 929.699 421.018 929.928C422.496 930.142 423.953 930.483 425.373 930.949C427.932 931.761 430.191 933.32 431.86 935.424C433.419 937.378 434.276 939.801 434.292 942.301V942.301ZM404.44 959.27L401.437 974.046H406.422C409.817 974.187 413.211 973.74 416.453 972.724C418.397 972.08 420.096 970.854 421.318 969.21C422.288 967.817 422.812 966.163 422.82 964.465C422.84 963.455 422.534 962.466 421.949 961.642C421.236 960.737 420.243 960.093 419.126 959.81C418.434 959.581 417.719 959.43 416.994 959.36C416.153 959.36 415.132 959.36 413.99 959.36L404.44 959.27ZM413.029 951.221C414.345 951.232 415.659 951.152 416.964 950.981C417.89 950.882 418.799 950.659 419.667 950.32C421.156 949.762 422.451 948.78 423.391 947.497C424.277 946.187 424.728 944.632 424.682 943.052C424.697 942.075 424.425 941.114 423.901 940.289C423.245 939.366 422.307 938.681 421.228 938.337C420.471 938.067 419.685 937.885 418.886 937.796C417.792 937.641 416.687 937.57 415.582 937.586H408.915L406.092 951.221H413.029Z" fill="#F2F2F2"/>
<path d="M479.191 942.301C479.29 945.091 478.444 947.832 476.788 950.08C474.959 952.322 472.579 954.05 469.881 955.095V955.245C470.949 955.557 471.962 956.034 472.884 956.657C473.772 957.241 474.554 957.972 475.197 958.819C475.823 959.652 476.301 960.586 476.608 961.582C476.921 962.615 477.082 963.687 477.089 964.766C477.123 968.147 475.988 971.436 473.875 974.076C471.369 977.032 468.047 979.184 464.325 980.262C462.228 980.908 460.077 981.36 457.898 981.614C455.199 981.958 452.48 982.119 449.759 982.094H434.743L445.614 929.597H460.27C462.138 929.588 464.003 929.698 465.856 929.928C467.345 930.142 468.811 930.484 470.241 930.949C472.796 931.753 475.048 933.313 476.698 935.424C478.277 937.372 479.155 939.794 479.191 942.301V942.301ZM449.158 959.27L446.155 974.046H451.14C454.545 974.187 457.949 973.74 461.201 972.724C463.145 972.08 464.844 970.854 466.067 969.21C467.027 967.815 467.541 966.16 467.538 964.465C467.569 963.458 467.274 962.468 466.697 961.642C465.972 960.75 464.985 960.109 463.874 959.81C463.172 959.582 462.447 959.431 461.712 959.36C460.901 959.36 459.85 959.36 458.709 959.36L449.158 959.27ZM457.778 951.221C459.083 951.232 460.388 951.152 461.682 950.981C462.608 950.881 463.517 950.659 464.385 950.32C465.883 949.762 467.187 948.781 468.139 947.497C469.012 946.181 469.463 944.631 469.43 943.052C469.431 942.076 469.161 941.12 468.649 940.289C467.986 939.373 467.051 938.69 465.977 938.337C465.21 938.064 464.413 937.882 463.604 937.796C462.52 937.641 461.425 937.571 460.33 937.586H453.783L450.96 951.221H457.778Z" fill="#F2F2F2"/>
<path d="M490.213 982.094L494.598 960.862L482.044 929.598H491.895L500.514 951.642L515.35 929.598H526.282L504.118 961.072L499.763 982.094H490.213Z" fill="#F2F2F2"/>
<path d="M560.669 936.715C558.517 936.698 556.376 937.032 554.332 937.706C552.443 938.332 550.66 939.244 549.047 940.409C547.506 941.569 546.141 942.945 544.992 944.494C543.789 946.079 542.78 947.803 541.989 949.629C541.196 951.494 540.602 953.436 540.217 955.425C539.832 957.455 539.641 959.516 539.646 961.582C539.577 963.814 539.944 966.038 540.728 968.129C541.371 969.721 542.403 971.125 543.731 972.214C545.02 973.253 546.53 973.983 548.146 974.346C549.917 974.765 551.732 974.966 553.552 974.947C555.718 974.975 557.881 974.784 560.009 974.376C562.262 973.965 564.481 973.383 566.646 972.634L564.934 981.103C562.728 981.873 560.44 982.387 558.117 982.635C555.925 982.919 553.719 983.069 551.509 983.085C548.572 983.123 545.646 982.718 542.83 981.884C540.324 981.149 538.008 979.879 536.043 978.16C534.091 976.397 532.588 974.194 531.658 971.733C530.548 968.747 530.018 965.577 530.096 962.393C530.099 959.762 530.35 957.138 530.847 954.555C531.353 951.897 532.138 949.299 533.189 946.806C534.259 944.299 535.609 941.921 537.214 939.718C538.821 937.516 540.756 935.571 542.95 933.952C545.297 932.228 547.916 930.908 550.698 930.048C553.765 929.065 556.969 928.578 560.189 928.606C562.32 928.633 564.447 928.804 566.556 929.117C568.831 929.419 571.073 929.932 573.253 930.649L571.631 938.487C569.815 937.952 567.97 937.521 566.105 937.196C564.31 936.879 562.492 936.718 560.669 936.715V936.715Z" fill="#F2F2F2"/>
<path d="M585.927 951.221H608.331L612.806 929.598H622.386L611.514 982.094H601.934L606.709 959.27H584.275L579.53 982.094H570.009L580.881 929.598H590.461L585.927 951.221Z" fill="#F2F2F2"/>
<path d="M619.443 982.094L630.315 929.598H639.985L629.113 982.094H619.443Z" fill="#F2F2F2"/>
<path d="M648.274 974.046H673.021L671.369 982.094H636.982L647.854 929.598H657.404L648.274 974.046Z" fill="#F2F2F2"/>
<path d="M702.814 929.598C705.175 929.569 707.535 929.729 709.871 930.078C711.743 930.36 713.577 930.854 715.337 931.55C717.157 932.279 718.85 933.293 720.353 934.553C721.742 935.699 722.93 937.069 723.866 938.607C724.789 940.159 725.477 941.839 725.909 943.593C726.348 945.494 726.569 947.438 726.569 949.389C726.549 950.886 726.439 952.38 726.239 953.864C725.974 955.681 725.582 957.477 725.068 959.24C724.493 961.212 723.749 963.131 722.845 964.976C721.885 966.981 720.706 968.874 719.332 970.622C717.836 972.491 716.122 974.175 714.226 975.637C712.114 977.267 709.778 978.582 707.289 979.542C705.041 980.396 702.718 981.04 700.351 981.464C697.373 981.951 694.359 982.182 691.341 982.154H676.325L687.197 929.658L702.814 929.598ZM687.527 974.046H693.534C695.712 974.074 697.888 973.863 700.021 973.415C701.769 973.005 703.462 972.39 705.066 971.583C706.998 970.597 708.754 969.298 710.262 967.739C713.207 964.593 715.278 960.731 716.268 956.537C716.775 954.4 717.057 952.215 717.109 950.02C717.227 947.59 716.753 945.168 715.728 942.962C714.715 941.099 713.077 939.652 711.103 938.878C709.953 938.419 708.753 938.096 707.529 937.917C705.874 937.72 704.209 937.629 702.543 937.646H695.245L687.527 974.046Z" fill="#F2F2F2"/>
<path d="M881.387 931.82L890.036 969.301L911.059 964.435C912.443 964.018 913.933 964.136 915.234 964.766C915.758 965.05 916.214 965.444 916.571 965.921C916.929 966.398 917.18 966.946 917.306 967.529C917.466 968.105 917.492 968.71 917.383 969.298C917.273 969.886 917.032 970.442 916.675 970.922C915.751 972.026 914.462 972.762 913.041 972.995L887.844 978.821C887.018 979.141 886.127 979.26 885.245 979.168C884.364 979.076 883.517 978.775 882.775 978.291C882.032 977.807 881.416 977.153 880.976 976.383C880.536 975.614 880.286 974.751 880.246 973.866L871.236 934.193C870.709 932.519 870.826 930.708 871.566 929.117C871.911 928.487 872.392 927.942 872.974 927.521C873.556 927.101 874.224 926.815 874.93 926.684C875.633 926.49 876.369 926.449 877.089 926.563C877.809 926.676 878.496 926.943 879.105 927.345C880.398 928.499 881.212 930.096 881.387 931.82V931.82Z" fill="#8DD329"/>
<path d="M825.136 961.672C825.095 963.745 824.636 965.788 823.785 967.679C822.738 970.019 821.284 972.155 819.49 973.986C817.388 976.149 814.863 977.856 812.072 979.001C808.714 980.349 805.118 981.003 801.501 980.923C798.713 980.96 795.931 980.667 793.212 980.052C788.348 979.022 783.976 976.376 780.808 972.544C779.256 970.716 777.944 968.698 776.904 966.538C775.803 964.253 774.986 961.843 774.471 959.36C773.944 956.689 773.683 953.973 773.69 951.251C773.617 947.01 774.299 942.79 775.703 938.788C776.958 935.275 778.932 932.063 781.499 929.357C783.992 926.749 787.012 924.701 790.358 923.351C793.808 921.983 797.489 921.29 801.2 921.309C805.518 921.231 809.792 922.188 813.664 924.102C816.985 925.688 819.871 928.059 822.073 931.009C823.853 933.23 824.902 935.947 825.076 938.788C825.079 940.112 824.562 941.385 823.634 942.331C823.204 942.819 822.671 943.207 822.075 943.466C821.478 943.726 820.831 943.851 820.181 943.833C818.968 943.915 817.768 943.54 816.817 942.782C815.817 941.684 814.978 940.451 814.324 939.118C813.083 936.569 811.238 934.363 808.949 932.691C806.695 931.216 804.042 930.471 801.35 930.559C799.136 930.488 796.937 930.947 794.937 931.897C792.936 932.848 791.191 934.263 789.848 936.025C786.748 940.597 785.248 946.067 785.583 951.581C785.463 955.404 786.106 959.212 787.475 962.784C788.527 965.504 790.394 967.833 792.821 969.451C795.252 970.961 798.069 971.733 800.93 971.673C803.965 971.767 806.952 970.894 809.459 969.181C811.925 967.326 813.761 964.757 814.715 961.822C815.12 960.484 815.749 959.225 816.577 958.098C817.01 957.593 817.557 957.199 818.174 956.948C818.79 956.697 819.458 956.597 820.121 956.657C820.784 956.652 821.442 956.78 822.056 957.032C822.67 957.285 823.227 957.658 823.695 958.129C824.163 958.59 824.533 959.142 824.781 959.752C825.029 960.361 825.15 961.015 825.136 961.672V961.672Z" fill="#D113A0"/>
<path d="M980.675 954.494H976.5V973.505C976.658 975.479 976.069 977.441 974.848 979.001C974.298 979.591 973.627 980.055 972.88 980.361C972.134 980.667 971.33 980.807 970.524 980.773C969.692 980.824 968.86 980.686 968.09 980.369C967.32 980.051 966.632 979.563 966.079 978.941C964.944 977.365 964.392 975.443 964.517 973.505V928.036C964.33 927.031 964.39 925.997 964.692 925.021C964.994 924.045 965.528 923.156 966.249 922.433C966.97 921.709 967.856 921.171 968.831 920.865C969.805 920.559 970.84 920.495 971.845 920.678H991.366C993.664 920.657 995.961 920.778 998.244 921.038C1000.02 921.239 1001.77 921.705 1003.41 922.42C1005.27 923.202 1006.94 924.349 1008.35 925.794C1009.75 927.239 1010.85 928.951 1011.58 930.829C1012.29 932.751 1012.66 934.785 1012.66 936.835C1012.86 940.712 1011.52 944.51 1008.94 947.407C1005.83 950.379 1001.89 952.329 997.643 952.993C999.922 954.302 1001.95 955.999 1003.65 958.008C1005.57 960.201 1007.29 962.552 1008.82 965.036C1010.15 967.194 1011.33 969.442 1012.36 971.763C1013 973.068 1013.43 974.467 1013.62 975.908C1013.6 976.731 1013.35 977.533 1012.9 978.22C1012.38 978.986 1011.68 979.607 1010.86 980.022C1009.92 980.482 1008.89 980.709 1007.85 980.683C1006.66 980.727 1005.49 980.402 1004.49 979.752C1003.56 979.108 1002.75 978.292 1002.12 977.349C1001.46 976.388 1000.56 974.947 999.445 973.084L994.64 965.096C993.314 962.729 991.776 960.487 990.045 958.399C988.914 957.09 987.496 956.062 985.9 955.395C984.232 954.764 982.458 954.458 980.675 954.494ZM987.522 929.688H976.5V945.935H987.222C989.656 945.972 992.085 945.72 994.46 945.184C996.188 944.817 997.761 943.926 998.964 942.632C999.985 941.245 1000.48 939.544 1000.38 937.826C1000.42 936.292 999.991 934.782 999.145 933.502C998.295 932.23 997.081 931.246 995.661 930.679C993.019 929.912 990.271 929.578 987.522 929.688V929.688Z" fill="#1AA8FF"/>
<path d="M937.698 927.585C942.613 927.451 947.477 928.6 951.813 930.919C955.73 933.068 958.88 936.385 960.823 940.409C962.921 944.929 963.949 949.873 963.826 954.855C963.866 958.635 963.298 962.397 962.144 965.997C961.119 969.205 959.431 972.162 957.189 974.676C954.94 977.159 952.143 979.082 949.02 980.292C945.495 981.645 941.743 982.307 937.968 982.245C934.168 982.312 930.391 981.628 926.856 980.232C923.738 979.012 920.943 977.091 918.687 974.616C916.434 972.076 914.745 969.087 913.732 965.847C912.577 962.268 912.009 958.525 912.05 954.765C912.004 950.97 912.593 947.194 913.792 943.593C914.851 940.382 916.581 937.433 918.867 934.943C921.112 932.534 923.874 930.665 926.946 929.477C930.377 928.17 934.026 927.528 937.698 927.585ZM952.894 954.765C952.984 951.318 952.349 947.89 951.032 944.704C949.942 942.07 948.078 939.829 945.686 938.277C943.282 936.811 940.513 936.052 937.698 936.085C935.63 936.06 933.582 936.48 931.691 937.316C929.877 938.106 928.273 939.309 927.006 940.83C925.611 942.609 924.589 944.652 924.003 946.836C923.216 949.446 922.831 952.16 922.862 954.885C922.832 957.649 923.217 960.403 924.003 963.054C924.659 965.252 925.752 967.295 927.216 969.06C928.513 970.589 930.134 971.81 931.961 972.634C933.852 973.468 935.902 973.878 937.968 973.835C940.634 973.862 943.255 973.145 945.536 971.763C947.956 970.25 949.861 968.042 951.002 965.426C952.436 962.063 953.083 958.416 952.894 954.765V954.765Z" fill="#EDED0F"/>
<path d="M848.051 927.585C852.966 927.451 857.831 928.6 862.167 930.919C866.084 933.068 869.234 936.385 871.176 940.409C873.275 944.929 874.303 949.873 874.18 954.855C874.22 958.635 873.652 962.397 872.498 965.997C871.473 969.205 869.784 972.162 867.542 974.676C865.294 977.159 862.497 979.082 859.373 980.292C855.848 981.645 852.096 982.307 848.321 982.245C844.521 982.312 840.745 981.628 837.209 980.232C834.087 979.005 831.283 977.085 829.011 974.616C826.783 972.058 825.097 969.075 824.055 965.847C822.925 962.263 822.367 958.523 822.403 954.765C822.357 950.97 822.946 947.194 824.145 943.593C825.18 940.342 826.9 937.351 829.191 934.823C831.43 932.421 834.181 930.552 837.239 929.357C840.699 928.089 844.368 927.488 848.051 927.585V927.585ZM863.248 954.765C863.322 951.319 862.689 947.895 861.386 944.704C860.295 942.07 858.431 939.829 856.04 938.277C853.635 936.811 850.867 936.052 848.051 936.085C845.984 936.06 843.936 936.48 842.045 937.316C840.231 938.106 838.626 939.309 837.36 940.83C835.953 942.602 834.93 944.647 834.356 946.836C833.57 949.446 833.185 952.16 833.215 954.885C833.186 957.649 833.57 960.403 834.356 963.054C835.012 965.252 836.105 967.295 837.57 969.06C838.86 970.596 840.483 971.818 842.315 972.634C844.205 973.468 846.256 973.878 848.321 973.835C850.988 973.862 853.609 973.145 855.89 971.763C858.309 970.25 860.214 968.042 861.356 965.426C862.789 962.063 863.436 958.416 863.248 954.765V954.765Z" fill="#784CCC"/>
<path d="M509.974 1215.75V1208.36H529.075V1225.84C526.726 1227.94 523.979 1229.56 520.996 1230.58C517.593 1231.93 513.966 1232.63 510.305 1232.63C506.107 1232.69 501.965 1231.66 498.292 1229.62C494.922 1227.74 492.223 1224.85 490.573 1221.36C488.848 1217.7 487.975 1213.7 488.021 1209.65C487.946 1205.42 488.926 1201.24 490.874 1197.49C492.777 1193.95 495.724 1191.09 499.313 1189.29C502.595 1187.74 506.198 1187 509.824 1187.13C514.336 1186.87 518.812 1188.07 522.588 1190.55C525.705 1192.84 527.848 1196.22 528.595 1200.01L519.795 1201.66C519.234 1199.62 518.008 1197.82 516.311 1196.56C514.432 1195.27 512.191 1194.62 509.914 1194.69C508.2 1194.61 506.488 1194.89 504.892 1195.52C503.297 1196.16 501.855 1197.12 500.664 1198.36C498.172 1201.45 496.948 1205.36 497.241 1209.32C496.916 1213.52 498.157 1217.69 500.724 1221.03C501.848 1222.31 503.237 1223.31 504.794 1223.99C506.351 1224.66 508.038 1224.99 509.734 1224.94C511.647 1224.93 513.542 1224.56 515.32 1223.86C517.039 1223.19 518.656 1222.29 520.125 1221.18V1215.63L509.974 1215.75Z" fill="#88C42A"/>
<path d="M542.169 1231.91H533.76V1200.07H541.568V1204.61C542.48 1202.96 543.717 1201.52 545.202 1200.37C546.292 1199.69 547.552 1199.34 548.836 1199.35C550.789 1199.36 552.701 1199.91 554.362 1200.94L551.779 1208.3C550.618 1207.47 549.242 1206.99 547.815 1206.92C546.734 1206.89 545.676 1207.23 544.812 1207.88C543.826 1208.83 543.155 1210.05 542.89 1211.39C542.261 1214.91 542.019 1218.48 542.169 1222.05V1231.91Z" fill="#88C42A"/>
<path d="M552.891 1215.54C552.902 1212.7 553.614 1209.92 554.963 1207.43C556.271 1204.89 558.311 1202.79 560.82 1201.42C563.42 1200.02 566.335 1199.31 569.289 1199.35C571.476 1199.27 573.655 1199.65 575.687 1200.46C577.72 1201.27 579.56 1202.5 581.092 1204.06C582.625 1205.62 583.826 1207.47 584.621 1209.51C585.416 1211.54 585.789 1213.71 585.717 1215.9C585.792 1218.11 585.418 1220.32 584.618 1222.38C583.818 1224.45 582.608 1226.33 581.062 1227.91C579.542 1229.48 577.713 1230.7 575.691 1231.52C573.669 1232.34 571.499 1232.73 569.319 1232.66C566.432 1232.66 563.585 1231.99 561 1230.7C558.446 1229.44 556.347 1227.42 554.993 1224.91C553.515 1222.01 552.792 1218.79 552.891 1215.54V1215.54ZM561.51 1215.99C561.335 1218.6 562.138 1221.18 563.763 1223.23C564.444 1224.03 565.296 1224.68 566.257 1225.11C567.218 1225.55 568.264 1225.77 569.319 1225.75C570.365 1225.77 571.402 1225.55 572.353 1225.11C573.305 1224.67 574.146 1224.03 574.815 1223.23C576.446 1221.16 577.249 1218.56 577.067 1215.93C577.245 1213.34 576.441 1210.77 574.815 1208.75C574.146 1207.95 573.305 1207.3 572.353 1206.86C571.402 1206.43 570.365 1206.21 569.319 1206.23C568.264 1206.21 567.218 1206.43 566.257 1206.86C565.296 1207.3 564.444 1207.94 563.763 1208.75C562.165 1210.81 561.394 1213.39 561.601 1215.99H561.51Z" fill="#88C42A"/>
<path d="M610.253 1231.91V1227.13C609.091 1228.83 607.522 1230.21 605.688 1231.15C603.831 1232.11 601.77 1232.6 599.681 1232.6C597.682 1232.64 595.707 1232.16 593.945 1231.21C592.31 1230.34 591.011 1228.94 590.251 1227.25C589.402 1225.01 589.014 1222.62 589.11 1220.22V1200.07H597.549V1214.7C597.429 1217.45 597.58 1220.2 598 1222.93C598.283 1223.89 598.873 1224.73 599.681 1225.33C600.575 1225.91 601.62 1226.21 602.685 1226.2C604.066 1226.22 605.419 1225.81 606.559 1225.03C607.645 1224.31 608.467 1223.25 608.901 1222.02C609.442 1219.2 609.644 1216.31 609.502 1213.44V1200.01H617.941V1231.85L610.253 1231.91Z" fill="#88C42A"/>
<path d="M623.498 1200.07H631.336V1204.76C632.385 1203.14 633.806 1201.8 635.481 1200.85C637.237 1199.85 639.226 1199.33 641.247 1199.35C643.039 1199.33 644.814 1199.71 646.44 1200.46C648.067 1201.22 649.504 1202.32 650.647 1203.7C653.379 1207.09 654.76 1211.37 654.521 1215.72C654.801 1220.18 653.41 1224.59 650.617 1228.09C649.477 1229.49 648.037 1230.61 646.405 1231.37C644.773 1232.14 642.989 1232.52 641.187 1232.51C639.538 1232.53 637.906 1232.18 636.412 1231.48C634.709 1230.56 633.184 1229.34 631.907 1227.88V1243.89H623.498V1200.07ZM631.817 1215.45C631.599 1218.26 632.352 1221.05 633.949 1223.38C634.555 1224.17 635.337 1224.81 636.233 1225.26C637.129 1225.7 638.115 1225.93 639.115 1225.93C640.057 1225.95 640.991 1225.75 641.842 1225.34C642.692 1224.94 643.435 1224.33 644.01 1223.59C645.519 1221.31 646.207 1218.59 645.962 1215.87C646.162 1213.24 645.451 1210.62 643.95 1208.45C643.362 1207.69 642.607 1207.07 641.742 1206.65C640.877 1206.23 639.927 1206.01 638.964 1206.02C637.989 1206 637.023 1206.2 636.138 1206.61C635.253 1207.03 634.474 1207.63 633.859 1208.39C632.361 1210.42 631.637 1212.93 631.817 1215.45V1215.45Z" fill="#88C42A"/>
<path d="M686.686 1200.07V1206.8H680.95V1219.62C680.908 1221.13 680.958 1222.65 681.1 1224.16C681.217 1224.59 681.483 1224.96 681.851 1225.21C682.277 1225.49 682.78 1225.64 683.292 1225.63C684.45 1225.54 685.585 1225.27 686.656 1224.82L687.377 1231.36C685.267 1232.21 683.012 1232.63 680.74 1232.6C679.332 1232.62 677.933 1232.37 676.625 1231.84C675.565 1231.45 674.639 1230.76 673.952 1229.86C673.315 1228.88 672.914 1227.76 672.781 1226.59C672.543 1224.6 672.453 1222.59 672.511 1220.58V1206.74H668.636V1200.01H672.511V1193.7L680.95 1188.78V1200.01L686.686 1200.07Z" fill="#88C42A"/>
<path d="M707.889 1221.75L716.268 1223.17C715.384 1226.01 713.59 1228.47 711.162 1230.19C708.566 1231.88 705.514 1232.71 702.423 1232.6C700.093 1232.77 697.755 1232.37 695.618 1231.43C693.48 1230.49 691.608 1229.03 690.17 1227.19C688.012 1223.96 686.959 1220.11 687.166 1216.23C686.903 1211.73 688.376 1207.3 691.281 1203.85C692.594 1202.39 694.209 1201.23 696.013 1200.46C697.817 1199.68 699.768 1199.3 701.732 1199.35C703.837 1199.25 705.938 1199.62 707.882 1200.44C709.825 1201.25 711.562 1202.49 712.964 1204.06C715.998 1208.2 717.389 1213.32 716.869 1218.42H695.846C695.778 1220.55 696.506 1222.63 697.888 1224.25C698.5 1224.92 699.248 1225.45 700.082 1225.81C700.915 1226.16 701.816 1226.34 702.723 1226.32C703.927 1226.36 705.106 1225.98 706.057 1225.24C707.01 1224.29 707.65 1223.08 707.889 1221.75V1221.75ZM708.369 1213.25C708.457 1211.23 707.782 1209.25 706.477 1207.7C705.914 1207.06 705.22 1206.55 704.444 1206.2C703.667 1205.85 702.825 1205.67 701.972 1205.67C701.12 1205.67 700.278 1205.85 699.501 1206.2C698.724 1206.55 698.031 1207.06 697.468 1207.7C696.197 1209.21 695.562 1211.16 695.696 1213.13L708.369 1213.25Z" fill="#88C42A"/>
<path d="M749.454 1231.91H741.015V1215.66C741.132 1213.42 740.95 1211.18 740.474 1208.99C740.172 1208.04 739.559 1207.21 738.732 1206.65C737.85 1206.05 736.795 1205.75 735.729 1205.81C734.324 1205.78 732.948 1206.2 731.795 1207.01C730.671 1207.76 729.835 1208.87 729.422 1210.16C728.892 1212.57 728.68 1215.03 728.792 1217.49V1231.91H720.353V1200.07H728.191V1204.76C729.902 1202.37 732.374 1200.63 735.201 1199.84C738.028 1199.04 741.042 1199.23 743.748 1200.37C745.108 1200.91 746.308 1201.79 747.232 1202.92C748.035 1203.97 748.599 1205.18 748.883 1206.47C749.259 1208.33 749.42 1210.22 749.364 1212.11L749.454 1231.91Z" fill="#88C42A"/>
<path d="M784.141 1231.91H776.333V1227.22C775.162 1228.93 773.582 1230.33 771.738 1231.27C770.088 1232.14 768.254 1232.59 766.392 1232.6C764.595 1232.61 762.817 1232.22 761.19 1231.46C759.563 1230.69 758.129 1229.57 756.992 1228.18C754.213 1224.7 752.823 1220.31 753.088 1215.87C752.764 1211.44 754.126 1207.05 756.902 1203.58C758.094 1202.22 759.573 1201.13 761.234 1200.39C762.895 1199.66 764.698 1199.31 766.512 1199.35C768.282 1199.37 770.025 1199.77 771.619 1200.54C773.213 1201.31 774.618 1202.42 775.732 1203.79V1187.97H784.141V1231.91ZM761.677 1215.3C761.498 1217.83 761.984 1220.37 763.088 1222.66C763.642 1223.68 764.468 1224.53 765.475 1225.11C766.483 1225.69 767.631 1225.99 768.795 1225.96C769.753 1225.97 770.699 1225.75 771.556 1225.33C772.413 1224.9 773.155 1224.27 773.72 1223.5C775.228 1221.34 775.949 1218.73 775.762 1216.11C776.002 1213.33 775.304 1210.55 773.78 1208.21C773.172 1207.46 772.405 1206.86 771.535 1206.45C770.664 1206.03 769.713 1205.82 768.75 1205.82C767.786 1205.82 766.835 1206.03 765.965 1206.45C765.095 1206.86 764.328 1207.46 763.719 1208.21C762.203 1210.25 761.458 1212.76 761.617 1215.3H761.677Z" fill="#88C42A"/>
<path d="M787.385 1215.54C787.384 1212.71 788.086 1209.92 789.428 1207.43C790.735 1204.89 792.775 1202.79 795.284 1201.42C797.884 1200.02 800.8 1199.31 803.753 1199.35C805.945 1199.27 808.129 1199.65 810.166 1200.46C812.203 1201.27 814.049 1202.5 815.586 1204.06C818.562 1207.31 820.212 1211.55 820.212 1215.96C820.212 1220.36 818.562 1224.6 815.586 1227.85C814.072 1229.41 812.248 1230.64 810.231 1231.46C808.214 1232.28 806.048 1232.66 803.873 1232.6C800.977 1232.6 798.12 1231.93 795.524 1230.64C792.97 1229.38 790.871 1227.36 789.518 1224.85C788.039 1221.97 787.305 1218.77 787.385 1215.54ZM796.005 1215.99C795.829 1218.6 796.632 1221.18 798.257 1223.23C798.945 1224.02 799.794 1224.65 800.747 1225.08C801.701 1225.52 802.736 1225.74 803.783 1225.74C804.83 1225.74 805.866 1225.52 806.819 1225.08C807.772 1224.65 808.621 1224.02 809.309 1223.23C810.93 1221.15 811.722 1218.55 811.532 1215.93C811.718 1213.34 810.925 1210.78 809.309 1208.75C808.621 1207.96 807.772 1207.33 806.819 1206.89C805.866 1206.46 804.83 1206.23 803.783 1206.23C802.736 1206.23 801.701 1206.46 800.747 1206.89C799.794 1207.33 798.945 1207.96 798.257 1208.75C796.681 1210.82 795.931 1213.4 796.155 1215.99H796.005Z" fill="#88C42A"/>
<path d="M134.477 476.947V457.606H140.754C142.302 457.535 143.853 457.636 145.379 457.906C146.505 458.186 147.495 458.857 148.172 459.798C148.951 460.89 149.343 462.212 149.283 463.552C149.318 464.59 149.101 465.62 148.653 466.556C148.259 467.308 147.693 467.956 147.001 468.448C146.403 468.897 145.718 469.214 144.989 469.379C143.648 469.589 142.291 469.679 140.934 469.649H138.442V476.947H134.477ZM138.382 460.88V466.315H140.514C141.524 466.354 142.535 466.253 143.517 466.015C144.01 465.817 144.437 465.484 144.748 465.054C145.03 464.604 145.176 464.083 145.169 463.552C145.187 462.918 144.973 462.299 144.568 461.811C144.14 461.363 143.584 461.059 142.977 460.94C142.046 460.885 141.114 460.885 140.183 460.94L138.382 460.88Z" fill="#F2F2F2"/>
<path d="M151.716 467.397C151.671 465.703 151.967 464.018 152.587 462.441C153.032 461.463 153.642 460.569 154.389 459.798C155.09 459.037 155.952 458.442 156.912 458.056C158.227 457.519 159.636 457.253 161.057 457.276C162.318 457.222 163.577 457.429 164.756 457.884C165.934 458.338 167.005 459.031 167.904 459.918C169.565 462.011 170.47 464.604 170.47 467.276C170.47 469.948 169.565 472.542 167.904 474.634C166.032 476.329 163.597 477.267 161.072 477.267C158.546 477.267 156.111 476.329 154.239 474.634C153.362 473.654 152.687 472.51 152.254 471.268C151.822 470.025 151.639 468.71 151.716 467.397V467.397ZM155.741 467.397C155.62 469.186 156.153 470.957 157.242 472.382C157.728 472.926 158.326 473.357 158.995 473.648C159.664 473.938 160.388 474.08 161.117 474.064C161.837 474.084 162.553 473.943 163.213 473.652C163.873 473.361 164.459 472.927 164.931 472.382C165.893 470.892 166.404 469.155 166.404 467.382C166.404 465.608 165.893 463.871 164.931 462.381C164.447 461.837 163.849 461.406 163.179 461.12C162.509 460.835 161.784 460.701 161.057 460.729C160.325 460.705 159.597 460.84 158.923 461.125C158.248 461.411 157.644 461.839 157.152 462.381C156.114 463.793 155.613 465.529 155.741 467.276V467.397Z" fill="#F2F2F2"/>
<path d="M176.283 476.947L171.658 457.606H175.652L178.656 470.91L182.199 457.606H186.854L190.218 471.121L193.221 457.606H197.156L192.501 476.947H188.356L184.512 462.501L180.488 476.947H176.283Z" fill="#F2F2F2"/>
<path d="M199.047 476.947V457.606H213.523V460.879H203.102V465.174H212.802V468.418H203.102V473.703H213.913V476.947H199.047Z" fill="#F2F2F2"/>
<path d="M217.067 476.947V457.606H225.296C226.815 457.54 228.335 457.713 229.8 458.117C230.731 458.481 231.52 459.134 232.053 459.979C232.613 460.879 232.904 461.921 232.894 462.982C232.944 464.29 232.493 465.569 231.632 466.556C230.613 467.604 229.246 468.245 227.788 468.358C228.57 468.784 229.279 469.332 229.891 469.979C230.708 470.921 231.451 471.925 232.113 472.983L234.486 476.737H229.8L226.977 472.532C226.36 471.53 225.668 470.576 224.905 469.679C224.594 469.316 224.188 469.046 223.734 468.898C223.101 468.711 222.441 468.63 221.782 468.658H220.971V476.737L217.067 476.947ZM220.971 465.805H223.974C225.151 465.858 226.33 465.777 227.488 465.565C227.925 465.4 228.302 465.107 228.569 464.724C228.855 464.275 229.007 463.754 229.007 463.222C229.007 462.69 228.855 462.169 228.569 461.72C228.175 461.314 227.658 461.05 227.098 460.97C226.767 460.97 225.836 460.97 224.094 460.97H221.091L220.971 465.805Z" fill="#F2F2F2"/>
<path d="M19.2729 52.8574C20.264 136.408 20.7145 219.989 21.4653 303.539L22.6966 554.191C23.2372 637.741 23.1471 721.292 23.3574 804.842L23.7478 1055.49L23.3574 1306.18C23.1471 1389.73 23.3574 1473.28 22.7267 1556.83L21.4653 1807.48C20.7145 1891.03 20.294 1974.58 19.2729 2058.16C18.2518 1974.58 17.8013 1891.03 17.0505 1807.48L15.7892 1556.83C15.3086 1473.28 15.3086 1389.73 15.3086 1306.18L14.9182 1055.49L15.3086 804.842C15.5189 721.292 15.3086 637.741 15.9694 554.191L17.2007 303.539C17.8013 220.049 18.3119 136.408 19.2729 52.8574Z" fill="url(#paint3_linear)"/>
<path d="M1288.69 52.8574C1289.71 136.408 1290.16 219.989 1290.88 303.539L1292.14 554.191C1292.68 637.741 1292.59 721.292 1292.77 804.842L1293.19 1055.49L1292.8 1306.18C1292.59 1389.73 1292.8 1473.28 1292.17 1556.83L1290.91 1807.48C1290.16 1891.03 1289.71 1974.58 1288.69 2058.16C1287.67 1974.58 1287.25 1891.03 1286.5 1807.48L1285.23 1556.83C1284.69 1473.28 1284.81 1389.73 1284.6 1306.18L1284.18 1055.49L1284.6 804.842C1284.81 721.292 1284.6 637.741 1285.23 554.191L1286.5 303.539C1287.25 220.049 1287.67 136.408 1288.69 52.8574Z" fill="url(#paint4_linear)"/>
<path d="M429.758 1421.11V1473.46C429.758 1478.37 427.805 1483.08 424.33 1486.56C420.855 1490.03 416.142 1491.99 411.227 1491.99H316.865V1586.53C316.865 1591.44 314.913 1596.16 311.438 1599.63C307.963 1603.11 303.25 1605.06 298.335 1605.06H245.988C241.074 1605.06 236.361 1603.11 232.886 1599.63C229.411 1596.16 227.458 1591.44 227.458 1586.53V1491.99H133.036C130.596 1491.99 128.179 1491.52 125.922 1490.59C123.665 1489.67 121.613 1488.3 119.884 1486.58C118.154 1484.86 116.781 1482.82 115.843 1480.56C114.905 1478.31 114.42 1475.9 114.416 1473.46V1421.11C114.416 1418.67 114.896 1416.26 115.829 1414.01C116.761 1411.76 118.128 1409.71 119.852 1407.99C121.575 1406.26 123.621 1404.9 125.873 1403.96C128.125 1403.03 130.539 1402.55 132.976 1402.55H227.398V1308.13C227.398 1303.21 229.351 1298.5 232.826 1295.02C236.301 1291.55 241.014 1289.6 245.928 1289.6H298.275C303.19 1289.6 307.903 1291.55 311.378 1295.02C314.853 1298.5 316.805 1303.21 316.805 1308.13V1402.55H411.227C416.145 1402.56 420.858 1404.52 424.332 1408C427.806 1411.48 429.758 1416.19 429.758 1421.11V1421.11Z" fill="#424242"/>
<path d="M227.248 1586.53V1493.76L316.655 1402.55H411.078C415.995 1402.56 420.708 1404.52 424.182 1408C427.656 1411.48 429.608 1416.19 429.608 1421.11V1473.46C429.608 1478.37 427.655 1483.08 424.18 1486.56C420.705 1490.03 415.992 1491.99 411.078 1491.99H316.655V1586.53C316.655 1591.44 314.703 1596.16 311.228 1599.63C307.753 1603.11 303.04 1605.06 298.125 1605.06H245.778C240.864 1605.06 236.151 1603.11 232.676 1599.63C229.201 1596.16 227.248 1591.44 227.248 1586.53Z" fill="url(#paint5_linear)"/>
<path d="M272.958 1478.95C288.997 1478.95 301.999 1465.95 301.999 1449.91C301.999 1433.87 288.997 1420.87 272.958 1420.87C256.919 1420.87 243.917 1433.87 243.917 1449.91C243.917 1465.95 256.919 1478.95 272.958 1478.95Z" fill="#2D2D2D"/>
<path d="M267.582 1309.51L246.559 1345.82C246.114 1346.6 245.881 1347.49 245.884 1348.39C245.886 1349.29 246.124 1350.17 246.573 1350.95C247.022 1351.73 247.667 1352.38 248.444 1352.83C249.221 1353.29 250.104 1353.53 251.004 1353.54H293.049C293.953 1353.54 294.84 1353.3 295.623 1352.85C296.405 1352.4 297.055 1351.75 297.505 1350.96C297.956 1350.18 298.193 1349.29 298.191 1348.39C298.189 1347.49 297.948 1346.6 297.494 1345.82L276.471 1309.51C276.02 1308.73 275.372 1308.08 274.592 1307.63C273.812 1307.18 272.927 1306.95 272.026 1306.95C271.126 1306.95 270.241 1307.18 269.461 1307.63C268.681 1308.08 268.033 1308.73 267.582 1309.51V1309.51Z" fill="#2D2D2D"/>
<path d="M276.591 1584.91L297.614 1548.6C298.061 1547.82 298.295 1546.93 298.294 1546.04C298.292 1545.14 298.054 1544.25 297.604 1543.48C297.154 1542.7 296.508 1542.05 295.729 1541.6C294.951 1541.15 294.068 1540.91 293.169 1540.91H251.124C250.225 1540.91 249.342 1541.15 248.564 1541.6C247.785 1542.05 247.139 1542.7 246.689 1543.48C246.239 1544.25 246.001 1545.14 246 1546.04C245.998 1546.93 246.232 1547.82 246.679 1548.6L267.702 1584.91C268.153 1585.69 268.801 1586.33 269.581 1586.78C270.361 1587.23 271.246 1587.47 272.147 1587.47C273.047 1587.47 273.932 1587.23 274.712 1586.78C275.492 1586.33 276.14 1585.69 276.591 1584.91V1584.91Z" fill="#2D2D2D"/>
<path d="M410.657 1442.82L374.348 1421.8C373.568 1421.35 372.684 1421.12 371.785 1421.12C370.886 1421.12 370.003 1421.36 369.225 1421.81C368.446 1422.26 367.8 1422.91 367.349 1423.69C366.899 1424.46 366.661 1425.35 366.659 1426.25V1468.29C366.652 1469.19 366.884 1470.08 367.332 1470.87C367.78 1471.65 368.428 1472.3 369.209 1472.75C369.991 1473.2 370.878 1473.44 371.781 1473.44C372.683 1473.43 373.569 1473.19 374.348 1472.74L410.657 1451.71C411.436 1451.26 412.084 1450.61 412.533 1449.83C412.983 1449.05 413.22 1448.17 413.22 1447.27C413.22 1446.37 412.983 1445.48 412.533 1444.7C412.084 1443.92 411.436 1443.27 410.657 1442.82V1442.82Z" fill="#2D2D2D"/>
<path d="M135.258 1451.71L171.567 1472.74C172.348 1473.19 173.235 1473.43 174.139 1473.43C175.042 1473.43 175.93 1473.2 176.713 1472.75C177.496 1472.3 178.146 1471.65 178.598 1470.86C179.05 1470.08 179.287 1469.19 179.286 1468.29V1426.25C179.286 1425.33 179.043 1424.44 178.582 1423.65C178.122 1422.86 177.46 1422.21 176.665 1421.77C175.87 1421.32 174.97 1421.09 174.059 1421.11C173.147 1421.13 172.256 1421.39 171.477 1421.86L135.168 1442.88C134.407 1443.35 133.78 1444 133.347 1444.78C132.915 1445.56 132.692 1446.43 132.701 1447.32C132.71 1448.21 132.951 1449.09 133.399 1449.86C133.847 1450.63 134.488 1451.27 135.258 1451.71V1451.71Z" fill="#2D2D2D"/>
<path d="M885.502 1568.12C931.115 1568.12 968.091 1531.14 968.091 1485.53C968.091 1439.92 931.115 1402.94 885.502 1402.94C839.889 1402.94 802.912 1439.92 802.912 1485.53C802.912 1531.14 839.889 1568.12 885.502 1568.12Z" fill="#424242"/>
<path d="M813.123 1488.17C813.132 1501.99 816.809 1515.57 823.779 1527.5C830.749 1539.44 840.762 1549.31 852.796 1556.11C842.954 1551.96 834.069 1545.83 826.69 1538.11C819.31 1530.38 813.594 1521.23 809.894 1511.21C806.194 1501.19 804.589 1490.52 805.178 1479.85C805.768 1469.19 808.539 1458.76 813.321 1449.2C818.103 1439.65 824.793 1431.18 832.979 1424.32C841.164 1417.46 850.671 1412.35 860.91 1409.31C871.149 1406.27 881.904 1405.36 892.508 1406.64C903.112 1407.92 913.341 1411.36 922.562 1416.76C910.685 1411.55 897.698 1409.38 884.773 1410.45C871.849 1411.52 859.394 1415.79 848.534 1422.88C837.673 1429.96 828.749 1439.64 822.567 1451.04C816.384 1462.44 813.139 1475.2 813.123 1488.17V1488.17Z" fill="#939393"/>
<path d="M864.449 1452.52C870.124 1451.48 875.887 1450.98 881.657 1451.02C891.088 1451.02 897.154 1452.64 901.689 1456.31C903.657 1457.81 905.231 1459.77 906.278 1462.01C907.324 1464.26 907.81 1466.72 907.696 1469.19C907.574 1472.82 906.317 1476.32 904.103 1479.2C901.889 1482.07 898.828 1484.18 895.352 1485.23V1485.44C899.574 1486.3 903.371 1488.59 906.106 1491.92C908.84 1495.25 910.345 1499.42 910.369 1503.73C910.412 1506.46 909.884 1509.17 908.818 1511.68C907.753 1514.2 906.174 1516.46 904.182 1518.33C899.106 1522.98 890.877 1525.14 878.984 1525.14C874.096 1525.18 869.211 1524.9 864.359 1524.3L864.449 1452.52ZM873.879 1482.41H882.408C892.379 1482.41 898.235 1477.21 898.235 1470.18C898.235 1461.62 891.718 1458.17 882.198 1458.17C879.409 1458.1 876.621 1458.32 873.879 1458.83V1482.41ZM873.879 1517.36C876.497 1517.71 879.138 1517.86 881.778 1517.79C891.508 1517.79 900.488 1514.21 900.488 1503.61C900.488 1493.67 891.959 1489.55 881.657 1489.55H873.879V1517.36Z" fill="#2D2D2D"/>
<path d="M1118.94 1492.17C1164.56 1492.17 1201.53 1455.19 1201.53 1409.58C1201.53 1363.97 1164.56 1326.99 1118.94 1326.99C1073.33 1326.99 1036.35 1363.97 1036.35 1409.58C1036.35 1455.19 1073.33 1492.17 1118.94 1492.17Z" fill="#424242"/>
<path d="M1046.54 1412.34C1046.54 1426.17 1050.22 1439.75 1057.2 1451.69C1064.17 1463.63 1074.2 1473.51 1086.24 1480.3C1076.4 1476.15 1067.51 1470.03 1060.13 1462.3C1052.75 1454.58 1047.04 1445.43 1043.34 1435.41C1039.64 1425.39 1038.03 1414.71 1038.62 1404.05C1039.21 1393.38 1041.98 1382.95 1046.76 1373.4C1051.55 1363.85 1058.24 1355.38 1066.42 1348.52C1074.61 1341.66 1084.11 1336.55 1094.35 1333.51C1104.59 1330.46 1115.35 1329.56 1125.95 1330.84C1136.56 1332.12 1146.78 1335.56 1156 1340.95C1144.13 1335.74 1131.14 1333.57 1118.21 1334.63C1105.29 1335.7 1092.83 1339.96 1081.97 1347.05C1071.1 1354.13 1062.18 1363.81 1055.99 1375.21C1049.8 1386.61 1046.55 1399.37 1046.54 1412.34V1412.34Z" fill="#939393"/>
<path d="M1107.77 1424.35L1100.2 1447.3H1090.47L1115.28 1374.35H1126.51L1151.41 1447.3H1141.53L1133.72 1424.35H1107.77ZM1131.8 1417L1124.68 1395.97C1123.06 1391.2 1121.95 1386.96 1120.87 1382.67H1120.51C1119.43 1386.99 1118.25 1391.44 1116.84 1395.85L1109.69 1416.88L1131.8 1417Z" fill="#2D2D2D"/>
<defs>
<linearGradient id="paint0_linear" x1="-441.066" y1="481.692" x2="668.696" y2="1591.48" gradientUnits="userSpaceOnUse">
<stop stop-color="#ACEA49"/>
<stop offset="0.38" stop-color="#ACEA49" stop-opacity="0.99"/>
<stop offset="0.52" stop-color="#ACEA49" stop-opacity="0.96"/>
<stop offset="0.61" stop-color="#ACEA49" stop-opacity="0.91"/>
<stop offset="0.69" stop-color="#ACEA49" stop-opacity="0.84"/>
<stop offset="0.76" stop-color="#ACEA49" stop-opacity="0.75"/>
<stop offset="0.82" stop-color="#ACEA49" stop-opacity="0.63"/>
<stop offset="0.87" stop-color="#ACEA49" stop-opacity="0.49"/>
<stop offset="0.92" stop-color="#ACEA49" stop-opacity="0.33"/>
<stop offset="0.97" stop-color="#ACEA49" stop-opacity="0.15"/>
<stop offset="1" stop-color="#ACEA49" stop-opacity="0"/>
</linearGradient>
<linearGradient id="paint1_linear" x1="798.737" y1="464.423" x2="1196.16" y2="464.423" gradientUnits="userSpaceOnUse">
<stop stop-color="#8DD329"/>
<stop offset="0.66" stop-color="#8CD129"/>
<stop offset="0.9" stop-color="#8ACA2A"/>
<stop offset="1" stop-color="#88C42A"/>
</linearGradient>
<linearGradient id="paint2_linear" x1="-nan" y1="-nan" x2="-nan" y2="-nan" gradientUnits="userSpaceOnUse">
<stop stop-color="#C0ED5F"/>
<stop offset="0.19" stop-color="#C0ED5F" stop-opacity="0.99"/>
<stop offset="0.32" stop-color="#BFED5E" stop-opacity="0.95"/>
<stop offset="0.44" stop-color="#BEED5C" stop-opacity="0.88"/>
<stop offset="0.56" stop-color="#BCEC5A" stop-opacity="0.79"/>
<stop offset="0.66" stop-color="#B9EC58" stop-opacity="0.66"/>
<stop offset="0.76" stop-color="#B6EC54" stop-opacity="0.51"/>
<stop offset="0.86" stop-color="#B3EB50" stop-opacity="0.34"/>
<stop offset="0.95" stop-color="#AFEA4C" stop-opacity="0.13"/>
<stop offset="1" stop-color="#ACEA49" stop-opacity="0"/>
</linearGradient>
<linearGradient id="paint3_linear" x1="19.2729" y1="48.3525" x2="19.2729" y2="2062.67" gradientUnits="userSpaceOnUse">
<stop stop-color="#D2FF83"/>
<stop offset="0.24" stop-color="#D2FF82" stop-opacity="0.99"/>
<stop offset="0.38" stop-color="#D0FE81" stop-opacity="0.96"/>
<stop offset="0.49" stop-color="#CEFD7D" stop-opacity="0.9"/>
<stop offset="0.59" stop-color="#CBFB79" stop-opacity="0.83"/>
<stop offset="0.67" stop-color="#C8F973" stop-opacity="0.73"/>
<stop offset="0.75" stop-color="#C3F76C" stop-opacity="0.6"/>
<stop offset="0.83" stop-color="#BDF463" stop-opacity="0.45"/>
<stop offset="0.9" stop-color="#B7F059" stop-opacity="0.28"/>
<stop offset="0.97" stop-color="#B0EC4F" stop-opacity="0.1"/>
<stop offset="1" stop-color="#ACEA49" stop-opacity="0"/>
</linearGradient>
<linearGradient id="paint4_linear" x1="1288.69" y1="48.3525" x2="1288.69" y2="2062.67" gradientUnits="userSpaceOnUse">
<stop stop-color="#B6E254"/>
<stop offset="0.13" stop-color="#B4E452" stop-opacity="0.79"/>
<stop offset="0.3" stop-color="#B2E64F" stop-opacity="0.55"/>
<stop offset="0.46" stop-color="#B0E74D" stop-opacity="0.35"/>
<stop offset="0.61" stop-color="#AEE84B" stop-opacity="0.2"/>
<stop offset="0.76" stop-color="#ADE94A" stop-opacity="0.09"/>
<stop offset="0.89" stop-color="#ACEA49" stop-opacity="0.02"/>
<stop offset="1" stop-color="#ACEA49" stop-opacity="0"/>
</linearGradient>
<linearGradient id="paint5_linear" x1="367.741" y1="1543.04" x2="271.967" y2="1447.27" gradientUnits="userSpaceOnUse">
<stop stop-color="#6D6D6D"/>
<stop offset="0.42" stop-color="#6D6D6D" stop-opacity="0.98"/>
<stop offset="0.58" stop-color="#6D6D6D" stop-opacity="0.92"/>
<stop offset="0.7" stop-color="#6D6D6D" stop-opacity="0.81"/>
<stop offset="0.8" stop-color="#6D6D6D" stop-opacity="0.65"/>
<stop offset="0.88" stop-color="#6D6D6D" stop-opacity="0.44"/>
<stop offset="0.95" stop-color="#6D6D6D" stop-opacity="0.19"/>
<stop offset="1" stop-color="#6D6D6D" stop-opacity="0"/>
</linearGradient>
</defs>
</svg>
