<?xml version="1.0" encoding="utf-8"?>
<!-- Generator: Adobe Illustrator 21.1.0, SVG Export Plug-In . SVG Version: 6.00 Build 0)  -->
<svg version="1.1" xmlns="http://www.w3.org/2000/svg" xmlns:xlink="http://www.w3.org/1999/xlink" x="0px" y="0px"
	 viewBox="0 0 840 840" style="enable-background:new 0 0 840 840;" xml:space="preserve">
<style type="text/css">
	.st0{display:none;opacity:0.28;}
	.st1{display:inline;}
	.st2{display:inline;fill:none;stroke:#000000;stroke-miterlimit:10;}
	.st3{fill:#999587;}
	.st4{fill:#5B594F;}
	.st5{fill:#282722;}
</style>
<g id="Layer_2" class="st0">
	<g class="st1">
		<g>
			<path d="M439.7,82.5c23.5-26.3,59.1-39.2,94-36.6c18.1,1.4,35.9,6.8,51.9,15.1c8,4.2,15.7,9.1,22.8,14.6
				c7.1,5.5,14.6,11.6,19.2,19.4c8.4,14.4,7.6,35.4,3.6,51.1c-3.9,15.3-12.4,29.6-26.1,38c-8,4.8-17,7.4-26,9.4
				c-9.8,2.2-19.7,4.3-29.7,5.6c-10.6,1.4-21.4,1.8-31.9-0.4c-9.9-2.1-19-6.8-27.6-12.1c-34-21.1-64.5-60.1-49.6-102.2
				c0.6-1.8-2.3-2.6-2.9-0.8c-13.2,37.4,9,74.6,38.3,96.9c16.5,12.6,34.9,22.4,56.1,22.7c10.8,0.2,21.6-1.5,32.1-3.6
				c10.3-2,20.8-3.8,30.7-7.4c32.7-11.8,45.5-47.3,41.2-79.7c-1.3-9.4-4.1-17.9-10.3-25.2c-6.3-7.4-14.3-13.5-22.2-19
				c-15.9-11-34.1-19.1-53.1-23c-40.6-8.4-84.8,3.8-112.8,35.1C436.3,81.9,438.4,84,439.7,82.5L439.7,82.5z"/>
		</g>
	</g>
	<g class="st1">
		<g>
			<path d="M486.5,190.3c6.5,32.8,10.2,66,11.5,99.4c0.2,4.1,0.3,9.2,4.3,11.7c2.2,1.4,5,1.3,7.5,1.4c4,0.2,8,0.1,12,0
				c15.3-0.6,30.4-3.5,44.9-8.3c0.7-0.2,1-0.8,1.1-1.4c2.9-30.7-12.6-59-14.1-89.4c-0.1-1.9-3.1-1.9-3,0c1.5,30.3,17,58.7,14.1,89.4
				c0.4-0.5,0.7-1,1.1-1.4c-13.4,4.4-27.3,7.2-41.3,8c-5.7,0.3-20.6,2.5-22.9-3.9c-1.1-3.2-0.7-7.4-0.8-10.8
				c-0.1-3.6-0.3-7.2-0.5-10.7c-1.7-28.4-5.3-56.7-10.9-84.6C489,187.6,486.1,188.4,486.5,190.3L486.5,190.3z"/>
		</g>
	</g>
	<g class="st1">
		<g>
			<path d="M477,87c-3.7,5.3-3.3,11.8-3.3,18c0,7.4-0.6,15,0.5,22.4c1.1,7.7,9.1,23.3,19.2,16.5c4.3-2.9,6.4-9.3,8.2-13.9
				c2.7-6.7,4.4-13.8,5.3-21c0.7-5.7,2-13.4-1.5-18.5c-2.9-4.1-8.1-5.6-12.7-6.8c-1.9-0.5-2.7,2.4-0.8,2.9c4.6,1.2,10.2,2.7,12,7.7
				c1.7,4.6,0.5,11.4-0.2,16.1c-1.4,9.4-4.1,20.5-9.6,28.4c-5,7.2-12.3,1.1-14.9-4.7c-2.1-4.7-2.4-9.9-2.5-15c-0.1-5,0-9.9,0-14.9
				c0-5.4-0.3-10.9,2.9-15.6C480.7,86.9,478.1,85.4,477,87L477,87z"/>
		</g>
	</g>
	<g class="st1">
		<g>
			<path d="M548.4,93.7c-1.8,15.9-3.4,35,2.5,50.3c3.6,9.2,15.3,21.8,24.3,10.6c4.4-5.5,8.4-12.9,9.8-19.8c1.4-7-0.4-13.7-3.2-20.1
				c-3.3-7.4-7.1-15.5-12.1-21.8c-3.8-4.9-9.2-8-15.5-6.8c-1.9,0.4-1.1,3.3,0.8,2.9c7.7-1.6,12.5,5.4,15.9,11.2
				c3,5.2,5.9,10.5,8.3,16c3,6.8,4.4,13.8,2.1,21c-1.8,5.5-5.1,12.1-9.1,16.3c-6,6.5-13.7-1.3-16.7-6.8c-2.5-4.6-3.8-9.8-4.5-15
				c-1.7-12.5-1-25.5,0.3-38.1C551.6,91.8,548.6,91.8,548.4,93.7L548.4,93.7z"/>
		</g>
	</g>
	<g class="st1">
		<g>
			<path d="M509.9,248.1c-1.8,14.4-0.4,28.8,4.1,42.5c0.6,1.8,3.5,1,2.9-0.8c-4.5-13.5-5.8-27.6-4-41.7
				C513.2,246.2,510.2,246.2,509.9,248.1L509.9,248.1z"/>
		</g>
	</g>
	<g class="st1">
		<g>
			<path d="M528,255.4c-0.4,13.3,0.2,26.5,1.8,39.7c0.2,1.9,3.2,1.9,3,0c-1.6-13.2-2.3-26.4-1.8-39.7C531,253.5,528,253.5,528,255.4
				L528,255.4z"/>
		</g>
	</g>
	<g class="st1">
		<g>
			<path d="M540.6,257c1.4,14,2.7,28.1,3.9,42.1c0.2,1.9,3.2,1.9,3,0c-1.2-14.1-2.4-28.1-3.9-42.1C543.4,255.1,540.4,255,540.6,257
				L540.6,257z"/>
		</g>
	</g>
	<g class="st1">
		<g>
			<path d="M466.9,306.4c-9.9,4.6-18.2,12.9-20.9,23.8c-2.5,10.2,0.9,20.3,7.3,28.3c6.4,8.1,18.4,18.1,29.4,16.9
				c10-1.1,26.7-6.3,28.4-18.1c0.1-0.8-0.2-1.6-1-1.8c-4.8-1.2-9.4-0.1-14.2-0.5c-6.4-0.4-11.1-5.8-14-11.1
				c-2.6-4.7-3.9-10.1-3.4-15.5c0.3-2.9,1.1-6.1,2.7-8.5c2.2-3.4,5.4-3.7,8.9-4.8c5.4-1.8,7.3-7.3,3.7-11.9
				c-5.5-6.9-16.4-4-23.1-0.9c-1.7,0.8-0.2,3.4,1.5,2.6c5.2-2.4,14-5.2,18.7-0.5c0.8,0.8,1.6,2,1.8,3.1c0.5,2.9-1.8,4-4.1,4.8
				c-1.8,0.7-3.7,0.8-5.4,1.7c-6.3,3.5-8.1,12.1-7.7,18.7c0.5,7.8,4.3,15.1,9.9,20.4c2.6,2.5,5.3,4.2,8.9,4.7
				c5,0.7,10.1-0.7,15.1,0.5c-0.3-0.6-0.7-1.2-1-1.8c-0.9,6.5-7,10.1-12.7,12.2c-5,1.9-12.1,4.6-17.5,3.6
				c-9.3-1.8-18.9-10.3-24.2-17.9c-11.8-17-3.6-37.2,14.4-45.4C470.2,308.2,468.6,305.6,466.9,306.4L466.9,306.4z"/>
		</g>
	</g>
	<g class="st1">
		<g>
			<path d="M572.7,305.3c9.4-2.1,19.3-4.3,29-2.5c8.2,1.5,15,6,20.4,12.3c4.8,5.6,9,12.4,12.2,19.1c2.1,4.4,3.5,9.7,1,14.3
				c-2.3,4.2-7.3,6.2-11.5,8c-8.4,3.6-17.1,7.1-26.1,9c-4.4,1-9.1,1.8-13.7,1.6c-6.3-0.2-10.7-4-12.4-10c-2-7.4,8.9-5.3,12.7-5.2
				c3.8,0.1,7.7-0.3,11.2-1.7c5-1.9,9.1-6.1,10-11.5c0.9-6-2.6-11.2-7.5-14.3c-3-1.9-6.4-3.1-9.9-3.7c-3.5-0.5-18.3,0.7-16.5-5.7
				c0.5-1.9-2.4-2.7-2.9-0.8c-2.5,8.7,10.5,8.8,15.7,9.1c5.5,0.3,11.1,1.9,15,5.9c4.5,4.5,4.2,11.2-0.5,15.5
				c-4.3,3.9-10.7,4.3-16.1,4c-3.7-0.2-8.2-1.3-11.6,1c-5.7,3.8-1.5,12,1.8,15.9c6,7.1,17.6,4.5,25.6,2.7
				c10.2-2.2,20.2-6.2,29.7-10.6c7.2-3.4,12.5-8.8,11.4-17.3c-1.1-8.3-7.2-16.8-12-23.4c-5.3-7.3-12.1-13.4-20.8-16.1
				c-11.3-3.5-23.5-1-34.7,1.5C570,302.9,570.8,305.8,572.7,305.3L572.7,305.3z"/>
		</g>
	</g>
	<g class="st1">
		<g>
			<path d="M526.2,308.1c-3.9,2-15.1,5.1-11,11.8c1.5,2.5,4.7,3.7,7.3,4.6c4.3,1.5,9.9,4.1,14.5,3.9c5.5-0.2,12.9-7.7,13.6-13.2
				c0.3-2.5-0.5-4.4-2.7-5.5c-4.6-2.3-10.5-3.1-15.4-4.5c-1.9-0.5-2.7,2.4-0.8,2.9c2.3,0.7,4.7,1.3,7,2c1.7,0.5,5.7,0.8,7,2
				c3.4,3.1,0.6,6.4-1.8,8.7c-2.6,2.5-5.1,4.7-9.1,4.1c-4.4-0.7-10.3-2.5-14.2-4.6c-2.2-1.2-2.4-1.1-1.6-3.8
				c0.8-2.6,0.9-2.5,3.2-3.5c1.9-0.8,3.8-1.5,5.6-2.5C529.4,309.8,527.9,307.3,526.2,308.1L526.2,308.1z"/>
		</g>
	</g>
	<g class="st1">
		<g>
			<path d="M533.2,330.4c-6.5,2.3-16.6,0.9-19.4,9c-2.4,6.8,3.1,12.5,9,14.9c7.3,3,16.4,4.1,22.1-2.2c4.3-4.8,8-12.5,0.3-16
				c-1.7-0.8-3.3,1.8-1.5,2.6c7.7,3.6-1.5,13.9-6.6,14.8c-5,0.9-11.5-0.7-15.8-3.3c-5-3-7.4-10.4-1.2-13.6c4.2-2.2,9.4-1.7,13.8-3.2
				C535.8,332.6,535,329.7,533.2,330.4L533.2,330.4z"/>
		</g>
	</g>
	<g class="st1">
		<g>
			<path d="M539.9,360c-6.3-0.4-11.8,2.7-17.1,5.9c-4.6,2.8-9.5,6.4-11.5,11.7c-3.8,10.5,7.7,17.9,16.5,19.9
				c9.7,2.2,20-9.6,24.2-17.2c1.9-3.4,4.7-9,3.9-13c-1-5-8.4-3.6-12-3.5c-1.9,0.1-1.9,3.1,0,3c1.8,0,4.7-0.6,6.4,0
				c2.8,1,2.5,3.3,1.8,5.7c-0.9,3.1-2.4,6.1-4.2,8.8c-4.2,6.3-12.6,15.1-20.7,12.8c-9.3-2.6-18.4-11.1-10-20.2
				c5.1-5.5,15.1-11.4,22.7-11C541.9,363.1,541.9,360.1,539.9,360L539.9,360z"/>
		</g>
	</g>
	<g class="st1">
		<g>
			<path d="M531.5,401.6c-3.6,5.7-10,15-7.4,22.1c2,5.3,8.2,7.3,13.3,5.3c2.8-1.1,5.1-3.1,7.3-5c2.5-2.2,5.7-4.2,7.3-7.2
				c3.2-6-3-10.6-7.4-13.5c-1.6-1.1-3.1,1.5-1.5,2.6c2,1.3,5.1,3.1,6.2,5.4c1.7,3.6-0.9,5.5-2.9,7.3c-2.8,2.5-5.9,5.7-9.4,7.2
				c-7,3.1-11.7-2.6-9.8-9.4c1.4-4.8,4.2-9.3,6.8-13.5C535.1,401.5,532.6,400,531.5,401.6L531.5,401.6z"/>
		</g>
	</g>
	<g class="st1">
		<g>
			<path d="M443.2,348.7c-18.3,21.8,2.3,54,28.3,55.3c7.3,0.4,14.7,0.1,21.8-1.6c2.8-0.7,13-3.1,13.1-7.3c0.1-4.1-8.7-6.4-11.5-7.1
				c-3.4-0.8-6.8-1.1-10.2-0.8c-2.9,0.2-5.2,0.2-6.9-2.6c-1.5-2.5-2-5-1.8-7.9c0.1-1.9-2.9-1.9-3,0c-0.2,4.1,0.9,8.9,4.1,11.8
				c3.1,2.9,7.1,1.4,11,1.5c3.4,0.1,6.8,0.8,10,2c1.6,0.6,3.9,1.1,3.7,2.9c-0.1,1.7-2.4,2.3-3.9,2.8c-5.9,2.4-12.4,3.1-18.8,3.3
				c-6.4,0.2-13.3,0.3-19.1-2.8c-5.1-2.7-9.8-6.8-13.5-11.2c-8.9-10.8-10.3-25.2-1.1-36.3C446.5,349.3,444.4,347.2,443.2,348.7
				L443.2,348.7z"/>
		</g>
	</g>
	<g class="st1">
		<g>
			<path d="M608.6,367.6c0.6,3.8,1.5,8.5,1,12.4c-0.8,6.4-6.6,8.2-12,10.2c-3.7,1.4-10.2,1.7-12.3,5.7c-1.7,3.5,0.4,7,3.4,8.8
				c4.3,2.5,9.8,1.9,14.5,0.8c7-1.6,13.9-4,20.6-6.5c4.7-1.8,10.3-3.6,13.3-7.9c6.7-9.5,1.6-24.3-4.5-32.6c-1.1-1.5-3.7,0-2.6,1.5
				c5.9,8.1,12.1,25.5,1.2,32.4c-4.5,2.8-10.1,4.4-15.1,6.1c-5,1.7-10.1,3.5-15.3,4.5c-2.7,0.5-5.7,0.7-8.4,0
				c-1.5-0.2-2.6-1-3.4-2.2c-1.8-1.1-1.7-2.2,0.4-3.4c1.8-2.2,1.6-2,3.8-2.6c4.6-1.3,9.2-3,13.4-5.3c8.3-4.7,6.1-14.5,4.8-22.6
				C611.2,364.9,608.3,365.7,608.6,367.6L608.6,367.6z"/>
		</g>
	</g>
	<g class="st1">
		<g>
			<path d="M442.5,391.8c-4.7,7.6-3.9,16.2-2.6,24.6c1.1,6.9,3.4,13.9,9.7,17.7c7.3,4.4,16.4,3,24.1,0.8c7.2-2.1,16.1-4.5,20.5-11.1
				c0.6-0.8,0-1.9-0.9-2.2c-6.2-2-12.4-0.8-18.7-1.4c-10.6-0.9-13-8.8-12.3-18.1c0.1-1.9-2.9-1.9-3,0c-0.5,7.3,0.1,15.1,7.2,19
				c7.9,4.4,17.6,0.7,26,3.4c-0.3-0.7-0.6-1.5-0.9-2.2c-3.8,5.6-11.8,7.7-17.9,9.5c-7.2,2.1-15.8,3.8-22.6-0.2
				c-5.6-3.3-7.3-9.9-8.3-15.9c-1.2-7.6-2-15.5,2.3-22.3C446.1,391.7,443.5,390.2,442.5,391.8L442.5,391.8z"/>
		</g>
	</g>
	<g class="st1">
		<g>
			<path d="M633.8,396.1c4.3,10.5,3.4,30.3-10.2,33.9c-5.9,1.5-12.3-0.2-18.1-1.4c-6.4-1.4-13-2.5-19.3-4.1
				c-0.6-0.1-1.8-0.1-2.1-0.7c-0.2-0.5,1.6-3.5,2-4.1c2.6-4,6.2-4.4,10.7-3.7c4.6,0.6,9.2,1,13.7,0c6.8-1.5,14.1-7.3,10.7-14.9
				c-0.8-1.8-3.4-0.2-2.6,1.5c2.5,5.5-3.8,9.2-8.1,10.3c-4.5,1.2-9.2,0.6-13.8,0c-4.7-0.6-8.6-0.3-11.9,3.4c-1.6,1.9-5.3,7-3.3,9.5
				c1.2,1.5,4.1,1.5,5.8,1.9c3.9,0.8,7.7,1.7,11.6,2.5c9.9,2.1,24.3,7,32.7-1.3c8.6-8.6,9.6-22.9,5.2-33.6
				C635.9,393.6,633,394.3,633.8,396.1L633.8,396.1z"/>
		</g>
	</g>
	<g class="st1">
		<g>
			<path d="M480,274.7c-9.5,4.1-19.3,7.9-28.7,12.5c-7.9,3.8-4.6,9.1-5.8,16.3c-0.3,1.9,2.6,2.7,2.9,0.8c0.5-2.7,0.1-5.2,0-7.9
				c-0.1-5.7,5.5-7,9.8-8.9c7.8-3.4,15.5-6.7,23.3-10.1C483.2,276.5,481.7,274,480,274.7L480,274.7z"/>
		</g>
	</g>
	<g class="st1">
		<g>
			<path d="M583.6,275.5c2.9,0.3,5.8,0.6,8.7,0.9c3.1,0.3,6.9,0.2,9.9,1c3.6,1,2.6,4.7,2.6,7.9c0,3.2,0,6.5,0,9.7c0,1.9,3,1.9,3,0
				c0-4.7,0.3-9.4,0-14.1c-0.1-2.1-0.3-4.2-2.1-5.5c-2-1.5-5.9-1.2-8.2-1.4c-4.6-0.5-9.2-1-13.9-1.4
				C581.7,272.3,581.7,275.3,583.6,275.5L583.6,275.5z"/>
		</g>
	</g>
	<g class="st1">
		<g>
			<path d="M536.8,443.6c-3.8,5.4-7.5,14.1-0.6,18.4c5.1,3.2,13.2,7.2,17.5,1.3c4.2-5.7,5.5-13.9,1.5-20.1
				c-2.2-3.4-9.8-6.1-11.2-0.6c-0.5,1.9,2.4,2.7,2.9,0.8c1.4-5.5,6.9,3.7,7.1,4.5c0.5,1.7,0.7,3.4,0.6,5.2c-0.3,4.2-2.6,10.6-7.6,10
				c-2.8-0.3-7.9-2.1-10-4.1c-4-3.9-0.1-10.4,2.3-13.9C540.5,443.6,537.9,442.1,536.8,443.6L536.8,443.6z"/>
		</g>
	</g>
	<g class="st1">
		<g>
			<path d="M535.4,472.2c-2.3,3.4-4.8,7.6-2.3,11.6c2.5,3.8,7.9,4.3,12,4.3c3.8,0,6.5-2,4.8-6c-1.9-4.5-6.1-7.6-10.3-9.7
				c-1.7-0.9-3.2,1.7-1.5,2.6c2.5,1.2,4.8,2.7,6.7,4.7c0.8,0.8,1.9,2,2.2,3.1c0.9,1.2,0.4,1.9-1.4,2.2c-0.6,0-1.3,0-1.9,0
				c-2.7-0.1-6.7-0.4-8.2-3.2c-1.5-2.9,1-6,2.5-8.2C539.1,472.1,536.5,470.6,535.4,472.2L535.4,472.2z"/>
		</g>
	</g>
	<g class="st1">
		<g>
			<path d="M518.1,454.3c-10-2.7-20.5-0.3-29.1,5.1c-3.7,2.3-7.2,5.2-10.4,8.1c-2.9,2.6-6.7,6-6.2,10.3c1,8.6,14.1,10.5,20.5,12.1
				c6,1.4,11.5,3.4,16.3,7.5c3.9,3.3,7.1,7.3,11,10.7c6.5,5.8,14.4,8.8,23.1,9.7c7.3,0.7,19.7,0.5,25.5-4.9c3-2.8-0.6-6,0.4-9.3
				c2-6.6,11.5-9.7,17.1-11.9c7.6-3,16.5-6.2,19.9-14.3c3.6-8.5-1.3-16.9-8.9-21c-8.8-4.8-20-5.3-29.5-2.4c-1.8,0.6-1.1,3.5,0.8,2.9
				c8.1-2.5,17.1-2.3,24.9,1c8.2,3.5,14.4,12.1,8.7,20.6c-4.9,7.4-15.4,9.4-23,12.8c-5.2,2.4-12.3,6.5-13.3,12.8
				c-0.4,2.7,1.8,5.4-0.6,7.3c-3,2.4-9.5,3-13.1,3.4c-8,0.7-16.7-0.4-23.8-4.4c-6.8-3.8-11.2-10.2-17.1-15.1
				c-6-5.1-12.7-7.1-20.2-8.9c-4.5-1-12.8-2.4-14.9-7.1c-2.4-5.4,5.4-10.7,9.3-13.7c9-7.1,20.3-11.4,31.8-8.3
				C519.2,457.7,520,454.8,518.1,454.3L518.1,454.3z"/>
		</g>
	</g>
	<g class="st1">
		<g>
			<path d="M586,504.6c3.3-5.5,9.3-9.7,16-9c6.9,0.7,13,7.6,11.5,14.7c-1.2,5.5-6,9.5-8,14.6c-2,5-2,10.6-2.2,16
				c-0.9,28.2-1.2,56.4-1,84.7c0,2.7-1.1,9,2.3,10.6c1.7,0.8,3.1-0.4,4.7-0.3c6.4,0.3,4.8,8.7,1.7,11.5c-4.7,4.2-12.3,5-18.3,4.7
				c-3.2-0.2-6.5-0.9-9.5-2c-1-0.4-5.4-1.8-6-3.1c-1.3-2.7,1.8-3.1,3.1-3.9c3.7-2.4,4.6-6.8,5.6-10.8c1.7-7,3.4-13.9,4.9-20.9
				c2.9-12.8,5.3-25.8,6.7-38.8c0.8-7.7,1.2-15.5,1.1-23.3c-0.1-5.7-0.1-11.8-2-17.3c-1.5-4.4-4.1-7.5-8.4-9.3
				c-3.8-1.6-7.7-2.2-8.4-6.9c-0.5-3.7,1.1-7.3,3.4-10.1c1.2-1.5-0.9-3.6-2.1-2.1c-6.2,7.4-6.2,17.7,3.8,21.2
				c8.2,2.9,9.9,9.5,10.4,17.7c0.5,8.7,0.3,17.5-0.5,26.2c-1.5,17.7-5.3,35.1-9.3,52.4c-0.9,3.8-1.8,7.6-2.7,11.4
				c-0.5,1.9-0.8,4.1-1.9,5.8c-1.2,2-2.9,2.5-4.7,3.6c-3.2,2-3.3,5.2-0.6,7.7c8.4,7.5,25.7,7.4,35,1.9c3.9-2.3,7.2-6.5,6.4-11.2
				c-0.6-3.5-3.3-6.9-7-7.2c-1.6-0.2-1.8,0.4-3.3-0.7c-2-1.4-1.2-4.3-1.3-6.7c0-4.3-0.1-8.5-0.1-12.8c0-8.9,0-17.7,0.1-26.6
				c0.2-17.1-0.1-34.4,1.2-51.5c0.4-4.8,1.4-9.1,4.1-13.2c1.9-2.9,4.2-5.6,5.3-9c1.8-5.3,0.2-10.9-3.6-14.9
				c-8.8-9.4-22.9-4.4-29,5.5C582.4,504.7,585,506.2,586,504.6L586,504.6z"/>
		</g>
	</g>
	<g class="st1">
		<g>
			<path d="M507.4,509.7c6.2-10.3-10.2-15.3-17.2-16.1c-3.3-0.4-8.6-1.2-11,1.9c-2.9,3.7-0.7,10.3,1,14c2.9,6.1,7,11.2,7.6,18.2
				c0.6,7.1-1,14.5-1.8,21.5c-1.8,16.3-2.9,32.7-3.1,49.1c-0.1,7.2,0.1,14.5,0.2,21.7c0.1,4.2,0.2,8.1-2.8,11.4
				c-1.6,1.9-3,3.4-3.6,5.9c-2,8.2,3,17.7,11.8,18.4c5.7,0.5,12.1-1.6,17.3-3.8c4.2-1.8,7.6-5.1,6.6-10.1c-0.6-2.9-2.5-4.1-5.3-4.3
				c-0.8,0-2.2,0.5-3,0.2c-3.2-1.4-1.6-5.9-1.1-8.1c0.8-3.7,1.4-7.4,1.9-11.2c2.2-16.9,2.6-34.2,3.3-51.2c0.7-18.2,0.7-36.4-1-54.5
				c-0.2-1.9-3.2-1.9-3,0c2.4,25.3,1.3,50.7-0.1,76c-0.6,12.2-1.1,24.5-3.3,36.5c-0.7,3.7-3,9.2-1.1,12.9c1.6,3,3.6,1.9,6.3,2.5
				c5.7,1.3,2.9,6.7-1.1,8.5c-2.6,1.1-5.5,1.9-8.2,2.7c-6.5,1.6-13.6,1.8-16.4-5.5c-0.9-2.5-1.4-5.5-0.7-8.1
				c0.6-2.4,2.3-3.7,3.7-5.5c2.7-3.4,2.8-7.6,2.8-11.8c-0.5-25.3,0.2-50.4,3.3-75.5c0.8-6.4,2-12.9,1.2-19.3
				c-0.6-4.9-2.8-9-5.2-13.1c-1.3-2.3-2.7-4.6-3.6-7.1c-0.4-1.3-0.8-2.5-0.8-3.9c-0.2-4.9,1.6-5.6,5.6-5.6c5,0.1,23.2,3.3,18,11.8
				C503.8,509.8,506.4,511.3,507.4,509.7L507.4,509.7z"/>
		</g>
	</g>
	<g class="st1">
		<g>
			<path d="M479.6,660.6c-3.7,0.6-8.2,2.4-9.4,6.3c-1.3,4,1.6,7.6,5.3,8.7c2.3,0.7,4.6,0.4,6.9-0.3c2.3-0.7,5.5-1.8,7-3.7
				c3.1-3.8-1.8-7-4.9-8.1c-1.8-0.6-2.6,2.3-0.8,2.9c1.1,0.3,2.1,0.8,3,1.4c-0.2,0.8-0.5,1.7-0.7,2.5c-0.6,0.6-3.3,1.6-3.9,1.8
				c-2.4,0.9-5.2,1.3-7.4-0.2c-5.8-4,2.2-7.9,5.7-8.5C482.3,663.2,481.5,660.3,479.6,660.6L479.6,660.6z"/>
		</g>
	</g>
	<g class="st1">
		<g>
			<path d="M584.1,660.6c-4.2-2-9.2,0.2-10.7,4.6c-1.7,5,2.2,10.1,6.9,11.7c4.8,1.6,13.5-0.2,16.2-4.9c3.1-5.4-6.4-8.7-10-9.5
				c-1.9-0.4-2.7,2.4-0.8,2.9c1.6,0.4,3.1,0.8,4.7,1.6c1.7,0.8,2.3,1,2.3,3c0,2.1-0.7,2.2-2.4,3c-1.8,0.9-3.8,1.5-5.8,1.5
				c-3,0.1-6.1-1.3-7.6-4c-2.1-3.6,1.1-9.5,5.7-7.4C584.3,664,585.8,661.4,584.1,660.6L584.1,660.6z"/>
		</g>
	</g>
	<g class="st1">
		<g>
			<path d="M515.3,663c8.4,4.9,10.5,16.2,12.8,24.9c2.7,10,4.8,20.1,6.3,30.3c3,20.7,3.5,41.6,1.6,62.4c0.9-0.3,1.9-0.5,2.8-0.8
				c-5.4-9-6.7-19.4-9.1-29.4c-2.4-9.9-5.9-19.5-10-28.8c-4.3-9.5-9.3-18.6-14.4-27.5c-2.9-5-5.9-10.2-6.2-16.1
				c-0.3-6,3.8-12.5,10.3-12.4c1.9,0,1.9-3,0-3c-8.5-0.2-13.9,8.3-13.3,16.2c0.4,5.2,2.8,10.1,5.3,14.6c3.2,5.6,6.4,11.2,9.4,16.9
				c6.3,12,11.7,24.4,15.1,37.5c3,11.4,4.1,23.3,10.2,33.6c0.8,1.4,2.7,0.7,2.8-0.8c2-22.3,1.3-44.8-2.3-66.9
				c-1.8-11.1-4.3-22.1-7.5-33c-2.3-7.8-5-16-12.4-20.4C515.1,659.4,513.6,662,515.3,663L515.3,663z"/>
		</g>
	</g>
	<g class="st1">
		<g>
			<path d="M613.9,666.4c10.8,1.8,14.9,12.2,17.6,21.5c2.8,9.6,5.6,19.3,7.8,29c4.8,20.4,7.2,41.5,2.4,62.2c1,0,1.9,0,2.9,0
				c-2.7-18.5-8-36.5-15.8-53.5c-3.9-8.5-9.1-16.2-13-24.7c-4.8-10.6-1.8-21.2,1.7-31.7c0.6-1.8-2.3-2.6-2.9-0.8
				c-2.9,8.8-5.9,18.2-3.7,27.5c2.1,8.9,8.2,16.7,12.2,24.8c9.4,18.6,15.5,38.7,18.6,59.3c0.2,1.5,2.6,1.4,2.9,0
				c5.3-22.4,2.2-45.4-3.3-67.5c-2.6-10.8-5.2-22-9.3-32.4c-3.1-7.9-8.5-15.1-17.4-16.6C612.8,663.2,612,666.1,613.9,666.4
				L613.9,666.4z"/>
		</g>
	</g>
	<g class="st1">
		<g>
			<path d="M490.3,698.1c4.1,25.9,10.9,52.7,26.1,74.5c1.1,1.6,3.7,0.1,2.6-1.5c-15.1-21.6-21.8-48.1-25.8-73.8
				C492.9,695.4,490,696.2,490.3,698.1L490.3,698.1z"/>
		</g>
	</g>
	<g class="st1">
		<g>
			<path d="M594.5,695.8c5.8,28.2,12,57,27.8,81.5c1,1.6,3.6,0.1,2.6-1.5c-15.7-24.3-21.7-52.9-27.5-80.8
				C597,693.1,594.1,693.9,594.5,695.8L594.5,695.8z"/>
		</g>
	</g>
	<g class="st1">
		<g>
			<path d="M512,786.1c-12,1.9-23.7,5.5-34.7,10.8c-2.5,1.2-9.4,3.2-8.9,7.1c0.4,3.1,5.7,4.7,8.2,5.3c4.9,1.2,10,0.9,15,0.7
				c6.4-0.2,12.7,0.8,19,0.8c8.6,0,17.9-3.4,20.4-12.4c0.2-0.9-0.3-1.5-1-1.8c-4.8-2-9.6-3.3-14.7-4c-1.9-0.3-2.7,2.6-0.8,2.9
				c5.1,0.7,10,2,14.7,4c-0.3-0.6-0.7-1.2-1-1.8c-2.7,9.8-13.9,10.6-22.3,10c-8.1-0.5-16.3,0.1-24.4-0.6c-2.1-0.2-4.2-0.5-6.2-1.3
				c-3.6-1.4-3.3-2.7-0.4-4.3c4.1-2.2,8.4-4.1,12.8-5.8c8.2-3.1,16.6-5.3,25.2-6.7C514.7,788.7,513.9,785.8,512,786.1L512,786.1z"/>
		</g>
	</g>
	<g class="st1">
		<g>
			<path d="M619.3,791.6c-6.4,5-11.8,10.8-16.3,17.6c-0.7,1,0.2,2.2,1.3,2.3c22.7,0.7,45.4-1.8,67.4-7.5c1.3-0.3,1.5-2.1,0.4-2.7
				c-14.2-8.3-30-13.2-46.4-14.4c-1.9-0.1-1.9,2.9,0,3c15.9,1.2,31.1,6,44.9,14c0.1-0.9,0.2-1.8,0.4-2.7
				c-21.8,5.6-44.1,8.1-66.6,7.4c0.4,0.8,0.9,1.5,1.3,2.3c4.3-6.6,9.6-12.2,15.8-17C622.9,792.5,620.8,790.4,619.3,791.6
				L619.3,791.6z"/>
		</g>
	</g>
	<g class="st1">
		<g>
			<path d="M436.7,311.3c-12.2,24.5-25.1,48.6-38.8,72.3c-6.7,11.6-13.5,23-20.5,34.4c-3.5,5.7-7.1,11.3-10.7,17
				c-1.8,2.8-3.5,6.2-5.8,8.6c-1.8,1.9-4.2,2.5-6.5,3.6c-7.7,3.8-2.6,10.6,3.7,12.2c4.9,1.2,10.3,1.2,15.3,0.6
				c3.8-0.5,10.2-1.1,12.4-4.9c1.5-2.5,0.2-4.7-1.3-6.8c-1.9-2.6-3.8-3.1-1.1-7.5c0.6-1,1.8-1.8,2.6-2.6c1.9-1.9,3.7-4,5.2-6.1
				c6.6-9.1,10.3-19.8,15.3-29.9c6.2-12.6,15.7-22.7,23.3-34.4c7.5-11.5,13-24.1,16.8-37.3c0.5-1.9-2.4-2.7-2.9-0.8
				c-3.2,11.2-7.7,22-13.7,32c-5.8,9.7-13.2,18.1-19.5,27.5c-5.7,8.5-9.4,17.9-13.8,27.2c-2,4.2-4.1,8.4-6.7,12.2
				c-2.8,4.2-7.2,7.3-9.9,11.5c-1.5,2.4-1.7,4.9-0.2,7.4c0.7,1.2,2.5,2.3,2.9,3.5c1.5,5.2-6.9,5.7-10,6c-2.6,0.3-24.1,0.7-17.4-7
				c0.8-1,3.1-1.2,4.3-1.8c1.8-1,3.1-2.1,4.3-3.7c6.8-8.6,12.2-18.9,17.9-28.2c6.3-10.3,12.5-20.7,18.5-31.1
				c13.7-23.7,26.6-47.8,38.8-72.3C440.1,311,437.5,309.5,436.7,311.3L436.7,311.3z"/>
		</g>
	</g>
	<g class="st1">
		<g>
			<path d="M623,288.8c43,12.1,84.3,28.8,124.2,49c4.9,2.5,9.8,5,14.7,7.5c4.4,2.3,12.1,6.3,8.9,12.5c-1.8,3.4-6.5,4.9-10,5.8
				c-3.5,0.9-5.1,1.5-7.5-2.5c-0.7-1.1-0.4-2-1.3-3.2c-2.6-3.3-8.1-5.1-11.7-7.1c-4.9-2.7-9.9-5.3-14.9-7.8
				c-9.5-4.8-19-9.4-28.7-13.8c-22.3-10.1-45.2-18.9-68.4-26.7c-1.8-0.6-2.6,2.3-0.8,2.9c24.2,8,47.9,17.3,71.1,27.9
				c11.1,5.1,22,10.4,32.8,16.1c5,2.6,11.1,5,15.7,8.4c2.4,1.8,2.8,4,3.9,6.6c0.5,1.1,1.2,2,2.4,2.5c5.4,2.4,15.9-2.1,19.3-6.5
				c4.4-5.7,0.5-11.9-4.8-15.4c-9.9-6.5-21.5-11.2-32.1-16.4c-11.1-5.4-22.3-10.5-33.6-15.4c-25.5-10.8-51.6-19.9-78.3-27.4
				C622,285.3,621.2,288.2,623,288.8L623,288.8z"/>
		</g>
	</g>
	<g class="st1">
		<g>
			<path d="M775.3,369.3c4-2.7,8.5,0,9.9,4.1c1.2,3.3,0.8,7.9-0.9,11c-2.2,4.1-7.9,4.7-10.5,0.5c-2.1-3.5,0-7.7,3.2-9.5
				c1.7-1,0.2-3.6-1.5-2.6c-4.5,2.7-7.2,8.8-4.3,13.6c2.7,4.5,9.2,5.9,13.3,2.5c4.6-3.9,5.5-12.4,3-17.6c-2.4-5.2-8.8-7.9-13.8-4.5
				C772.2,367.8,773.7,370.4,775.3,369.3L775.3,369.3z"/>
		</g>
	</g>
	<g class="st1">
		<g>
			<path d="M743.3,377.3c5.7,2.9,9.7,7.6,11.7,13.7c0.2-0.6,0.5-1.1,0.7-1.7c-17.2,12.7-37.2,21.7-56.1,31.5
				c-20.3,10.5-40.5,21.1-60.8,31.6c0.7,0.2,1.4,0.4,2.1,0.5c-5.8-8.1,4.6-15,10.2-19.1c4.8-3.5,9.6-7,14.6-10.1
				c9.5-5.9,19.8-10.2,30.2-14.4c17.8-7.3,36-14.9,47.8-30.8c1.2-1.6-1.5-3-2.6-1.5c-14.1,19-38,25.6-58.6,34.7
				c-11.6,5.1-22,11.6-32.2,19.1c-7,5.2-19.2,13.8-12,23.7c0.5,0.7,1.3,0.9,2.1,0.5c20.3-10.5,40.5-21.1,60.8-31.6
				c18.9-9.8,38.9-18.8,56.1-31.5c0.5-0.4,0.9-1,0.7-1.7c-2.1-6.8-6.6-12.3-13-15.5C743.1,373.8,741.6,376.4,743.3,377.3
				L743.3,377.3z"/>
		</g>
	</g>
	<g class="st1">
		<g>
			<path d="M760.1,397.9c-29.5,27.8-64.3,49.4-102.4,63.4c-1.8,0.7-1,3.6,0.8,2.9c38.5-14.1,73.8-36,103.7-64.1
				C763.6,398.7,761.5,396.5,760.1,397.9L760.1,397.9z"/>
		</g>
	</g>
	<g class="st1">
		<g>
			<path d="M633.2,465.7c8.2,3.7,4.3,13.3,0.1,18.4c-3.8,4.6-8.4,8.7-13,12.5c-9.8,8-21,14.6-32.9,18.9c-1.4,0.5-3.4,1.4-4.9,1.3
				c-4.2-0.3-4.8-3.3-5.6-6.1c-0.8-3-1.5-6-2-9.1c-0.6-3.4-1.1-7-0.9-10.5c0.3-5.5,3.6-7.4,8.4-9c11.9-4.1,22.9-9.4,33-17
				c0.8-0.6,1-1.6,0.3-2.4c-3.4-3.7-6.8-7.3-10.2-11c-0.5-0.5-3.8-3.5-3.8-4.1c-0.2-3.2,5.5-3.5,7.5-3.4c10.1,0.4,15.7,10,20.1,17.8
				c1,1.7,3.6,0.2,2.6-1.5c-5.5-9.6-13.8-21.8-26.7-18.9c-3.3,0.8-7.9,2.9-6.5,7c0.8,2.3,4.4,5,6,6.7c3,3.2,5.9,6.4,8.9,9.6
				c0.1-0.8,0.2-1.6,0.3-2.4c-7.9,5.9-16.4,10.8-25.6,14.4c-6.1,2.4-14.5,3.2-16.6,10.4c-2.2,7.3,0.5,17.2,2.5,24.2
				c1.7,5.9,4.5,9.5,11.1,7.9c15.5-3.7,30.7-14.4,42.3-25c5.2-4.8,11.9-10.7,13.4-18.1c1-5.2-1.1-10.9-6.1-13.1
				C633,462.4,631.5,465,633.2,465.7L633.2,465.7z"/>
		</g>
	</g>
	<g class="st1">
		<g>
			<path d="M621.6,460.1c-6.3,3.4-11.7,11.2-8.4,18.5c2.6,5.7,9.8,8.7,15.4,5.4c1.7-1,0.2-3.6-1.5-2.6c-4.4,2.6-10.2-0.5-11.5-5.2
				c-1.5-5.7,2.9-11,7.6-13.5C624.9,461.8,623.4,459.2,621.6,460.1L621.6,460.1z"/>
		</g>
	</g>
	<g class="st1">
		<g>
			<path d="M610.7,476.4c-13.1,3.8-25.5,9.4-37,16.7c-1.6,1-0.1,3.6,1.5,2.6c11.3-7.2,23.4-12.7,36.3-16.4
				C613.4,478.8,612.6,475.9,610.7,476.4L610.7,476.4z"/>
		</g>
	</g>
	<g class="st1">
		<g>
			<path d="M611.1,482.1c-14.9,6.7-29.1,14.8-42.4,24.3c-1,0.7-1,2.4,0.4,2.7c1.7,0.5,1.8,0.5,3.5-0.1c1.8-0.7,1-3.6-0.8-2.9
				c-0.6,0-1.3,0.1-1.9,0.1c0.1,0.9,0.2,1.8,0.4,2.7c13.3-9.5,27.4-17.7,42.4-24.3C614.4,483.9,612.9,481.3,611.1,482.1L611.1,482.1
				z"/>
		</g>
	</g>
	<g class="st1">
		<g>
			<path d="M613.8,484.4c-7.9,9.8-18,17.2-29.8,21.6c-1.8,0.7-1,3.6,0.8,2.9c12.3-4.6,22.9-12.2,31.2-22.4
				C617.1,485,615,482.9,613.8,484.4L613.8,484.4z"/>
		</g>
	</g>
	<g class="st1">
		<g>
			<path d="M358.3,468.1c-5-1.8-11.4,0.6-7.3,6.6c4.6,6.6,13.9,8.7,21.3,9.9c2.4,0.4,5.6,1.4,7.3-1c1.5-2.1,0.5-5.5-0.5-7.6
				c-3.1-6.8-10.5-10.3-17.7-9.1c-1.9,0.3-1.1,3.2,0.8,2.9c4.5-0.7,8.9,0.9,12,4.2c1.9,2,3.6,4.3,1.6,6.6c-1.8,2-3.1,1.2-5.6,0.7
				c-3.6-0.7-7.3-1.6-10.7-3.4c-1.5-0.8-3.2-1.7-4.3-2.9c-1.6-1.1-1.9-2.6-0.9-4.7c1.1,0.1,2.1,0.3,3,0.8
				C359.3,471.7,360.1,468.8,358.3,468.1L358.3,468.1z"/>
		</g>
	</g>
	<g class="st1">
		<g>
			<path d="M334.8,467.5c3.9-11.4-0.3-22.9-5.6-33.1c-6.8-13.1-14.6-25.7-22-38.4c-15.1-26.2-30.2-52.4-45.2-78.6
				c-0.8-1.4-2.6-0.6-2.8,0.8c-3.3,26.5,12.2,50.5,24.5,72.7c14.2,25.7,28.3,51.4,42.5,77.1c0.9,1.7,3.5,0.2,2.6-1.5
				c-13.5-24.5-27-49.1-40.6-73.6c-12.5-22.7-29.4-47.5-26-74.6c-0.9,0.3-1.9,0.5-2.8,0.8c14.1,24.5,28.2,49,42.3,73.5
				c6.9,12,13.8,23.9,20.7,35.9c6.6,11.5,14.3,24.8,9.6,38.4C331.3,468.5,334.2,469.3,334.8,467.5L334.8,467.5z"/>
		</g>
	</g>
	<g class="st1">
		<g>
			<path d="M341.2,440.5c-12.4-20.5-22.7-41.8-32-63.9c-4-9.5-8.8-17.6-15.9-25.1c-8.5-8.9-15.3-18.6-19.7-30.2
				c-0.7-1.8-3.6-1-2.9,0.8c3.7,9.7,8.9,18.6,15.8,26.4c3.9,4.5,8.5,8.5,11.9,13.4c3.7,5.3,6.2,11.2,8.7,17.1
				c9,21.8,19.4,42.8,31.6,63C339.6,443.6,342.2,442.1,341.2,440.5L341.2,440.5z"/>
		</g>
	</g>
	<g class="st1">
		<g>
			<path d="M223.1,273.3c5.6-2.7,11.2-5.7,16.9-8.1c2.7-1.1,4.9-2.1,7.7-0.5c1.2,0.7,2.3,1.4,3.4,2.2c2.5,1.8,4.9,3.7,7.1,5.9
				c8.4,8,21.7,24.8,7.9,33.9c-5,3.3-10.9,5.4-16.7,6.8c-5.6,1.4-12.9,3.1-18.7,2.1c-4.4-0.8-4.8-3.4-5.5-7.3
				c-0.6-3.4-1.2-6.7-1.7-10.1c-1-6.9-1.7-13.9-2.2-20.9c-0.1-1.9-3.1-1.9-3,0c0.6,8.8,1.6,17.6,3,26.3c0.8,4.8,0.5,13.5,6.5,14.8
				c7.3,1.6,17-0.5,24.1-2.5c6.9-1.9,15-4.7,19.9-10.2c9.9-11-3.4-27.3-11.5-35.1c-3.8-3.6-10.4-10.4-16.1-10
				c-3.1,0.2-6.3,2.4-9,3.7c-4.5,2.2-9,4.3-13.6,6.5C219.8,271.6,221.4,274.2,223.1,273.3L223.1,273.3z"/>
		</g>
	</g>
	<g class="st1">
		<g>
			<path d="M229.9,283.9c8.5-3,16.6-6.6,24.5-11c1.7-0.9,0.2-3.5-1.5-2.6c-7.6,4.3-15.5,7.8-23.8,10.7
				C227.3,281.6,228.1,284.5,229.9,283.9L229.9,283.9z"/>
		</g>
	</g>
	<g class="st1">
		<g>
			<path d="M246.7,290.8c4-1.6,8.1-3.3,12.1-4.9c1.8-0.7,1-3.6-0.8-2.9c-4,1.6-8.1,3.3-12.1,4.9
				C244.2,288.6,244.9,291.5,246.7,290.8L246.7,290.8z"/>
		</g>
	</g>
	<g class="st1">
		<g>
			<path d="M249.9,305.1c6.6-1.5,12.9-3.6,19-6.3c1.8-0.8,0.2-3.4-1.5-2.6c-5.9,2.6-12,4.6-18.3,6
				C247.3,302.7,248.1,305.5,249.9,305.1L249.9,305.1z"/>
		</g>
	</g>
	<g class="st1">
		<g>
			<path d="M277.1,266.8c-2.2,0.3-4.2-1.4-6.5-0.8c-1.9,0.5-3,2.2-3.4,4.1c-0.7,4.1,2.3,8.2,6,9.7c3.7,1.4,7.8,0,9.4-3.7
				c1.4-3.2,0.8-7.1-2.3-9c-1.6-1.1-3.1,1.5-1.5,2.6c1.8,1.2,1.9,3.6,1,5.4c-1.1,2.4-3.7,2.9-6,1.8c-2.2-1-4.4-3.9-3.7-6.5
				c0.8-2.9,4.8-0.3,6.9-0.6C279,269.6,279,266.6,277.1,266.8L277.1,266.8z"/>
		</g>
	</g>
	<line class="st2" x1="242.5" y1="89" x2="242.5" y2="781"/>
</g>
<g id="Layer_1">
	<g>
		<g id="XMLID_1_">
			<g>
				<rect x="430.2" y="553" class="st3" width="20.5" height="20.5"/>
				<rect x="450.7" y="573.5" class="st3" width="20.5" height="20.5"/>
				<rect x="593.9" y="573.5" class="st3" width="20.5" height="20.5"/>
				<rect x="614.4" y="553" class="st3" width="20.5" height="20.5"/>
				<rect x="573.5" y="819" class="st4" width="20.5" height="20.5"/>
				<rect x="430.2" y="798.6" class="st4" width="20.5" height="20.5"/>
				<rect x="491.6" y="778.1" class="st4" width="20.5" height="20.5"/>
				<rect x="471.2" y="778.1" class="st4" width="20.5" height="20.5"/>
				<rect x="634.9" y="798.6" class="st4" width="20.5" height="20.5"/>
				<rect x="614.4" y="798.6" class="st4" width="20.5" height="20.5"/>
				<rect x="512.1" y="143.7" class="st4" width="20.5" height="20.5"/>
				<rect x="512.1" y="123.3" class="st3" width="20.5" height="20.5"/>
				<rect x="532.5" y="184.7" class="st3" width="20.5" height="20.5"/>
				<rect x="532.5" y="164.2" class="st3" width="20.5" height="20.5"/>
				<rect x="512.1" y="164.2" class="st4" width="20.5" height="20.5"/>
				<rect x="471.2" y="205.1" class="st4" width="20.5" height="20.5"/>
				<rect x="491.6" y="205.1" class="st3" width="20.5" height="20.5"/>
				<rect x="491.6" y="225.6" class="st4" width="20.5" height="20.5"/>
				<rect x="491.6" y="164.2" class="st3" width="20.5" height="20.5"/>
				<rect x="471.2" y="184.7" class="st3" width="20.5" height="20.5"/>
				<rect x="491.6" y="184.7" class="st3" width="20.5" height="20.5"/>
				<rect x="450.7" y="205.1" class="st4" width="20.5" height="20.5"/>
				<rect x="450.7" y="184.7" class="st3" width="20.5" height="20.5"/>
				<rect x="430.2" y="164.2" class="st3" width="20.5" height="20.5"/>
				<rect x="430.2" y="184.7" class="st4" width="20.5" height="20.5"/>
				<rect x="593.9" y="82.3" class="st3" width="20.5" height="20.5"/>
				<rect x="593.9" y="102.8" class="st3" width="20.5" height="20.5"/>
				<rect x="553" y="82.3" class="st3" width="20.5" height="20.5"/>
				<rect x="553" y="61.9" class="st3" width="20.5" height="20.5"/>
				<rect x="573.5" y="82.3" class="st3" width="20.5" height="20.5"/>
				<rect x="573.5" y="61.9" class="st3" width="20.5" height="20.5"/>
				<rect x="614.4" y="123.3" class="st3" width="20.5" height="20.5"/>
				<rect x="614.4" y="143.7" class="st3" width="20.5" height="20.5"/>
				<rect x="614.4" y="102.8" class="st4" width="20.5" height="20.5"/>
				<rect x="614.4" y="82.3" class="st3" width="20.5" height="20.5"/>
				<rect x="634.9" y="102.8" class="st3" width="20.5" height="20.5"/>
				<rect x="532.5" y="102.8" class="st3" width="20.5" height="20.5"/>
				<rect x="512.1" y="82.3" class="st4" width="20.5" height="20.5"/>
				<rect x="512.1" y="61.9" class="st3" width="20.5" height="20.5"/>
				<rect x="532.5" y="82.3" class="st3" width="20.5" height="20.5"/>
				<rect x="532.5" y="61.9" class="st3" width="20.5" height="20.5"/>
				<rect x="512.1" y="102.8" class="st3" width="20.5" height="20.5"/>
				<rect x="471.2" y="61.9" class="st3" width="20.5" height="20.5"/>
				<rect x="471.2" y="82.3" class="st3" width="20.5" height="20.5"/>
				<rect x="491.6" y="61.9" class="st3" width="20.5" height="20.5"/>
				<rect x="491.6" y="82.3" class="st3" width="20.5" height="20.5"/>
				<rect x="491.6" y="102.8" class="st3" width="20.5" height="20.5"/>
				<rect x="450.7" y="82.3" class="st3" width="20.5" height="20.5"/>
				<rect x="409.8" y="123.3" class="st3" width="20.5" height="20.5"/>
				<rect x="409.8" y="143.7" class="st4" width="20.5" height="20.5"/>
				<rect x="409.8" y="102.8" class="st3" width="20.5" height="20.5"/>
				<rect x="430.2" y="102.8" class="st3" width="20.5" height="20.5"/>
				<rect x="430.2" y="82.3" class="st3" width="20.5" height="20.5"/>
				<rect x="593.9" y="164.2" class="st3" width="20.5" height="20.5"/>
				<rect x="573.5" y="184.7" class="st3" width="20.5" height="20.5"/>
				<rect x="553" y="184.7" class="st3" width="20.5" height="20.5"/>
				<rect x="532.5" y="205.1" class="st3" width="20.5" height="20.5"/>
				<rect x="512.1" y="266.5" class="st3" width="20.5" height="20.5"/>
				<rect x="512.1" y="225.6" class="st3" width="20.5" height="20.5"/>
				<rect x="512.1" y="246.1" class="st3" width="20.5" height="20.5"/>
				<rect x="246.1" y="266.5" class="st3" width="20.5" height="20.5"/>
				<rect x="225.6" y="266.5" class="st3" width="20.5" height="20.5"/>
				<rect x="225.6" y="287" class="st3" width="20.5" height="20.5"/>
				<rect x="246.1" y="307.5" class="st3" width="20.5" height="20.5"/>
				<rect x="266.5" y="287" class="st3" width="20.5" height="20.5"/>
				<rect x="287" y="307.5" class="st3" width="20.5" height="20.5"/>
				<rect x="266.5" y="266.5" class="st4" width="20.5" height="20.5"/>
				<rect x="225.6" y="307.5" class="st4" width="20.5" height="20.5"/>
				<rect x="287" y="287" class="st4" width="20.5" height="20.5"/>
				<rect x="246.1" y="287" class="st4" width="20.5" height="20.5"/>
				<rect x="266.5" y="307.5" class="st4" width="20.5" height="20.5"/>
				<rect x="266.5" y="327.9" class="st4" width="20.5" height="20.5"/>
				<rect x="246.1" y="327.9" class="st4" width="20.5" height="20.5"/>
				<rect x="553" y="491.6" class="st3" width="20.5" height="20.5"/>
				<rect x="532.5" y="491.6" class="st4" width="20.5" height="20.5"/>
				<rect x="491.6" y="491.6" class="st3" width="20.5" height="20.5"/>
				<rect x="491.6" y="512.1" class="st3" width="20.5" height="20.5"/>
				<rect x="512.1" y="491.6" class="st4" width="20.5" height="20.5"/>
				<rect x="593.9" y="512.1" class="st3" width="20.5" height="20.5"/>
				<rect x="634.9" y="491.6" class="st3" width="20.5" height="20.5"/>
				<rect x="614.4" y="491.6" class="st3" width="20.5" height="20.5"/>
				<rect x="614.4" y="512.1" class="st3" width="20.5" height="20.5"/>
				<rect x="634.9" y="307.5" class="st3" width="20.5" height="20.5"/>
				<rect x="634.9" y="287" class="st3" width="20.5" height="20.5"/>
				<rect x="614.4" y="287" class="st3" width="20.5" height="20.5"/>
				<rect x="593.9" y="348.4" class="st3" width="20.5" height="20.5"/>
				<rect x="573.5" y="348.4" class="st3" width="20.5" height="20.5"/>
				<rect x="614.4" y="327.9" class="st3" width="20.5" height="20.5"/>
				<rect x="593.9" y="307.5" class="st3" width="20.5" height="20.5"/>
				<rect x="553" y="327.9" class="st3" width="20.5" height="20.5"/>
				<rect x="532.5" y="348.4" class="st3" width="20.5" height="20.5"/>
				<rect x="512.1" y="348.4" class="st3" width="20.5" height="20.5"/>
				<rect x="491.6" y="327.9" class="st3" width="20.5" height="20.5"/>
				<rect x="471.2" y="307.5" class="st3" width="20.5" height="20.5"/>
				<rect x="450.7" y="327.9" class="st3" width="20.5" height="20.5"/>
				<rect x="471.2" y="348.4" class="st3" width="20.5" height="20.5"/>
				<rect x="471.2" y="389.3" class="st3" width="20.5" height="20.5"/>
				<rect x="471.2" y="430.2" class="st3" width="20.5" height="20.5"/>
				<rect x="593.9" y="430.2" class="st3" width="20.5" height="20.5"/>
				<rect x="573.5" y="430.2" class="st3" width="20.5" height="20.5"/>
				<rect x="593.9" y="389.3" class="st3" width="20.5" height="20.5"/>
				<rect x="573.5" y="389.3" class="st3" width="20.5" height="20.5"/>
				<rect x="491.6" y="307.5" class="st3" width="20.5" height="20.5"/>
				<rect x="573.5" y="307.5" class="st3" width="20.5" height="20.5"/>
				<rect x="553" y="307.5" class="st3" width="20.5" height="20.5"/>
				<rect x="532.5" y="327.9" class="st3" width="20.5" height="20.5"/>
				<rect x="512.1" y="327.9" class="st3" width="20.5" height="20.5"/>
				<rect x="532.5" y="389.3" class="st3" width="20.5" height="20.5"/>
				<rect x="512.1" y="389.3" class="st3" width="20.5" height="20.5"/>
				<rect x="532.5" y="430.2" class="st3" width="20.5" height="20.5"/>
				<rect x="512.1" y="430.2" class="st3" width="20.5" height="20.5"/>
				<rect x="532.5" y="471.2" class="st4" width="20.5" height="20.5"/>
				<rect x="512.1" y="471.2" class="st4" width="20.5" height="20.5"/>
				<rect x="553" y="512.1" class="st3" width="20.5" height="20.5"/>
				<rect x="532.5" y="532.5" class="st3" width="20.5" height="20.5"/>
				<rect x="512.1" y="532.5" class="st3" width="20.5" height="20.5"/>
				<rect x="491.6" y="532.5" class="st3" width="20.5" height="20.5"/>
				<rect x="471.2" y="532.5" class="st3" width="20.5" height="20.5"/>
				<rect x="471.2" y="512.1" class="st3" width="20.5" height="20.5"/>
				<rect x="450.7" y="512.1" class="st3" width="20.5" height="20.5"/>
				<rect x="450.7" y="532.5" class="st4" width="20.5" height="20.5"/>
				<rect x="430.2" y="573.5" class="st4" width="20.5" height="20.5"/>
				<rect x="614.4" y="573.5" class="st4" width="20.5" height="20.5"/>
				<rect x="655.3" y="491.6" class="st4" width="20.5" height="20.5"/>
				<rect x="634.9" y="512.1" class="st4" width="20.5" height="20.5"/>
				<rect x="573.5" y="553" class="st4" width="20.5" height="20.5"/>
				<rect x="573.5" y="532.5" class="st4" width="20.5" height="20.5"/>
				<rect x="553" y="553" class="st4" width="20.5" height="20.5"/>
				<rect x="553" y="532.5" class="st4" width="20.5" height="20.5"/>
				<rect x="532.5" y="553" class="st4" width="20.5" height="20.5"/>
				<rect x="491.6" y="553" class="st4" width="20.5" height="20.5"/>
				<rect x="512.1" y="553" class="st4" width="20.5" height="20.5"/>
				<rect x="471.2" y="553" class="st4" width="20.5" height="20.5"/>
				<rect x="450.7" y="430.2" class="st4" width="20.5" height="20.5"/>
				<rect x="614.4" y="430.2" class="st4" width="20.5" height="20.5"/>
				<rect x="450.7" y="389.3" class="st4" width="20.5" height="20.5"/>
				<rect x="614.4" y="389.3" class="st4" width="20.5" height="20.5"/>
				<rect x="450.7" y="348.4" class="st4" width="20.5" height="20.5"/>
				<rect x="614.4" y="348.4" class="st4" width="20.5" height="20.5"/>
				<rect x="778.1" y="368.8" class="st5" width="20.5" height="20.5"/>
				<rect x="778.1" y="348.4" class="st4" width="20.5" height="20.5"/>
				<rect x="757.7" y="389.3" class="st5" width="20.5" height="20.5"/>
				<rect x="757.7" y="348.4" class="st4" width="20.5" height="20.5"/>
				<rect x="737.2" y="409.8" class="st5" width="20.5" height="20.5"/>
				<rect x="737.2" y="348.4" class="st5" width="20.5" height="20.5"/>
				<rect x="716.7" y="430.2" class="st5" width="20.5" height="20.5"/>
				<rect x="716.7" y="327.9" class="st5" width="20.5" height="20.5"/>
				<rect x="696.3" y="450.7" class="st5" width="20.5" height="20.5"/>
				<rect x="696.3" y="327.9" class="st5" width="20.5" height="20.5"/>
				<rect x="675.8" y="491.6" class="st5" width="20.5" height="20.5"/>
				<rect x="675.8" y="450.7" class="st5" width="20.5" height="20.5"/>
				<rect x="675.8" y="307.5" class="st4" width="20.5" height="20.5"/>
				<rect x="655.3" y="819" class="st5" width="20.5" height="20.5"/>
				<rect x="655.3" y="798.6" class="st5" width="20.5" height="20.5"/>
				<rect x="655.3" y="512.1" class="st5" width="20.5" height="20.5"/>
				<rect x="655.3" y="471.2" class="st5" width="20.5" height="20.5"/>
				<rect x="655.3" y="307.5" class="st5" width="20.5" height="20.5"/>
				<rect x="655.3" y="287" class="st5" width="20.5" height="20.5"/>
				<rect x="655.3" y="143.7" class="st5" width="20.5" height="20.5"/>
				<rect x="655.3" y="123.3" class="st5" width="20.5" height="20.5"/>
				<rect x="655.3" y="102.8" class="st4" width="20.5" height="20.5"/>
				<rect x="634.9" y="819" class="st5" width="20.5" height="20.5"/>
				<rect x="634.9" y="778.1" class="st5" width="20.5" height="20.5"/>
				<rect x="634.9" y="573.5" class="st5" width="20.5" height="20.5"/>
				<rect x="634.9" y="553" class="st5" width="20.5" height="20.5"/>
				<rect x="634.9" y="532.5" class="st4" width="20.5" height="20.5"/>
				<rect x="634.9" y="471.2" class="st4" width="20.5" height="20.5"/>
				<rect x="634.9" y="430.2" class="st5" width="20.5" height="20.5"/>
				<rect x="634.9" y="389.3" class="st5" width="20.5" height="20.5"/>
				<rect x="634.9" y="348.4" class="st5" width="20.5" height="20.5"/>
				<rect x="634.9" y="327.9" class="st5" width="20.5" height="20.5"/>
				<rect x="634.9" y="266.5" class="st4" width="20.5" height="20.5"/>
				<rect x="634.9" y="184.7" class="st5" width="20.5" height="20.5"/>
				<rect x="634.9" y="164.2" class="st5" width="20.5" height="20.5"/>
				<rect x="634.9" y="143.7" class="st4" width="20.5" height="20.5"/>
				<rect x="634.9" y="123.3" class="st4" width="20.5" height="20.5"/>
				<rect x="634.9" y="82.3" class="st5" width="20.5" height="20.5"/>
				<rect x="614.4" y="819" class="st4" width="20.5" height="20.5"/>
				<rect x="614.4" y="757.7" class="st5" width="20.5" height="20.5"/>
				<rect x="614.4" y="737.2" class="st5" width="20.5" height="20.5"/>
				<rect x="614.4" y="614.4" class="st5" width="20.5" height="20.5"/>
				<rect x="614.4" y="593.9" class="st5" width="20.5" height="20.5"/>
				<rect x="614.4" y="532.5" class="st4" width="20.5" height="20.5"/>
				<rect x="614.4" y="471.2" class="st4" width="20.5" height="20.5"/>
				<rect x="614.4" y="450.7" class="st5" width="20.5" height="20.5"/>
				<rect x="614.4" y="409.8" class="st5" width="20.5" height="20.5"/>
				<rect x="614.4" y="368.8" class="st5" width="20.5" height="20.5"/>
				<rect x="614.4" y="307.5" class="st5" width="20.5" height="20.5"/>
				<rect x="614.4" y="266.5" class="st5" width="20.5" height="20.5"/>
				<rect x="614.4" y="205.1" class="st5" width="20.5" height="20.5"/>
				<rect x="614.4" y="184.7" class="st4" width="20.5" height="20.5"/>
				<rect x="614.4" y="164.2" class="st4" width="20.5" height="20.5"/>
				<rect x="614.4" y="61.9" class="st4" width="20.5" height="20.5"/>
				<rect x="593.9" y="819" class="st4" width="20.5" height="20.5"/>
				<rect x="593.9" y="716.7" class="st5" width="20.5" height="20.5"/>
				<rect x="593.9" y="696.3" class="st5" width="20.5" height="20.5"/>
				<rect x="593.9" y="675.8" class="st5" width="20.5" height="20.5"/>
				<rect x="593.9" y="655.3" class="st5" width="20.5" height="20.5"/>
				<rect x="593.9" y="634.9" class="st4" width="20.5" height="20.5"/>
				<rect x="593.9" y="614.4" class="st4" width="20.5" height="20.5"/>
				<rect x="593.9" y="593.9" class="st4" width="20.5" height="20.5"/>
				<rect x="593.9" y="553" class="st5" width="20.5" height="20.5"/>
				<rect x="593.9" y="532.5" class="st5" width="20.5" height="20.5"/>
				<rect x="593.9" y="491.6" class="st4" width="20.5" height="20.5"/>
				<rect x="593.9" y="450.7" class="st4" width="20.5" height="20.5"/>
				<rect x="593.9" y="409.8" class="st4" width="20.5" height="20.5"/>
				<rect x="593.9" y="368.8" class="st5" width="20.5" height="20.5"/>
				<rect x="593.9" y="327.9" class="st4" width="20.5" height="20.5"/>
				<rect x="593.9" y="287" class="st4" width="20.5" height="20.5"/>
				<rect x="593.9" y="225.6" class="st5" width="20.5" height="20.5"/>
				<rect x="593.9" y="205.1" class="st4" width="20.5" height="20.5"/>
				<rect x="593.9" y="184.7" class="st4" width="20.5" height="20.5"/>
				<rect x="593.9" y="143.7" class="st5" width="20.5" height="20.5"/>
				<rect x="593.9" y="123.3" class="st5" width="20.5" height="20.5"/>
				<rect x="593.9" y="61.9" class="st5" width="20.5" height="20.5"/>
				<rect x="573.5" y="696.3" class="st4" width="20.5" height="20.5"/>
				<rect x="573.5" y="573.5" class="st5" width="20.5" height="20.5"/>
				<rect x="573.5" y="512.1" class="st4" width="20.5" height="20.5"/>
				<rect x="573.5" y="491.6" class="st5" width="20.5" height="20.5"/>
				<rect x="573.5" y="450.7" class="st4" width="20.5" height="20.5"/>
				<rect x="573.5" y="409.8" class="st4" width="20.5" height="20.5"/>
				<rect x="573.5" y="368.8" class="st5" width="20.5" height="20.5"/>
				<rect x="573.5" y="327.9" class="st4" width="20.5" height="20.5"/>
				<rect x="573.5" y="287" class="st5" width="20.5" height="20.5"/>
				<rect x="573.5" y="225.6" class="st5" width="20.5" height="20.5"/>
				<rect x="573.5" y="205.1" class="st4" width="20.5" height="20.5"/>
				<rect x="573.5" y="164.2" class="st5" width="20.5" height="20.5"/>
				<rect x="573.5" y="143.7" class="st5" width="20.5" height="20.5"/>
				<rect x="573.5" y="123.3" class="st5" width="20.5" height="20.5"/>
				<rect x="573.5" y="102.8" class="st5" width="20.5" height="20.5"/>
				<rect x="573.5" y="41.4" class="st4" width="20.5" height="20.5"/>
				<rect x="553" y="573.5" class="st4" width="20.5" height="20.5"/>
				<rect x="553" y="471.2" class="st5" width="20.5" height="20.5"/>
				<rect x="553" y="430.2" class="st5" width="20.5" height="20.5"/>
				<rect x="553" y="389.3" class="st5" width="20.5" height="20.5"/>
				<rect x="553" y="348.4" class="st4" width="20.5" height="20.5"/>
				<rect x="553" y="287" class="st5" width="20.5" height="20.5"/>
				<rect x="553" y="266.5" class="st5" width="20.5" height="20.5"/>
				<rect x="553" y="246.1" class="st5" width="20.5" height="20.5"/>
				<rect x="553" y="225.6" class="st4" width="20.5" height="20.5"/>
				<rect x="553" y="205.1" class="st4" width="20.5" height="20.5"/>
				<rect x="553" y="164.2" class="st5" width="20.5" height="20.5"/>
				<rect x="553" y="143.7" class="st5" width="20.5" height="20.5"/>
				<rect x="553" y="123.3" class="st5" width="20.5" height="20.5"/>
				<rect x="553" y="102.8" class="st5" width="20.5" height="20.5"/>
				<rect x="553" y="41.4" class="st5" width="20.5" height="20.5"/>
				<rect x="532.5" y="573.5" class="st4" width="20.5" height="20.5"/>
				<rect x="532.5" y="512.1" class="st5" width="20.5" height="20.5"/>
				<rect x="532.5" y="450.7" class="st5" width="20.5" height="20.5"/>
				<rect x="532.5" y="409.8" class="st5" width="20.5" height="20.5"/>
				<rect x="532.5" y="368.8" class="st5" width="20.5" height="20.5"/>
				<rect x="532.5" y="307.5" class="st5" width="20.5" height="20.5"/>
				<rect x="532.5" y="287" class="st4" width="20.5" height="20.5"/>
				<rect x="532.5" y="266.5" class="st4" width="20.5" height="20.5"/>
				<rect x="532.5" y="246.1" class="st4" width="20.5" height="20.5"/>
				<rect x="532.5" y="225.6" class="st4" width="20.5" height="20.5"/>
				<rect x="532.5" y="143.7" class="st5" width="20.5" height="20.5"/>
				<rect x="532.5" y="123.3" class="st5" width="20.5" height="20.5"/>
				<rect x="532.5" y="41.4" class="st5" width="20.5" height="20.5"/>
				<rect x="512.1" y="798.6" class="st5" width="20.5" height="20.5"/>
				<rect x="512.1" y="778.1" class="st5" width="20.5" height="20.5"/>
				<rect x="512.1" y="573.5" class="st5" width="20.5" height="20.5"/>
				<rect x="512.1" y="512.1" class="st5" width="20.5" height="20.5"/>
				<rect x="512.1" y="450.7" class="st5" width="20.5" height="20.5"/>
				<rect x="512.1" y="409.8" class="st5" width="20.5" height="20.5"/>
				<rect x="512.1" y="368.8" class="st5" width="20.5" height="20.5"/>
				<rect x="512.1" y="307.5" class="st5" width="20.5" height="20.5"/>
				<rect x="512.1" y="287" class="st4" width="20.5" height="20.5"/>
				<rect x="512.1" y="205.1" class="st5" width="20.5" height="20.5"/>
				<rect x="512.1" y="184.7" class="st5" width="20.5" height="20.5"/>
				<rect x="512.1" y="41.4" class="st5" width="20.5" height="20.5"/>
				<rect x="491.6" y="798.6" class="st5" width="20.5" height="20.5"/>
				<rect x="491.6" y="757.7" class="st5" width="20.5" height="20.5"/>
				<rect x="491.6" y="573.5" class="st5" width="20.5" height="20.5"/>
				<rect x="491.6" y="471.2" class="st5" width="20.5" height="20.5"/>
				<rect x="491.6" y="430.2" class="st5" width="20.5" height="20.5"/>
				<rect x="491.6" y="389.3" class="st5" width="20.5" height="20.5"/>
				<rect x="491.6" y="348.4" class="st4" width="20.5" height="20.5"/>
				<rect x="491.6" y="287" class="st5" width="20.5" height="20.5"/>
				<rect x="491.6" y="266.5" class="st5" width="20.5" height="20.5"/>
				<rect x="491.6" y="246.1" class="st5" width="20.5" height="20.5"/>
				<rect x="491.6" y="143.7" class="st5" width="20.5" height="20.5"/>
				<rect x="491.6" y="123.3" class="st5" width="20.5" height="20.5"/>
				<rect x="491.6" y="41.4" class="st5" width="20.5" height="20.5"/>
				<rect x="471.2" y="798.6" class="st4" width="20.5" height="20.5"/>
				<rect x="471.2" y="737.2" class="st5" width="20.5" height="20.5"/>
				<rect x="471.2" y="716.7" class="st5" width="20.5" height="20.5"/>
				<rect x="471.2" y="573.5" class="st5" width="20.5" height="20.5"/>
				<rect x="471.2" y="491.6" class="st5" width="20.5" height="20.5"/>
				<rect x="471.2" y="450.7" class="st4" width="20.5" height="20.5"/>
				<rect x="471.2" y="409.8" class="st4" width="20.5" height="20.5"/>
				<rect x="471.2" y="368.8" class="st5" width="20.5" height="20.5"/>
				<rect x="471.2" y="327.9" class="st4" width="20.5" height="20.5"/>
				<rect x="471.2" y="287" class="st4" width="20.5" height="20.5"/>
				<rect x="471.2" y="225.6" class="st5" width="20.5" height="20.5"/>
				<rect x="471.2" y="164.2" class="st5" width="20.5" height="20.5"/>
				<rect x="471.2" y="143.7" class="st5" width="20.5" height="20.5"/>
				<rect x="471.2" y="123.3" class="st5" width="20.5" height="20.5"/>
				<rect x="471.2" y="102.8" class="st5" width="20.5" height="20.5"/>
				<rect x="471.2" y="41.4" class="st4" width="20.5" height="20.5"/>
				<rect x="450.7" y="798.6" class="st4" width="20.5" height="20.5"/>
				<rect x="450.7" y="696.3" class="st5" width="20.5" height="20.5"/>
				<rect x="450.7" y="675.8" class="st5" width="20.5" height="20.5"/>
				<rect x="450.7" y="655.3" class="st5" width="20.5" height="20.5"/>
				<rect x="450.7" y="634.9" class="st5" width="20.5" height="20.5"/>
				<rect x="450.7" y="614.4" class="st5" width="20.5" height="20.5"/>
				<rect x="450.7" y="593.9" class="st5" width="20.5" height="20.5"/>
				<rect x="450.7" y="553" class="st5" width="20.5" height="20.5"/>
				<rect x="450.7" y="491.6" class="st4" width="20.5" height="20.5"/>
				<rect x="450.7" y="450.7" class="st5" width="20.5" height="20.5"/>
				<rect x="450.7" y="409.8" class="st5" width="20.5" height="20.5"/>
				<rect x="450.7" y="368.8" class="st5" width="20.5" height="20.5"/>
				<rect x="450.7" y="307.5" class="st5" width="20.5" height="20.5"/>
				<rect x="450.7" y="225.6" class="st5" width="20.5" height="20.5"/>
				<rect x="450.7" y="164.2" class="st5" width="20.5" height="20.5"/>
				<rect x="450.7" y="143.7" class="st5" width="20.5" height="20.5"/>
				<rect x="450.7" y="123.3" class="st5" width="20.5" height="20.5"/>
				<rect x="450.7" y="102.8" class="st5" width="20.5" height="20.5"/>
				<rect x="450.7" y="61.9" class="st5" width="20.5" height="20.5"/>
				<rect x="430.2" y="675.8" class="st4" width="20.5" height="20.5"/>
				<rect x="430.2" y="614.4" class="st4" width="20.5" height="20.5"/>
				<rect x="430.2" y="593.9" class="st4" width="20.5" height="20.5"/>
				<rect x="430.2" y="532.5" class="st5" width="20.5" height="20.5"/>
				<rect x="430.2" y="512.1" class="st4" width="20.5" height="20.5"/>
				<rect x="430.2" y="430.2" class="st5" width="20.5" height="20.5"/>
				<rect x="430.2" y="389.3" class="st5" width="20.5" height="20.5"/>
				<rect x="430.2" y="348.4" class="st5" width="20.5" height="20.5"/>
				<rect x="430.2" y="327.9" class="st4" width="20.5" height="20.5"/>
				<rect x="430.2" y="205.1" class="st5" width="20.5" height="20.5"/>
				<rect x="430.2" y="143.7" class="st5" width="20.5" height="20.5"/>
				<rect x="430.2" y="123.3" class="st5" width="20.5" height="20.5"/>
				<rect x="430.2" y="61.9" class="st4" width="20.5" height="20.5"/>
				<rect x="409.8" y="573.5" class="st5" width="20.5" height="20.5"/>
				<rect x="409.8" y="553" class="st5" width="20.5" height="20.5"/>
				<rect x="409.8" y="368.8" class="st5" width="20.5" height="20.5"/>
				<rect x="409.8" y="184.7" class="st5" width="20.5" height="20.5"/>
				<rect x="409.8" y="164.2" class="st5" width="20.5" height="20.5"/>
				<rect x="409.8" y="82.3" class="st5" width="20.5" height="20.5"/>
				<rect x="389.3" y="389.3" class="st5" width="20.5" height="20.5"/>
				<rect x="389.3" y="143.7" class="st5" width="20.5" height="20.5"/>
				<rect x="389.3" y="123.3" class="st5" width="20.5" height="20.5"/>
				<rect x="389.3" y="102.8" class="st4" width="20.5" height="20.5"/>
				<rect x="368.8" y="450.7" class="st5" width="20.5" height="20.5"/>
				<rect x="368.8" y="430.2" class="st5" width="20.5" height="20.5"/>
				<rect x="368.8" y="409.8" class="st4" width="20.5" height="20.5"/>
				<rect x="348.4" y="450.7" class="st5" width="20.5" height="20.5"/>
				<rect x="348.4" y="430.2" class="st4" width="20.5" height="20.5"/>
				<rect x="327.9" y="409.8" class="st5" width="20.5" height="20.5"/>
				<rect x="307.5" y="389.3" class="st5" width="20.5" height="20.5"/>
				<rect x="307.5" y="307.5" class="st5" width="20.5" height="20.5"/>
				<rect x="307.5" y="287" class="st4" width="20.5" height="20.5"/>
				<rect x="287" y="368.8" class="st5" width="20.5" height="20.5"/>
				<rect x="287" y="348.4" class="st5" width="20.5" height="20.5"/>
				<rect x="287" y="327.9" class="st4" width="20.5" height="20.5"/>
				<rect x="287" y="266.5" class="st5" width="20.5" height="20.5"/>
				<rect x="266.5" y="348.4" class="st5" width="20.5" height="20.5"/>
				<rect x="266.5" y="246.1" class="st5" width="20.5" height="20.5"/>
				<rect x="266.5" y="143.7" class="st5" width="20.5" height="20.5"/>
				<rect x="246.1" y="716.7" class="st5" width="20.5" height="20.5"/>
				<rect x="246.1" y="696.3" class="st5" width="20.5" height="20.5"/>
				<rect x="246.1" y="675.8" class="st5" width="20.5" height="20.5"/>
				<rect x="246.1" y="655.3" class="st5" width="20.5" height="20.5"/>
				<rect x="246.1" y="634.9" class="st5" width="20.5" height="20.5"/>
				<rect x="246.1" y="614.4" class="st5" width="20.5" height="20.5"/>
				<rect x="246.1" y="593.9" class="st5" width="20.5" height="20.5"/>
				<rect x="246.1" y="573.5" class="st5" width="20.5" height="20.5"/>
				<rect x="246.1" y="553" class="st5" width="20.5" height="20.5"/>
				<rect x="246.1" y="532.5" class="st5" width="20.5" height="20.5"/>
				<rect x="246.1" y="512.1" class="st5" width="20.5" height="20.5"/>
				<rect x="246.1" y="491.6" class="st5" width="20.5" height="20.5"/>
				<rect x="246.1" y="471.2" class="st5" width="20.5" height="20.5"/>
				<rect x="246.1" y="450.7" class="st5" width="20.5" height="20.5"/>
				<rect x="246.1" y="430.2" class="st5" width="20.5" height="20.5"/>
				<rect x="246.1" y="409.8" class="st5" width="20.5" height="20.5"/>
				<rect x="246.1" y="389.3" class="st5" width="20.5" height="20.5"/>
				<rect x="246.1" y="368.8" class="st5" width="20.5" height="20.5"/>
				<rect x="246.1" y="348.4" class="st4" width="20.5" height="20.5"/>
				<rect x="246.1" y="246.1" class="st4" width="20.5" height="20.5"/>
				<rect x="246.1" y="225.6" class="st5" width="20.5" height="20.5"/>
				<rect x="246.1" y="205.1" class="st5" width="20.5" height="20.5"/>
				<rect x="246.1" y="184.7" class="st5" width="20.5" height="20.5"/>
				<rect x="246.1" y="164.2" class="st5" width="20.5" height="20.5"/>
				<rect x="246.1" y="143.7" class="st5" width="20.5" height="20.5"/>
				<rect x="246.1" y="123.3" class="st5" width="20.5" height="20.5"/>
				<rect x="246.1" y="102.8" class="st5" width="20.5" height="20.5"/>
				<rect x="225.6" y="778.1" class="st5" width="20.5" height="20.5"/>
				<rect x="225.6" y="757.7" class="st5" width="20.5" height="20.5"/>
				<rect x="225.6" y="737.2" class="st5" width="20.5" height="20.5"/>
				<rect x="225.6" y="716.7" class="st5" width="20.5" height="20.5"/>
				<rect x="225.6" y="696.3" class="st5" width="20.5" height="20.5"/>
				<rect x="225.6" y="675.8" class="st5" width="20.5" height="20.5"/>
				<rect x="225.6" y="655.3" class="st5" width="20.5" height="20.5"/>
				<rect x="225.6" y="634.9" class="st5" width="20.5" height="20.5"/>
				<rect x="225.6" y="614.4" class="st5" width="20.5" height="20.5"/>
				<rect x="225.6" y="593.9" class="st5" width="20.5" height="20.5"/>
				<rect x="225.6" y="573.5" class="st5" width="20.5" height="20.5"/>
				<rect x="225.6" y="553" class="st5" width="20.5" height="20.5"/>
				<rect x="225.6" y="532.5" class="st5" width="20.5" height="20.5"/>
				<rect x="225.6" y="512.1" class="st5" width="20.5" height="20.5"/>
				<rect x="225.6" y="491.6" class="st5" width="20.5" height="20.5"/>
				<rect x="225.6" y="471.2" class="st5" width="20.5" height="20.5"/>
				<rect x="225.6" y="450.7" class="st5" width="20.5" height="20.5"/>
				<rect x="225.6" y="430.2" class="st5" width="20.5" height="20.5"/>
				<rect x="225.6" y="409.8" class="st5" width="20.5" height="20.5"/>
				<rect x="225.6" y="389.3" class="st5" width="20.5" height="20.5"/>
				<rect x="225.6" y="368.8" class="st5" width="20.5" height="20.5"/>
				<rect x="225.6" y="348.4" class="st5" width="20.5" height="20.5"/>
				<rect x="225.6" y="327.9" class="st4" width="20.5" height="20.5"/>
				<rect x="225.6" y="246.1" class="st4" width="20.5" height="20.5"/>
				<rect x="225.6" y="225.6" class="st5" width="20.5" height="20.5"/>
				<rect x="225.6" y="205.1" class="st5" width="20.5" height="20.5"/>
				<rect x="225.6" y="184.7" class="st5" width="20.5" height="20.5"/>
				<rect x="225.6" y="164.2" class="st5" width="20.5" height="20.5"/>
				<rect x="225.6" y="143.7" class="st5" width="20.5" height="20.5"/>
				<rect x="225.6" y="123.3" class="st5" width="20.5" height="20.5"/>
				<rect x="225.6" y="102.8" class="st5" width="20.5" height="20.5"/>
				<rect x="225.6" y="82.3" class="st5" width="20.5" height="20.5"/>
				<rect x="225.6" y="61.9" class="st5" width="20.5" height="20.5"/>
				<rect x="225.6" y="41.4" class="st5" width="20.5" height="20.5"/>
				<rect x="225.6" y="21" class="st5" width="20.5" height="20.5"/>
				<rect x="205.1" y="307.5" class="st5" width="20.5" height="20.5"/>
				<rect x="205.1" y="287" class="st4" width="20.5" height="20.5"/>
				<rect x="205.1" y="266.5" class="st4" width="20.5" height="20.5"/>
				<rect x="205.1" y="143.7" class="st5" width="20.5" height="20.5"/>
			</g>
			<g>
			</g>
		</g>
	</g>
</g>
</svg>
